<svg xmlns="http://www.w3.org/2000/svg" width="15" height="15" viewBox="0 0 15 15">
    <g>
        <path d="M9.935 0h-5.42C2.023 0 0 2.022 0 4.516v5.419c0 2.493 2.022 4.516 4.516 4.516h5.419c2.493 0 4.516-2.023 4.516-4.516v-5.42C14.45 2.023 12.428 0 9.935 0zm3.16 9.935c0 1.743-1.417 3.16-3.16 3.16h-5.42c-1.742 0-3.16-1.417-3.16-3.16v-5.42c0-1.742 1.418-3.16 3.16-3.16h5.42c1.743 0 3.16 1.418 3.16 3.16v5.42z"/>
        <path d="M7.225 3.613c-1.995 0-3.612 1.617-3.612 3.612s1.617 3.613 3.612 3.613 3.613-1.618 3.613-3.613c0-1.995-1.618-3.612-3.613-3.612zm0 5.87c-1.244 0-2.258-1.013-2.258-2.258s1.014-2.258 2.258-2.258c1.245 0 2.258 1.013 2.258 2.258S8.47 9.483 7.225 9.483z"/>
        <circle cx="11.109" cy="3.342" r="1"/>
    </g>
</svg>
