<svg width="911" height="699" viewBox="0 0 911 699" fill="none" xmlns="http://www.w3.org/2000/svg">
<g style="mix-blend-mode:multiply" opacity="0.6">
<path d="M275.225 425.617H208.127V676.658H275.225V425.617Z" fill="#98DEDE" fill-opacity="0.41"/>
<path d="M236.797 265.046H169.699V516.087H236.797V265.046Z" fill="#98DEDE" fill-opacity="0.41"/>
<path d="M30.9046 420.724H-131.902V680.367H30.9046V420.724Z" fill="#98DEDE" fill-opacity="0.74"/>
<path d="M180.733 533.415H17.9258V678.574H180.733V533.415Z" fill="#98DEDE" fill-opacity="0.74"/>
<path d="M289.076 125.002V183.458" stroke="#98DEDE" stroke-opacity="0.41" stroke-width="12.831" stroke-miterlimit="10"/>
<path d="M628.579 351.544H538.195V679.791H628.579V351.544Z" fill="#98DEDE" fill-opacity="0.74"/>
<path d="M663.871 288.271H586.023V519.944H663.871V288.271Z" fill="#98DEDE" fill-opacity="0.74"/>
<path d="M641.609 277.637H606.666V295.294H641.609V277.637Z" fill="#98DEDE" fill-opacity="0.74"/>
<path d="M406.65 259.873V682.973H264.82V140.43L320.533 187.347V256.328H368.906V228.096L406.65 259.873Z" fill="#98DEDE" fill-opacity="0.74"/>
<path d="M477.107 272.275V329.966" stroke="#98DEDE" stroke-opacity="0.41" stroke-width="12.831" stroke-miterlimit="10"/>
<path d="M427.549 307.95H305.574V679.791H427.549V307.95Z" fill="white"/>
<path d="M504.866 307.95H427.547V679.791H504.866V307.95Z" fill="#98DEDE" fill-opacity="0.41"/>
<path d="M334.571 338.823H305.574V356.126H334.571V338.823Z" fill="#98DEDE" fill-opacity="0.74"/>
<path d="M363.565 355.952H334.568V373.255H363.565V355.952Z" fill="#98DEDE" fill-opacity="0.74"/>
<path d="M392.563 338.823H363.566V356.126H392.563V338.823Z" fill="#98DEDE" fill-opacity="0.74"/>
<path d="M334.571 355.952H305.574V373.255H334.571V355.952Z" fill="#98DEDE" fill-opacity="0.36"/>
<path d="M363.565 472.772H334.568V490.075H363.565V472.772Z" fill="#98DEDE" fill-opacity="0.36"/>
<path d="M459.946 355.952H437.482V373.255H459.946V355.952Z" fill="#98DEDE" fill-opacity="0.36"/>
<path d="M421.559 560.068H392.562V577.371H421.559V560.068Z" fill="#98DEDE" fill-opacity="0.36"/>
<path d="M421.559 373.264H392.562V390.567H421.559V373.264Z" fill="#98DEDE" fill-opacity="0.74"/>
<path d="M363.565 455.462H334.568V472.765H363.565V455.462Z" fill="#98DEDE" fill-opacity="0.74"/>
<path d="M421.559 472.772H392.562V490.075H421.559V472.772Z" fill="#98DEDE" fill-opacity="0.74"/>
<path d="M459.945 338.823H437.488V356.126H459.945V338.823Z" fill="#98DEDE" fill-opacity="0.74"/>
<path d="M504.867 356.126H482.41V373.429H504.867V356.126Z" fill="#98DEDE" fill-opacity="0.74"/>
<path d="M459.945 422.936H437.488V440.239H459.945V422.936Z" fill="#98DEDE" fill-opacity="0.74"/>
<path d="M392.563 560.068H363.566V577.371H392.563V560.068Z" fill="#98DEDE" fill-opacity="0.74"/>
<path d="M334.571 604.46H305.574V621.763H334.571V604.46Z" fill="#98DEDE" fill-opacity="0.74"/>
<path d="M363.565 621.771H334.568V639.074H363.565V621.771Z" fill="#98DEDE" fill-opacity="0.74"/>
<path d="M334.571 373.264H305.574V390.567H334.571V373.264Z" fill="#98DEDE" fill-opacity="0.74"/>
<path d="M75.5109 361.208H63.668V385.517H75.5109V361.208Z" fill="#98DEDE" fill-opacity="0.36"/>
<path d="M75.5109 312.58H63.668V336.89H75.5109V312.58Z" fill="#98DEDE" fill-opacity="0.36"/>
<path d="M153.93 54.4014H52.0176V679.792H153.93V54.4014Z" fill="white"/>
<path d="M218.532 54.4014H153.928V679.792H218.532V54.4014Z" fill="#98DEDE" fill-opacity="0.74"/>
<path d="M153.93 11.3901H52.0176V39.9844H153.93V11.3901Z" fill="white"/>
<path d="M111.612 0H70.4941V28.5943H111.612V0Z" fill="white"/>
<path d="M204.997 0H163.879V28.5943H204.997V0Z" fill="white"/>
<path d="M218.532 11.3901H153.928V39.9844H218.532V11.3901Z" fill="#98DEDE" fill-opacity="0.74"/>
<path d="M156.038 39.9849H42.6113V54.4095H156.038V39.9849Z" fill="white"/>
<path d="M227.94 39.9849H156.039V54.4095H227.94V39.9849Z" fill="#98DEDE" fill-opacity="0.41"/>
<path d="M75.5109 68.5703H63.668V679.791H75.5109V68.5703Z" fill="#98DEDE" fill-opacity="0.41"/>
<path d="M141.679 68.5703H129.836V679.791H141.679V68.5703Z" fill="#98DEDE" fill-opacity="0.41"/>
<path d="M119.624 68.5703H107.781V679.791H119.624V68.5703Z" fill="#98DEDE" fill-opacity="0.41"/>
<path d="M97.5676 68.5703H85.7246V679.791H97.5676V68.5703Z" fill="#98DEDE" fill-opacity="0.41"/>
<path d="M97.5676 336.89H85.7246V361.199H97.5676V336.89Z" fill="#98DEDE" fill-opacity="0.36"/>
<path d="M119.624 560.866H107.781V585.176H119.624V560.866Z" fill="#98DEDE" fill-opacity="0.36"/>
<path d="M119.624 536.547H107.781V560.857H119.624V536.547Z" fill="#98DEDE" fill-opacity="0.36"/>
<path opacity="0.51" d="M141.679 463.553H129.836V487.862H141.679V463.553Z" fill="#98DEDE" fill-opacity="0.74"/>
<path d="M75.5109 488.225H63.668V512.534H75.5109V488.225Z" fill="#98DEDE" fill-opacity="0.74"/>
<path d="M141.679 262.637H129.836V286.946H141.679V262.637Z" fill="#98DEDE" fill-opacity="0.74"/>
<path d="M75.5109 224.429H63.668V248.738H75.5109V224.429Z" fill="#98DEDE" fill-opacity="0.74"/>
<path opacity="0.51" d="M119.624 487.929H107.781V512.238H119.624V487.929Z" fill="#98DEDE" fill-opacity="0.74"/>
<path d="M75.5109 588.802H63.668V613.112H75.5109V588.802Z" fill="#98DEDE" fill-opacity="0.36"/>
<path d="M119.624 312.58H107.781V336.89H119.624V312.58Z" fill="#98DEDE" fill-opacity="0.36"/>
<path d="M75.5109 385.518H63.668V409.828H75.5109V385.518Z" fill="#98DEDE" fill-opacity="0.36"/>
<path d="M141.679 171.294H129.836V195.604H141.679V171.294Z" fill="#98DEDE" fill-opacity="0.36"/>
<path d="M75.5109 133.514H63.668V157.823H75.5109V133.514Z" fill="#98DEDE" fill-opacity="0.36"/>
<path d="M75.5109 157.823H63.668V182.133H75.5109V157.823Z" fill="#98DEDE" fill-opacity="0.36"/>
<path d="M119.624 288.271H107.781V312.58H119.624V288.271Z" fill="#98DEDE" fill-opacity="0.36"/>
<path d="M880.875 557.009H797.066V676.657H880.875V557.009Z" fill="#98DEDE" fill-opacity="0.74"/>
<path d="M842.916 570.611H831.244V682.973H842.916V570.611Z" fill="white"/>
<path d="M864.91 570.611H853.238V682.973H864.91V570.611Z" fill="white"/>
<path d="M786.311 374.185V434.762" stroke="#98DEDE" stroke-opacity="0.41" stroke-width="12.831" stroke-miterlimit="10"/>
<path d="M769.873 409.992H683.92V687.571H769.873V409.992Z" fill="#98DEDE" fill-opacity="0.41"/>
<path d="M708.562 427.558H695.111V679.8H708.562V427.558Z" fill="#98DEDE" fill-opacity="0.74"/>
<path d="M733.615 427.558H720.164V679.8H733.615V427.558Z" fill="#98DEDE" fill-opacity="0.74"/>
<path d="M758.674 427.558H745.223V679.8H758.674V427.558Z" fill="#98DEDE" fill-opacity="0.74"/>
<path d="M824.349 409.992H769.865V687.571H824.349V409.992Z" fill="#98DEDE" fill-opacity="0.74"/>
<path d="M792.134 427.558H780.463V679.8H792.134V427.558Z" fill="white"/>
<path d="M814.472 427.558H802.801V679.8H814.472V427.558Z" fill="white"/>
<path d="M814.472 541.17H802.801V564.534H814.472V541.17Z" fill="#98DEDE" fill-opacity="0.41"/>
<path d="M814.472 472.772H802.801V496.136H814.472V472.772Z" fill="#98DEDE" fill-opacity="0.41"/>
<path d="M792.134 472.772H780.463V496.136H792.134V472.772Z" fill="#98DEDE" fill-opacity="0.41"/>
<path d="M792.142 496.136H780.471V519.5H792.142V496.136Z" fill="#98DEDE" fill-opacity="0.41"/>
<path d="M842.916 607.191H831.244V630.555H842.916V607.191Z" fill="#98DEDE" fill-opacity="0.41"/>
<path d="M864.91 630.555H853.238V653.919H864.91V630.555Z" fill="#98DEDE" fill-opacity="0.41"/>
<path d="M792.142 564.534H780.471V587.898H792.142V564.534Z" fill="#98DEDE" fill-opacity="0.41"/>
<path d="M814.472 564.534H802.801V587.898H814.472V564.534Z" fill="#98DEDE" fill-opacity="0.41"/>
<path d="M1.83073 365.822H-79.9766V679.792H1.83073V365.822Z" fill="#98DEDE" fill-opacity="0.41"/>
<path d="M721.606 492.229H606.121V679.799H721.606V492.229Z" fill="white"/>
<path d="M606.122 492.229H477.107V679.799H606.122V492.229Z" fill="#98DEDE" fill-opacity="0.36"/>
<path d="M744.042 474.959H616.164V512.534H744.042V474.959Z" fill="#98DEDE" fill-opacity="0.41"/>
<path d="M721.614 512.535H477.107V521.844H721.614V512.535Z" fill="#98DEDE" fill-opacity="0.74"/>
<path d="M721.614 529.352H477.107V538.661H721.614V529.352Z" fill="#98DEDE" fill-opacity="0.41"/>
<path d="M721.614 617.677H477.107V626.986H721.614V617.677Z" fill="#98DEDE" fill-opacity="0.74"/>
<path d="M721.614 634.485H477.107V643.795H721.614V634.485Z" fill="#98DEDE" fill-opacity="0.41"/>
<path d="M616.17 474.959H453.363V512.534H616.17V474.959Z" fill="white"/>
<path d="M744.042 554.238H616.164V617.677H744.042V554.238Z" fill="#98DEDE" fill-opacity="0.41"/>
<path d="M616.17 554.238H453.363V617.677H616.17V554.238Z" fill="white"/>
<path d="M894.405 682.011H-357.348" stroke="white" stroke-width="32.0776" stroke-miterlimit="10" stroke-linecap="round"/>
</g>
</svg>
