<svg width="62" height="62" viewBox="0 0 62 62" fill="none" xmlns="http://www.w3.org/2000/svg">
<path d="M30.75 5.22754C16.6562 5.22754 5.125 16.7332 5.125 30.9038C5.125 43.7163 14.5037 54.3507 26.7525 56.2725V38.335H20.2438V30.9038H26.7525V25.2407C26.7525 18.8088 30.5706 15.2725 36.4388 15.2725C39.2319 15.2725 42.1531 15.7594 42.1531 15.7594V22.0888H38.9244C35.7469 22.0888 34.7475 24.0619 34.7475 26.0863V30.9038H41.8713L40.7181 38.335H34.7475V56.2725C40.7859 55.3189 46.2844 52.2379 50.2504 47.5858C54.2165 42.9337 56.3887 37.017 56.375 30.9038C56.375 16.7332 44.8438 5.22754 30.75 5.22754Z" fill="#0043EA"/>
</svg>
