<svg width="21" height="20" viewBox="0 0 21 20" fill="none" xmlns="http://www.w3.org/2000/svg">
<path d="M10.8946 0.0219727C5.44291 0.0219727 0.982422 4.47255 0.982422 9.95399C0.982422 14.9101 4.61028 19.0236 9.34831 19.7671V12.8285H6.83061V9.95399H9.34831V7.76339C9.34831 5.27543 10.8252 3.90755 13.0951 3.90755C14.1755 3.90755 15.3055 4.09588 15.3055 4.09588V6.54419H14.0566C12.8275 6.54419 12.4409 7.30743 12.4409 8.0905V9.95399H15.1965L14.7505 12.8285H12.4409V19.7671C14.7767 19.3982 16.9036 18.2064 18.4377 16.4069C19.9718 14.6074 20.8121 12.3187 20.8068 9.95399C20.8068 4.47255 16.3463 0.0219727 10.8946 0.0219727Z" fill="black"/>
</svg>
