<svg width="21" height="21" viewBox="0 0 21 21" fill="none" xmlns="http://www.w3.org/2000/svg">
<path d="M6.34477 0.982422H14.671C17.8429 0.982422 20.4201 3.55959 20.4201 6.73149V15.0577C20.4201 16.5825 19.8144 18.0448 18.7362 19.1229C17.6581 20.2011 16.1958 20.8068 14.671 20.8068H6.34477C3.17287 20.8068 0.595703 18.2296 0.595703 15.0577V6.73149C0.595703 5.20674 1.20141 3.74445 2.27957 2.66629C3.35773 1.58813 4.82003 0.982422 6.34477 0.982422ZM6.14653 2.96486C5.20013 2.96486 4.2925 3.34081 3.6233 4.01002C2.9541 4.67922 2.57814 5.58685 2.57814 6.53325V15.256C2.57814 17.2285 4.174 18.8244 6.14653 18.8244H14.8693C15.8157 18.8244 16.7233 18.4484 17.3925 17.7792C18.0617 17.11 18.4376 16.2024 18.4376 15.256V6.53325C18.4376 4.56072 16.8418 2.96486 14.8693 2.96486H6.14653ZM15.7118 4.45169C16.0404 4.45169 16.3556 4.58223 16.5879 4.81459C16.8203 5.04695 16.9508 5.3621 16.9508 5.69071C16.9508 6.01932 16.8203 6.33447 16.5879 6.56683C16.3556 6.7992 16.0404 6.92974 15.7118 6.92974C15.3832 6.92974 15.068 6.7992 14.8357 6.56683C14.6033 6.33447 14.4728 6.01932 14.4728 5.69071C14.4728 5.3621 14.6033 5.04695 14.8357 4.81459C15.068 4.58223 15.3832 4.45169 15.7118 4.45169ZM10.5079 5.93852C11.8223 5.93852 13.0829 6.46068 14.0124 7.39012C14.9418 8.31957 15.464 9.58017 15.464 10.8946C15.464 12.2091 14.9418 13.4697 14.0124 14.3991C13.0829 15.3285 11.8223 15.8507 10.5079 15.8507C9.19346 15.8507 7.93285 15.3285 7.00341 14.3991C6.07396 13.4697 5.5518 12.2091 5.5518 10.8946C5.5518 9.58017 6.07396 8.31957 7.00341 7.39012C7.93285 6.46068 9.19346 5.93852 10.5079 5.93852ZM10.5079 7.92096C9.71923 7.92096 8.96287 8.23425 8.4052 8.79192C7.84753 9.34959 7.53424 10.1059 7.53424 10.8946C7.53424 11.6833 7.84753 12.4396 8.4052 12.9973C8.96287 13.555 9.71923 13.8683 10.5079 13.8683C11.2966 13.8683 12.0529 13.555 12.6106 12.9973C13.1683 12.4396 13.4816 11.6833 13.4816 10.8946C13.4816 10.1059 13.1683 9.34959 12.6106 8.79192C12.0529 8.23425 11.2966 7.92096 10.5079 7.92096Z" fill="black"/>
</svg>
