<svg width="230" height="51" viewBox="0 0 230 51" fill="none" xmlns="http://www.w3.org/2000/svg">
<path fill-rule="evenodd" clip-rule="evenodd" d="M136.856 14.2414C135.753 14.7158 135.064 15.7797 135.116 16.9292L135.152 16.9464C135.162 17.6725 135.477 18.3648 136.027 18.8686C136.577 19.3723 137.317 19.6455 138.081 19.627C139.291 19.626 140.379 18.9256 140.83 17.8577C141.28 16.7898 141.002 15.5689 140.128 14.7732C139.254 13.9776 137.958 13.7671 136.856 14.2414ZM71.7947 15.5222H65.9922V37.8609H71.7947V15.5222ZM83.147 20.6066C77.7241 20.6066 74.1088 23.923 74.1088 29.4561C74.1088 35.1095 77.5975 38.3401 83.147 38.3401C88.6965 38.3401 92.1853 34.9893 92.1853 29.4561C92.1853 23.923 88.57 20.6066 83.147 20.6066ZM86.4367 29.4548C86.4367 26.4133 85.1894 24.6262 83.201 24.6262C81.2126 24.6262 79.9834 26.3446 79.9834 29.4548C79.9834 32.565 81.2126 34.2662 83.201 34.2662C85.1894 34.2662 86.4729 32.565 86.4729 29.472L86.4367 29.4548ZM100.102 39.0097H94.4983L94.5344 39.0268C94.8598 42.1027 98.0774 44.285 103.103 44.3022C108.634 44.3022 112.394 41.7762 112.394 37.7381V21.0012H106.646V23.7725C105.664 21.9047 103.603 20.751 101.385 20.8638C96.8482 20.8638 94.1548 24.163 94.1548 29.4556C94.1548 34.7481 96.9748 37.824 101.223 37.824C103.496 37.9824 105.639 36.8029 106.628 34.8529V37.9099C106.628 39.5939 105.471 40.728 103.247 40.728C101.912 40.8907 100.626 40.1883 100.102 39.0097ZM106.645 29.4543C106.645 26.7565 105.344 25.0553 103.283 25.0553C101.222 25.0553 99.9569 26.7737 99.9569 29.4543C99.9569 32.135 101.204 33.7159 103.283 33.7159C105.362 33.7159 106.645 32.2553 106.645 29.4543ZM123.729 20.6055C118.306 20.6055 114.69 23.922 114.69 29.4551H114.727C114.727 35.1085 118.197 38.339 123.729 38.339C129.26 38.339 132.767 34.9882 132.767 29.4551C132.767 23.922 129.152 20.6055 123.729 20.6055ZM127.02 29.4551C127.02 26.4136 125.754 24.6265 123.784 24.6265C121.814 24.6265 120.566 26.3449 120.566 29.4551C120.566 32.5654 121.796 34.2666 123.784 34.2666C125.772 34.2666 127.056 32.5654 127.056 29.4723L127.02 29.4551ZM135.117 20.9853H140.992V37.9283H135.207L135.117 20.9853ZM155.091 38.1682C159.52 38.1682 162.123 34.9721 162.123 29.4561L162.231 29.4733C162.231 23.9402 159.61 20.7612 155.055 20.7956C152.704 20.6892 150.535 21.9949 149.632 24.0605H149.523V21.0362H143.757V43.3749H149.559V35.0236H149.668C150.603 37.0489 152.768 38.3044 155.091 38.1682ZM156.212 29.4553C156.212 26.7746 154.892 25.0391 152.849 25.0391C150.807 25.0391 149.523 26.7575 149.505 29.4553C149.487 32.1531 150.807 33.8543 152.849 33.8543C154.892 33.8543 156.32 32.2562 156.32 29.4725L156.212 29.4553ZM179.947 26.2771C179.911 22.7716 176.893 20.5893 172.03 20.5893L172.138 20.6065C167.24 20.6065 164.203 22.7544 164.094 26.1224C164.094 28.7172 165.92 30.4527 169.409 31.1572L172.771 31.8274C174.163 32.1023 174.705 32.257 174.705 33.1677C174.705 34.0784 173.91 34.594 172.211 34.594C170.512 34.594 169.463 33.8551 169.3 32.6007H163.679C163.914 36.0546 167.149 38.3228 172.12 38.3228C177.091 38.3228 180.436 35.9858 180.436 32.5491C180.436 29.9887 178.989 28.6141 175.374 27.8923L171.65 27.1706C170.313 26.9129 169.644 26.6379 169.644 25.7616C169.644 24.8852 170.403 24.301 171.994 24.301C173.585 24.301 174.651 25.057 174.651 26.2771H179.947ZM199.868 37.9106H194.246V34.7316H194.137C193.489 36.9158 191.333 38.3797 188.949 38.2542C187.182 38.3089 185.475 37.6438 184.256 36.4262C183.037 35.2085 182.423 33.5542 182.568 31.8791V21.0019H188.371V30.6934C188.371 32.6867 189.474 33.7693 191.281 33.7693C192.139 33.7632 192.952 33.4039 193.511 32.7843C194.069 32.1648 194.317 31.3457 194.192 30.5388V21.0019H199.976L199.868 37.9106ZM208.31 20.9861H202.67L202.706 37.9292H208.509V27.9283C208.415 27.2249 208.645 26.5172 209.14 25.9871C209.636 25.457 210.348 25.1561 211.094 25.1617C212.684 25.1617 213.57 26.0725 213.57 27.7908V37.9292H219.102V27.8939C219.001 27.1985 219.225 26.4961 219.715 25.971C220.205 25.4458 220.912 25.1502 221.65 25.1617C223.295 25.1617 224.145 26.124 224.145 27.8424V37.9292H229.984V26.4333C230.103 24.9108 229.534 23.4121 228.419 22.313C227.305 21.2139 225.75 20.6187 224.145 20.6768C221.69 20.5676 219.465 22.0413 218.722 24.2682H218.469C218.04 22.0358 215.894 20.4802 213.516 20.6768C211.165 20.6313 209.077 22.1 208.436 24.251H208.31V20.9861Z" fill="#808080"/>
<path fill-rule="evenodd" clip-rule="evenodd" d="M54.5104 16.9789C54.5107 9.97898 49.9916 3.69643 43.1295 1.15713C36.2675 -1.38217 28.4694 0.342408 23.4911 5.50025H0.931641V50.7619H48.5632V29.6089C52.3443 26.394 54.5069 21.8012 54.5104 16.9789ZM45.3451 16.9793C45.3525 20.3308 43.2343 23.3562 39.9791 24.6436C36.7239 25.931 32.9734 25.2266 30.4778 22.8592C27.9821 20.4917 27.2334 16.9279 28.5809 13.8309C29.9284 10.7338 33.1066 8.71397 36.6323 8.71396C41.4372 8.71395 45.3352 12.4117 45.3451 16.9793ZM10.0972 42.0528H39.3992V33.7531C38.4849 33.8972 37.5601 33.9719 36.6335 33.9765C26.764 33.9671 18.7658 26.3639 18.7558 16.9819C18.7638 16.0541 18.8545 15.1286 19.027 14.2154H10.0972V42.0528Z" fill="#808080"/>
</svg>
