<?xml version="1.0" encoding="UTF-8"?>
<svg width="419px" height="174px" viewBox="0 0 419 174" version="1.1" xmlns="http://www.w3.org/2000/svg" xmlns:xlink="http://www.w3.org/1999/xlink">
    <!-- Generator: Sketch 60.1 (88133) - https://sketch.com -->
    <title>Group 8</title>
    <desc>Created with Sketch.</desc>
    <defs>
        <filter x="-23.5%" y="-138.5%" width="146.9%" height="376.9%" filterUnits="objectBoundingBox" id="filter-1">
            <feGaussianBlur stdDeviation="24" in="SourceGraphic"></feGaussianBlur>
        </filter>
    </defs>
    <g id="Landing-Page" stroke="none" stroke-width="1" fill="none" fill-rule="evenodd">
        <g id="Desktop-HD-Copy-4" transform="translate(-385.000000, -1865.000000)">
            <g id="Group-8" transform="translate(409.000000, 1892.000000)">
                <g id="Group-2">
                    <rect id="Rectangle" fill="#090063" filter="url(#filter-1)" x="32" y="34" width="307" height="52" rx="26"></rect>
                    <path d="M33.6,0 L335.4,0 C353.956768,-3.40882291e-15 369,15.0432324 369,33.6 L369,74.4 C369,92.9567676 353.956768,108 335.4,108 L314.04266,108 L314.04266,108 L274.12211,108 L33.6,108 C15.0432324,108 -4.83287875e-15,92.9567676 0,74.4 L0,33.6 C-2.2725486e-15,15.0432324 15.0432324,3.40882291e-15 33.6,0 Z" id="Rectangle" fill="#FFFFFF"></path>
                </g>
                <text id="24%" font-family="Helvetica" font-size="15.092" font-weight="normal" line-spacing="25.872" fill="#2CD9C5">
                    <tspan x="145" y="56">24%</tspan>
                </text>
                <text id="7.2k" font-family="Mont-HeavyDEMO, Mont" font-size="30" font-weight="600" line-spacing="25.2" fill="#000000">
                    <tspan x="32" y="52">7.2k </tspan>
                </text>
                <text id="Total-Reach" font-family="Helvetica" font-size="12" font-weight="normal" line-spacing="14.4" fill="#000000">
                    <tspan x="46.1503906" y="75">Total Reach</tspan>
                </text>
                <text id="28.7k" font-family="Mont-HeavyDEMO, Mont" font-size="30" font-weight="600" line-spacing="25.2" fill="#000000">
                    <tspan x="208" y="52">28.7k </tspan>
                </text>
                <text id="Impressions" font-family="Helvetica" font-size="12" font-weight="normal" line-spacing="14.4" fill="#000000">
                    <tspan x="219.65625" y="75">Impressions</tspan>
                </text>
                <line x1="188" y1="20" x2="188" y2="88" id="Line-2" stroke="#939393" stroke-width="0.2" stroke-linecap="square"></line>
                <polygon id="Triangle" fill="#2CD9C5" points="134.5 52 140 57 129 57"></polygon>
                <text id="18%" font-family="Helvetica" font-size="15.092" font-weight="normal" line-spacing="25.872" fill="#2CD9C5">
                    <tspan x="323" y="56">18%</tspan>
                </text>
                <polygon id="Triangle" fill="#2CD9C5" points="312.5 52 318 57 307 57"></polygon>
            </g>
        </g>
    </g>
</svg>