<svg width="1573" height="1569" viewBox="0 0 1573 1569" fill="none" xmlns="http://www.w3.org/2000/svg">
<path d="M210.445 244.847C326.178 244.847 419.999 244.346 419.999 243.728C419.999 243.109 326.178 242.608 210.445 242.608C94.7112 242.608 0.890625 243.109 0.890625 243.728C0.890625 244.346 94.7112 244.847 210.445 244.847Z" fill="#8E8E8E"/>
<path opacity="0.36" d="M364.509 243.728H325.439C325.665 238.698 327.821 233.949 331.46 230.469C335.099 226.989 339.939 225.047 344.974 225.046C345.336 225.046 345.698 225.046 346.053 225.077C350.894 225.345 355.463 227.402 358.873 230.848C362.283 234.294 364.292 238.884 364.509 243.728Z" fill="black"/>
<path opacity="0.36" d="M400.018 232.728C400.023 236.513 399.244 240.258 397.73 243.728H347.255C345.622 239.978 344.846 235.911 344.982 231.823C345.118 227.736 346.164 223.73 348.043 220.097C349.921 216.464 352.586 213.296 355.843 210.822C359.1 208.348 362.868 206.632 366.872 205.797C370.875 204.962 375.015 205.03 378.989 205.996C382.963 206.962 386.672 208.801 389.846 211.381C393.021 213.96 395.58 217.215 397.338 220.907C399.097 224.6 400.01 228.638 400.012 232.728H400.018Z" fill="black"/>
<path opacity="0.36" d="M414.483 241.603C414.483 242.313 414.437 243.023 414.347 243.728H381.505C381.204 241.394 381.404 239.022 382.091 236.771C382.779 234.52 383.938 232.442 385.492 230.674C387.046 228.907 388.958 227.491 391.102 226.52C393.246 225.55 395.572 225.047 397.926 225.046C398.266 225.046 398.603 225.046 398.94 225.077C403.148 225.336 407.099 227.189 409.987 230.26C412.875 233.331 414.483 237.388 414.483 241.603V241.603Z" fill="black"/>
<path opacity="0.36" d="M206.568 243.727H173.535C173.816 239.538 175.678 235.612 178.745 232.745C181.812 229.877 185.853 228.282 190.052 228.282C194.25 228.282 198.292 229.877 201.358 232.745C204.425 235.612 206.287 239.538 206.568 243.727V243.727Z" fill="black"/>
<path opacity="0.36" d="M242.68 241.603C242.68 242.32 242.648 243.029 242.584 243.727H195.676C195.61 243.029 195.578 242.32 195.58 241.603C195.544 238.488 196.127 235.396 197.294 232.508C198.462 229.619 200.191 226.991 202.381 224.775C204.572 222.56 207.18 220.8 210.055 219.6C212.93 218.399 216.014 217.781 219.13 217.781C222.246 217.781 225.33 218.399 228.205 219.6C231.08 220.8 233.688 222.56 235.879 224.775C238.069 226.991 239.798 229.619 240.966 232.508C242.133 235.396 242.716 238.488 242.68 241.603V241.603Z" fill="black"/>
<path opacity="0.36" d="M266.616 242.602C266.616 242.979 266.616 243.35 266.576 243.721H234.946C234.919 243.35 234.906 242.979 234.906 242.602C234.906 238.397 236.577 234.364 239.55 231.391C242.523 228.418 246.556 226.747 250.761 226.747C254.966 226.747 258.999 228.418 261.972 231.391C264.945 234.364 266.616 238.397 266.616 242.602V242.602Z" fill="black"/>
<path opacity="0.36" d="M283.022 243.727H262.392C262.368 242.358 262.618 240.997 263.125 239.725C263.633 238.453 264.389 237.294 265.349 236.317C266.309 235.341 267.455 234.565 268.718 234.035C269.981 233.505 271.337 233.232 272.707 233.232C274.077 233.232 275.433 233.505 276.696 234.035C277.959 234.565 279.104 235.341 280.065 236.317C281.025 237.294 281.781 238.453 282.288 239.725C282.796 240.997 283.045 242.358 283.022 243.727V243.727Z" fill="black"/>
<path d="M155.988 221.144H329.94L340.089 202.496C340.089 202.496 343.642 161.707 326.894 155.238C310.145 148.769 213.853 148.323 213.853 148.323L155.988 221.144Z" fill="#FFE100"/>
<path d="M151.859 243.727C160.808 243.727 168.063 226.602 168.063 205.477C168.063 184.352 160.808 167.227 151.859 167.227C142.909 167.227 135.654 184.352 135.654 205.477C135.654 226.602 142.909 243.727 151.859 243.727Z" fill="#232428"/>
<path d="M172.189 167.227H151.859V243.727H172.189V167.227Z" fill="#232428"/>
<path d="M172.189 243.727C181.138 243.727 188.393 226.602 188.393 205.477C188.393 184.352 181.138 167.227 172.189 167.227C163.239 167.227 155.984 184.352 155.984 205.477C155.984 226.602 163.239 243.727 172.189 243.727Z" fill="black"/>
<path d="M172.189 234.19C178.281 234.19 183.219 221.335 183.219 205.477C183.219 189.62 178.281 176.764 172.189 176.764C166.097 176.764 161.158 189.62 161.158 205.477C161.158 221.335 166.097 234.19 172.189 234.19Z" fill="black"/>
<path d="M198.798 243.727C207.747 243.727 215.002 226.602 215.002 205.477C215.002 184.352 207.747 167.227 198.798 167.227C189.849 167.227 182.594 184.352 182.594 205.477C182.594 226.602 189.849 243.727 198.798 243.727Z" fill="#232428"/>
<path d="M219.128 167.227H198.799V243.727H219.128V167.227Z" fill="#232428"/>
<path d="M219.128 243.727C228.077 243.727 235.332 226.602 235.332 205.477C235.332 184.352 228.077 167.227 219.128 167.227C210.179 167.227 202.924 184.352 202.924 205.477C202.924 226.602 210.179 243.727 219.128 243.727Z" fill="#42444C"/>
<path d="M219.128 234.19C225.22 234.19 230.159 221.335 230.159 205.477C230.159 189.62 225.22 176.764 219.128 176.764C213.036 176.764 208.098 189.62 208.098 205.477C208.098 221.335 213.036 234.19 219.128 234.19Z" fill="white"/>
<path d="M39.5343 243.727C48.4837 243.727 55.7386 226.602 55.7386 205.477C55.7386 184.352 48.4837 167.227 39.5343 167.227C30.585 167.227 23.3301 184.352 23.3301 205.477C23.3301 226.602 30.585 243.727 39.5343 243.727Z" fill="#232428"/>
<path d="M59.8627 167.227H39.5332V243.727H59.8627V167.227Z" fill="#232428"/>
<path d="M59.8624 243.727C68.8118 243.727 76.0667 226.602 76.0667 205.477C76.0667 184.352 68.8118 167.227 59.8624 167.227C50.9131 167.227 43.6582 184.352 43.6582 205.477C43.6582 226.602 50.9131 243.727 59.8624 243.727Z" fill="black"/>
<path d="M59.8627 234.19C65.9547 234.19 70.8933 221.335 70.8933 205.477C70.8933 189.62 65.9547 176.764 59.8627 176.764C53.7706 176.764 48.832 189.62 48.832 205.477C48.832 221.335 53.7706 234.19 59.8627 234.19Z" fill="black"/>
<path d="M303.78 243.727C312.73 243.727 319.985 226.602 319.985 205.477C319.985 184.352 312.73 167.227 303.78 167.227C294.831 167.227 287.576 184.352 287.576 205.477C287.576 226.602 294.831 243.727 303.78 243.727Z" fill="#232428"/>
<path d="M324.109 167.227H303.779V243.727H324.109V167.227Z" fill="#232428"/>
<path d="M324.11 243.727C333.06 243.727 340.315 226.602 340.315 205.477C340.315 184.352 333.06 167.227 324.11 167.227C315.161 167.227 307.906 184.352 307.906 205.477C307.906 226.602 315.161 243.727 324.11 243.727Z" fill="#42444C"/>
<path d="M324.109 234.19C330.201 234.19 335.139 221.335 335.139 205.477C335.139 189.62 330.201 176.764 324.109 176.764C318.017 176.764 313.078 189.62 313.078 205.477C313.078 221.335 318.017 234.19 324.109 234.19Z" fill="white"/>
<path d="M210.951 32.7446H176.572L179.665 12.5882C180.182 9.22006 181.888 6.14836 184.474 3.92928C187.06 1.7102 190.355 0.490404 193.763 0.490723V0.490723C197.17 0.490508 200.465 1.71042 203.051 3.92955C205.636 6.14868 207.342 9.22032 207.858 12.5882L210.951 32.7446Z" fill="black"/>
<path d="M340.313 204.98C340.539 204.141 340.962 156.862 326.369 156.862C315.546 156.862 309.339 194.589 306.946 211.82C306.748 213.249 306.575 214.554 306.429 215.707C306.238 217.211 305.504 218.594 304.365 219.595C303.226 220.596 301.761 221.147 300.244 221.144H241.396C240.818 221.143 240.249 221.003 239.737 220.735C239.225 220.466 238.785 220.078 238.456 219.603C238.127 219.128 237.917 218.581 237.845 218.007C237.773 217.434 237.842 216.852 238.044 216.31C238.58 214.839 239.036 213.34 239.41 211.82C243.885 194.193 244.612 157.981 225.785 156.701C208.626 155.538 200.341 188.333 196.244 207.577C195.424 211.421 193.309 214.867 190.252 217.336C187.195 219.806 183.382 221.15 179.452 221.144H37.1235C31.5215 221.144 26.1074 219.124 21.8753 215.453C17.6432 211.783 14.8771 206.709 14.085 201.163C10.6586 158.346 43.1692 107.723 43.1692 107.723C43.1692 107.723 72.5069 58.4271 98.7429 44.3782C144.795 19.7162 247.605 27.7627 280.19 44.7988C288.815 49.3075 296.02 57.4004 302.007 67.2342C308.931 78.605 314.228 92.3044 318.205 105.481C326.057 131.476 328.781 152.644 328.781 152.644C344.531 166.838 340.619 204.219 340.313 204.98Z" fill="white"/>
<path d="M318.823 141.458C320.249 141.318 320.933 136.409 320.351 130.494C319.769 124.579 318.141 119.898 316.715 120.038C315.289 120.179 314.605 125.087 315.187 131.002C315.769 136.917 317.397 141.598 318.823 141.458Z" stroke="black" stroke-width="2.07387" stroke-miterlimit="10"/>
<path d="M302.144 186.58C300.872 191.824 297.875 196.488 293.634 199.825C289.394 203.162 284.155 204.977 278.759 204.98H261.822C258.601 204.98 255.512 203.7 253.235 201.423C250.957 199.145 249.678 196.056 249.678 192.836V63.1369C249.678 59.9579 250.941 56.9092 253.188 54.6614C255.436 52.4135 258.485 51.1507 261.664 51.1507H267.595C283.156 51.1507 295.832 62.3483 300.066 77.3218C302.893 87.295 305.004 97.4579 306.38 107.733C309.9 134.049 308.463 160.792 302.144 186.58V186.58Z" fill="#316CFF"/>
<path d="M306.38 107.733H249.678V63.1369C249.678 59.9579 250.941 56.9092 253.188 54.6614C255.436 52.4135 258.485 51.1507 261.664 51.1507H267.595C283.156 51.1507 295.832 62.3483 300.065 77.3218C302.893 87.295 305.004 97.4579 306.38 107.733V107.733Z" fill="black"/>
<path d="M299.528 107.732H254.23V65.8085C254.23 63.2661 255.24 60.8277 257.038 59.0299C258.836 57.2321 261.274 56.2221 263.817 56.2221H268.554C280.986 56.2221 291.111 65.1684 294.494 77.1299C296.875 85.5938 298.498 100.014 299.528 107.732Z" fill="white"/>
<path d="M295.492 121.871H265.156C263.236 121.871 261.68 123.427 261.68 125.347C261.68 127.266 263.236 128.823 265.156 128.823H295.492C297.412 128.823 298.968 127.266 298.968 125.347C298.968 123.427 297.412 121.871 295.492 121.871Z" fill="#8FDBDB"/>
<path d="M44.0566 107.726H306.414" stroke="black" stroke-width="3.45645" stroke-miterlimit="10"/>
<path d="M235.332 44.4185C234.66 45.2781 234.068 46.1973 233.563 47.1646C226.677 60.329 219.085 83.0087 211.951 107.723H43.1699C43.1699 107.723 44.7471 105.073 47.4993 100.824C56.6095 86.7443 78.5935 55.1677 98.7436 44.3783L99.3126 44.0691C118.764 39.1954 141.87 36.372 166.656 36.372C192.017 36.3813 215.609 39.3377 235.332 44.4185Z" fill="black"/>
<path d="M219.849 47.5573C220.158 47.6234 220.448 47.7611 220.694 47.9592C220.94 48.1573 221.137 48.4104 221.268 48.6982C221.398 48.9859 221.46 49.3003 221.447 49.6161C221.435 49.932 221.348 50.2404 221.195 50.5168V50.5415C216.077 59.8528 210.513 74.8417 205.114 91.7448C203.311 97.3946 197.924 101.254 191.817 101.254H56.1062C55.8569 101.262 55.6101 101.202 55.3925 101.08C55.1748 100.959 54.9945 100.78 54.871 100.563C54.7476 100.346 54.6856 100.1 54.6918 99.8506C54.6981 99.6012 54.7722 99.3583 54.9064 99.148C55.5248 98.1956 56.3567 96.9524 57.3586 95.4773C65.3804 83.6952 84.7358 57.2428 102.477 48.2098C102.793 48.0462 103.127 47.9216 103.473 47.8387C120.496 43.8186 140.656 41.5117 162.266 41.5117C183.359 41.5117 203.082 43.7228 219.849 47.5573Z" fill="white"/>
<path d="M211.95 107.723C202.939 138.895 193.479 178.849 188.166 202.042C186.923 207.466 183.876 212.308 179.524 215.776C175.172 219.244 169.771 221.132 164.206 221.131H37.1235C31.5215 221.132 26.1074 219.111 21.8753 215.441C17.6432 211.77 14.8771 206.697 14.085 201.151C10.6586 158.333 43.1692 107.711 43.1692 107.711L211.95 107.723Z" fill="#316CFF"/>
<path fill-rule="evenodd" clip-rule="evenodd" d="M102.403 135.79C106.537 135.79 109.234 139.142 108.424 143.28L103.182 170.035C102.375 174.173 98.3641 177.522 94.2141 177.522C90.0641 177.522 87.383 174.173 88.1932 170.035L93.4317 143.28C94.2574 139.142 98.2683 135.79 102.403 135.79Z" fill="#FFE100"/>
<path fill-rule="evenodd" clip-rule="evenodd" d="M98.7766 148.41C101.646 148.367 103.545 150.349 103.019 152.838L99.6178 168.919C99.0921 171.408 96.3398 173.459 93.47 173.499C90.6003 173.539 88.7046 171.56 89.2272 169.071L92.6289 152.99C93.1577 150.504 95.9069 148.453 98.7766 148.41Z" fill="#F6555A"/>
<path d="M202.217 12.6468H196.697V15.8815H202.217V12.6468Z" fill="#727272"/>
<path d="M338.839 66.6435L336.464 102.46C336.256 103.352 335.838 104.182 335.246 104.881C334.654 105.58 333.904 106.128 333.058 106.48C332.211 106.831 331.294 106.977 330.381 106.904C329.467 106.831 328.584 106.541 327.805 106.059L300.125 89.4191L307.445 76.7402L326.466 90.2231L331.343 63.0903" fill="#F48C6B"/>
<path d="M326.451 90.2048L325.891 94.0517L321.648 86.8031L326.451 90.2048Z" fill="#CF3E83"/>
<path d="M190.672 12.6468H185.152V15.8815H190.672V12.6468Z" fill="#727272"/>
<path fill-rule="evenodd" clip-rule="evenodd" d="M175.705 150.374L173.716 160.838L173.317 162.938C171.771 170.994 164.012 177.522 155.959 177.522C147.907 177.522 142.616 170.994 144.146 162.938L146.537 150.374C148.083 142.333 155.839 135.79 163.895 135.79C168.468 135.79 172.151 137.896 174.202 141.192C175.757 143.697 176.366 146.895 175.705 150.374Z" fill="white"/>
<path fill-rule="evenodd" clip-rule="evenodd" d="M175.704 150.374L173.716 160.838C171.925 161.925 169.875 162.509 167.78 162.53C165.686 162.551 163.624 162.008 161.812 160.958C160 159.908 158.503 158.389 157.48 156.562C156.457 154.734 155.944 152.665 155.996 150.571C156.047 148.478 156.662 146.436 157.774 144.661C158.887 142.887 160.456 141.444 162.318 140.485C164.18 139.526 166.266 139.085 168.356 139.21C170.447 139.334 172.466 140.019 174.201 141.192C175.757 143.697 176.366 146.895 175.704 150.374Z" fill="#25252B"/>
<path fill-rule="evenodd" clip-rule="evenodd" d="M56.1947 150.374L54.2063 160.838L53.8074 162.938C52.2612 170.994 44.5024 177.522 36.4497 177.522C28.3971 177.522 23.106 170.994 24.6367 162.938L27.0271 150.374C28.5579 142.333 36.3291 135.79 44.3848 135.79C48.9585 135.79 52.6416 137.896 54.6918 141.192C56.2597 143.697 56.8565 146.895 56.1947 150.374Z" fill="white"/>
<path fill-rule="evenodd" clip-rule="evenodd" d="M56.1961 150.374L54.2077 160.838C52.4169 161.925 50.3668 162.509 48.2723 162.53C46.1779 162.551 44.1165 162.008 42.3042 160.958C40.4919 159.908 38.9956 158.389 37.9722 156.562C36.9489 154.734 36.4362 152.665 36.4879 150.571C36.5397 148.478 37.154 146.436 38.2663 144.661C39.3787 142.887 40.9482 141.444 42.8101 140.485C44.6721 139.526 46.7578 139.085 48.8487 139.21C50.9395 139.334 52.9582 140.019 54.6932 141.192C56.2611 143.697 56.8579 146.895 56.1961 150.374Z" fill="#25252B"/>
<path d="M93.935 195.696C96.0996 201.247 104.567 203.118 112.854 199.908C121.142 196.698 125.338 187.483 123.18 181.932C121.021 176.381 112.771 183.227 104.48 186.453C96.1893 189.678 91.7765 190.145 93.935 195.696Z" fill="white"/>
<path d="M167.665 41.5611L126.227 101.245H86.2324L126.125 43.766C138.11 42.2385 150.18 41.4824 162.262 41.5024C164.077 41.5086 165.877 41.5282 167.665 41.5611Z" fill="#98DEDE" fill-opacity="0.74"/>
<path d="M189.195 42.7485L148.585 101.254H136.568L177.756 41.9043C181.638 42.1104 185.451 42.3918 189.195 42.7485Z" fill="#98DEDE" fill-opacity="0.74"/>
<path d="M331.446 64.4077L330.757 61.5997C330.461 60.4593 330.266 59.2952 330.172 58.1208C329.968 55.9561 330.559 54.7995 329.829 51.2896C329 47.3066 331.684 49.527 332.402 51.3515C332.959 52.7771 332.458 54.3944 333.385 55.4026C333.902 54.8985 334.959 54.2553 336.7 49.2177C337.01 48.3178 337.334 45.2254 337.334 45.2254C337.548 44.3255 337.894 42.4423 338.976 42.3928C339.245 42.3928 339.505 42.7453 339.505 42.7453C339.505 42.7453 339.694 41.5516 340.789 41.5733C341.218 41.5733 341.407 44.307 341.407 44.307C341.407 44.307 341.846 43.07 342.644 43.104C342.873 43.104 343.655 51.0701 343.655 51.0701L343.906 49.3785L343.98 47.6035C343.98 47.6035 344.233 46.6974 345 46.716C345.31 46.716 345.483 48.3797 345.563 50.2939C345.688 52.7122 345.292 55.1291 344.404 57.3817C343.498 59.8216 343.417 60.6968 341.546 63.5047C340.66 64.7632 339.665 65.9408 338.571 67.0238" fill="#F48C6B"/>
<path d="M290.143 71.8574C303.406 71.8574 314.158 61.1052 314.158 47.8417C314.158 34.5782 303.406 23.826 290.143 23.826C276.879 23.826 266.127 34.5782 266.127 47.8417C266.127 61.1052 276.879 71.8574 290.143 71.8574Z" fill="#240040"/>
<path d="M310.729 36.2484C317.851 36.2484 323.625 30.475 323.625 23.3531C323.625 16.2312 317.851 10.4577 310.729 10.4577C303.607 10.4577 297.834 16.2312 297.834 23.3531C297.834 30.475 303.607 36.2484 310.729 36.2484Z" fill="#240040"/>
<path d="M265.991 47.0431L265.564 80.4972L313.595 81.1092L314.021 47.6551L265.991 47.0431Z" fill="#240040"/>
<path d="M319.708 83.1292L311.955 104.538L304.104 97.4007L299.422 106.931L257.591 106.956C256.24 104.519 249.721 91.958 249.721 91.958C249.721 91.958 256.796 79.811 261.679 76.3352C269.385 70.8492 278.898 70.6482 288.868 71.3873C302.997 72.4233 319.708 83.1292 319.708 83.1292Z" fill="#F6555A"/>
<path d="M281.583 85.6865C280.723 85.6902 279.867 85.5768 279.038 85.3494C277.439 84.8949 276.211 83.661 275.584 81.8705C274.656 79.2543 275.163 75.8248 276.802 73.521C279.585 69.6183 281.302 69.3864 281.617 69.3802H281.676H281.735C281.871 69.4019 285.118 69.9678 287.811 70.7285L293.479 72.3211L293.693 72.3799L293.82 72.5592C293.943 72.7386 294.976 74.4147 292.756 78.6049C290.48 82.8972 286.095 85.668 281.583 85.668V85.6865Z" fill="#F48C6B"/>
<path d="M281.629 70.008C281.629 70.008 284.951 70.5801 287.644 71.3408C289.809 71.9593 293.312 72.9334 293.312 72.9334C293.312 72.9334 294.317 74.359 292.208 78.3358C289.837 82.8075 285.405 85.068 281.583 85.068C280.78 85.074 279.98 84.9699 279.205 84.7588C275.268 83.6455 274.761 77.4607 277.303 73.8951C280.052 70.0482 281.632 70.0142 281.632 70.0142L281.629 70.008ZM281.725 68.7772H281.605C281.091 68.7772 279.183 69.139 276.301 73.1777C275.417 74.4629 274.84 75.9342 274.614 77.4779C274.389 79.0216 274.522 80.5965 275.002 82.0808C275.701 84.0692 277.074 85.4422 278.874 85.9494C279.757 86.194 280.67 86.3157 281.586 86.3112C286.324 86.3112 290.922 83.4105 293.306 78.9203C295.592 74.6095 294.664 72.7077 294.327 72.2283L294.073 71.8665L293.65 71.749C293.65 71.749 290.161 70.7749 287.984 70.1564C285.257 69.3895 281.982 68.8174 281.843 68.7927L281.725 68.7741V68.7772Z" fill="#316CFF"/>
<path d="M293.38 60.6443C291.695 62.4441 291.692 65.2489 292.116 66.9714C292.258 67.562 292.975 72.4233 293.17 72.6769C293.925 73.6541 281.821 76.3352 281.821 76.3352L282.876 67.0085C279.607 66.5632 275.843 65.6509 274.031 63.8573C268.632 58.5136 271.063 44.1247 271.304 43.4289L277.646 38.6233C277.646 38.6233 286.209 36.5297 287.103 38.314C288.736 41.5641 291.383 55.1893 295.369 54.4719C295.369 54.4719 295.678 50.4517 298.944 51.098C301.384 51.5805 301.662 53.6678 301.439 54.8089C300.688 58.6033 295.644 58.2168 293.38 60.6443Z" fill="#F48C6B"/>
<path d="M276.313 54.1193L272.865 59.3331L275.59 59.8093L276.313 54.1193Z" fill="#316CFF"/>
<path d="M280.932 55.086C281.101 53.9421 280.614 52.9226 279.843 52.8087C279.073 52.6948 278.311 53.5297 278.142 54.6735C277.973 55.8173 278.46 56.8369 279.231 56.9508C280.001 57.0647 280.763 56.2298 280.932 55.086Z" fill="#0D0B6D"/>
<path d="M273.899 54.2362C274.068 53.0924 273.581 52.0728 272.81 51.9589C272.04 51.845 271.278 52.6799 271.109 53.8237C270.94 54.9675 271.427 55.9871 272.198 56.101C272.968 56.2149 273.73 55.38 273.899 54.2362Z" fill="#0D0B6D"/>
<path d="M280.48 38.2119C280.224 39.5337 279.716 40.7937 278.983 41.9228C278.89 42.062 278.795 42.2042 278.693 42.3372C278.028 43.2548 277.229 44.0678 276.324 44.7493C273.708 46.6751 270.463 47.5442 267.235 47.183C267.059 47.1645 266.889 47.1459 266.719 47.1181L267.526 43.0175C267.548 42.8877 267.572 42.764 267.597 42.6372C268.59 37.6981 271.364 33.296 275.39 30.2675C276.128 29.7036 276.902 29.1872 277.706 28.7213C279.028 30.175 279.957 31.9418 280.406 33.8547C280.739 35.2855 280.764 36.7707 280.48 38.2119V38.2119Z" fill="#240040"/>
<path d="M295.749 42.9249C295.078 46.3265 291.419 48.5932 287.047 48.6458C286.7 48.6458 286.351 48.6458 285.995 48.6149C285.41 48.5787 284.829 48.5033 284.254 48.3891C278.713 47.2975 274.878 43.0826 275.688 38.9728C275.765 38.5833 275.882 38.2029 276.038 37.8378C277.491 34.4362 282.176 32.522 287.17 33.5085C292.659 34.5877 296.472 38.7346 295.758 42.8074C295.764 42.8476 295.758 42.8877 295.749 42.9249Z" fill="#240040"/>
<path d="M282.876 67.0084C282.876 67.0084 286.939 67.9361 288.869 67.3176L282.566 69.7359L282.876 67.0084Z" fill="#CF3E83"/>
<path d="M292.544 62.6864L313.808 62.9573L313.551 83.1522C313.52 85.6125 312.512 87.9596 310.75 89.6771C308.989 91.3946 306.617 92.3419 304.156 92.3105L292.156 92.1576L292.531 62.6862L292.544 62.6864Z" fill="#240040"/>
<path d="M285.795 118.825C284.125 120.55 283.046 120.083 283.046 120.083C283.046 120.083 282.83 120.875 282.289 120.949C281.747 121.024 280.028 120.269 281.083 117.375C280.86 117.953 280.18 119.385 279.375 119.18C278.367 118.936 277.972 117.743 277.972 117.743C277.972 117.743 276.425 116.963 276.589 115.711C276.898 113.28 276.982 109.882 276.982 109.882L273.154 107.383L254.231 106.891L254.033 94.2835L284.268 103.187C284.268 103.601 285.718 105.391 286.828 107.129C286.884 107.21 286.94 107.296 286.989 107.383C287.607 108.357 288.071 109.288 288.09 109.931C288.155 111.771 287.468 117.096 285.795 118.825Z" fill="#F48C6B"/>
<path d="M283.398 119.385C283.398 119.385 285.158 115.467 285.473 113.67C285.75 112.111 285.887 110.531 285.882 108.948" stroke="#C14999" stroke-width="1.38258" stroke-miterlimit="10" stroke-linecap="round"/>
<path d="M280.936 118.055C280.936 118.055 282.145 114.703 282.605 113.339C283.122 111.814 283.125 108.391 283.125 108.391" stroke="#C14999" stroke-width="1.38258" stroke-miterlimit="10" stroke-linecap="round"/>
<path d="M279.962 108.029C279.962 108.029 280.25 110.574 279.993 112.383C279.702 114.02 279.136 115.595 278.32 117.044" stroke="#C14999" stroke-width="1.38258" stroke-miterlimit="10" stroke-linecap="round"/>
<path d="M268.505 89.6634V97.2584C268.505 98.1068 268.338 98.9471 268.014 99.731C267.689 100.515 267.213 101.227 266.613 101.827C266.014 102.427 265.301 102.903 264.517 103.228C263.733 103.552 262.893 103.719 262.045 103.718H238.14C236.964 103.718 235.821 103.333 234.886 102.62C233.95 101.908 233.274 100.909 232.961 99.7756L228.322 82.8014C228.258 82.5672 228.248 82.3215 228.295 82.0831C228.341 81.8448 228.442 81.6204 228.589 81.4274C228.736 81.2343 228.926 81.0779 229.143 80.9703C229.361 80.8626 229.601 80.8067 229.843 80.8068H259.648C261.996 80.8092 264.247 81.7431 265.908 83.4035C267.568 85.0639 268.502 87.3152 268.505 89.6634Z" fill="#C8C9D3"/>
<path d="M268.505 96.2842V97.2583C268.506 98.1068 268.339 98.947 268.014 99.7309C267.69 100.515 267.214 101.227 266.614 101.827C266.014 102.427 265.302 102.903 264.518 103.227C263.734 103.552 262.894 103.719 262.045 103.718H255.805V96.2966L268.505 96.2842Z" fill="black"/>
<path d="M234.906 96.2842H268.583" stroke="black" stroke-width="4.14774" stroke-miterlimit="10"/>
<path d="M275.615 70.9419L282.375 71.4521L282.731 68.2855L277.004 67.0084L275.615 70.9419Z" fill="#240040"/>
<path d="M275.623 62.4317C275.96 63.3007 277.222 63.6192 278.444 63.1461C279.665 62.673 280.256 61.2566 279.919 60.3877C279.582 59.5187 278.372 60.5546 277.157 61.0309C275.942 61.5071 275.286 61.5628 275.623 62.4317Z" fill="white"/>
<line x1="1560" y1="1568.5" x2="1573" y2="1568.5" stroke="#0043EA" stroke-opacity="0.54"/>
</svg>
