<svg width="1920" height="966" viewBox="0 0 1920 966" fill="none" xmlns="http://www.w3.org/2000/svg">
<path d="M1931.56 779.785C1832.05 676.043 1843.01 544.042 1722.83 549.889C1551.94 558.202 1530.83 799.281 1397.55 805.765C1311.77 809.938 1186.81 630.52 1020.71 638.601C886.561 645.128 777.285 446.849 634.398 453.801C554.599 457.683 462.972 591.06 310.977 578.252C190.543 568.103 78.0516 299.894 -88.2553 307.985C-196.482 313.25 -239.232 301.756 -305.028 187.326" stroke="#98DEDE" stroke-width="16.5289" stroke-linecap="round"/>
<path d="M1959.3 769.479C1961.49 775.562 1961.56 782.291 1959.5 788.389C1958.99 788.205 1958.42 788.464 1958.23 788.975C1957.04 792.119 1955.25 795.063 1952.87 797.617C1950.52 800.132 1947.8 802.032 1944.91 803.319C1944.41 803.54 1944.18 804.119 1944.39 804.62C1938.59 806.923 1932.13 806.935 1926.28 804.651C1926.49 804.15 1926.26 803.571 1925.76 803.353C1922.85 802.081 1920.11 800.201 1917.72 797.708C1915.89 795.808 1914.1 793.896 1912.35 791.973C1911.97 791.565 1911.34 791.536 1910.93 791.907C1907.82 788.483 1904.81 785.028 1901.89 781.548C1902.32 781.195 1902.37 780.565 1902.02 780.141C1898.63 776.075 1895.37 771.977 1892.23 767.858C1891.89 767.419 1891.27 767.333 1890.83 767.666C1888.03 763.979 1885.33 760.275 1882.71 756.566C1883.16 756.249 1883.27 755.627 1882.96 755.174C1879.91 750.833 1876.99 746.484 1874.18 742.14C1873.88 741.676 1873.26 741.543 1872.79 741.841C1870.28 737.944 1867.86 734.052 1865.52 730.176C1865.99 729.892 1866.14 729.278 1865.85 728.805C1863.11 724.248 1860.48 719.714 1857.94 715.219C1857.67 714.737 1857.06 714.566 1856.58 714.836C1854.3 710.781 1852.11 706.76 1849.98 702.784C1850.47 702.524 1850.65 701.919 1850.39 701.432C1847.87 696.709 1845.45 692.051 1843.11 687.477C1842.86 686.985 1842.26 686.789 1841.76 687.04C1839.64 682.871 1837.58 678.775 1835.58 674.767C1836.07 674.522 1836.27 673.922 1836.03 673.427C1834.84 671.05 1833.67 668.704 1832.52 666.393L1832.52 666.382C1831.23 663.795 1829.97 661.251 1828.72 658.755C1828.47 658.261 1827.87 658.059 1827.38 658.305C1827.38 658.305 1827.38 658.305 1827.38 658.305C1825.05 653.654 1822.79 649.177 1820.57 644.903C1820.57 644.903 1820.57 644.903 1820.57 644.903C1821.06 644.648 1821.25 644.045 1820.99 643.555C1819.64 640.966 1818.31 638.454 1816.98 636.023C1815.77 633.814 1814.57 631.672 1813.38 629.598C1813.11 629.119 1812.5 628.952 1812.02 629.226C1812.02 629.226 1812.02 629.226 1812.02 629.226C1809.8 625.386 1807.61 621.782 1805.42 618.406C1805.42 618.405 1805.43 618.405 1805.43 618.404C1805.89 618.103 1806.02 617.483 1805.71 617.021C1802.85 612.652 1800 608.663 1797.09 605.036C1796.74 604.604 1796.11 604.534 1795.68 604.878C1795.68 604.879 1795.68 604.88 1795.68 604.881C1792.88 601.442 1790.03 598.344 1787.09 595.569C1787.1 595.568 1787.1 595.566 1787.1 595.565C1787.47 595.159 1787.45 594.527 1787.04 594.152C1785.18 592.438 1783.29 590.848 1781.34 589.378C1779.49 587.974 1777.53 586.643 1775.47 585.4C1774.99 585.115 1774.38 585.267 1774.1 585.74C1774.09 585.742 1774.09 585.744 1774.09 585.747C1770.79 583.828 1767.19 582.138 1763.22 580.737C1763.23 580.735 1763.23 580.733 1763.23 580.73C1763.4 580.207 1763.12 579.64 1762.6 579.463C1758.42 578.059 1753.86 576.967 1748.82 576.25C1748.28 576.172 1747.77 576.552 1747.69 577.099C1747.69 577.101 1747.69 577.103 1747.69 577.105C1743.98 576.62 1740.02 576.337 1735.75 576.281C1735.75 576.279 1735.75 576.278 1735.75 576.277C1735.75 575.724 1735.31 575.275 1734.76 575.272C1732.49 575.261 1730.15 575.313 1727.72 575.431C1725.23 575.552 1722.79 575.729 1720.38 575.962C1719.83 576.015 1719.42 576.503 1719.48 577.053C1719.48 577.054 1719.48 577.055 1719.48 577.056C1715.21 577.496 1711.06 578.111 1707 578.891C1707 578.889 1707 578.888 1707 578.887C1706.89 578.346 1706.36 577.994 1705.82 578.102C1700.93 579.079 1696.19 580.297 1691.58 581.741C1691.05 581.906 1690.76 582.467 1690.92 582.994C1690.92 582.995 1690.92 582.996 1690.92 582.997C1686.89 584.294 1682.96 585.765 1679.12 587.401C1679.12 587.4 1679.12 587.399 1679.12 587.398C1678.9 586.891 1678.31 586.659 1677.8 586.879C1673.29 588.842 1668.91 591.032 1664.65 593.431C1664.17 593.701 1664 594.311 1664.27 594.792C1664.27 594.793 1664.27 594.794 1664.27 594.795C1660.63 596.876 1657.08 599.111 1653.6 601.49C1653.6 601.489 1653.6 601.488 1653.6 601.487C1653.28 601.033 1652.66 600.92 1652.21 601.234C1648.21 604.002 1644.32 606.957 1640.51 610.085C1640.08 610.435 1640.02 611.065 1640.37 611.492C1640.37 611.493 1640.37 611.494 1640.37 611.494C1637.17 614.154 1634.02 616.937 1630.93 619.833C1630.93 619.833 1630.93 619.832 1630.93 619.831C1630.55 619.43 1629.91 619.411 1629.51 619.79C1626 623.107 1622.55 626.568 1619.16 630.159C1618.78 630.56 1618.8 631.193 1619.2 631.573C1619.2 631.573 1619.21 631.574 1619.21 631.574C1616.36 634.604 1613.56 637.727 1610.78 640.934C1610.78 640.933 1610.78 640.933 1610.78 640.933C1610.36 640.572 1609.73 640.618 1609.37 641.036C1606.22 644.69 1603.11 648.449 1600.03 652.302C1599.69 652.733 1599.76 653.362 1600.19 653.708C1600.19 653.708 1600.19 653.708 1600.19 653.708C1597.6 656.962 1595.03 660.283 1592.46 663.662C1592.46 663.662 1592.46 663.662 1592.46 663.662C1592.02 663.328 1591.4 663.415 1591.06 663.855C1588.16 667.703 1585.26 671.626 1582.37 675.613C1582.05 676.059 1582.15 676.685 1582.6 677.009C1582.6 677.009 1582.6 677.009 1582.6 677.01C1580.16 680.386 1577.72 683.807 1575.28 687.269C1575.28 687.269 1575.28 687.269 1575.28 687.269C1574.83 686.95 1574.21 687.058 1573.89 687.509C1572.49 689.491 1571.1 691.485 1569.7 693.491C1569.04 694.434 1568.38 695.38 1567.73 696.329C1567.41 696.782 1567.52 697.405 1567.98 697.721C1567.05 699.061 1566.11 700.408 1565.18 701.759C1564.72 701.444 1564.1 701.556 1563.79 702.01C1563.18 702.882 1562.58 703.757 1561.97 704.633L1561.82 704.852L1561.81 704.873C1560.26 707.111 1558.7 709.36 1557.14 711.616C1556.82 712.069 1556.94 712.692 1557.39 713.008C1554.66 716.947 1551.89 720.906 1549.1 724.861C1548.65 724.542 1548.03 724.648 1547.71 725.098C1544.55 729.567 1541.35 734.027 1538.11 738.444C1537.78 738.889 1537.88 739.514 1538.32 739.842C1535.46 743.732 1532.56 747.589 1529.61 751.388C1529.18 751.05 1528.55 751.128 1528.21 751.563C1524.83 755.914 1521.4 760.186 1517.9 764.344C1517.55 764.767 1517.6 765.397 1518.03 765.752C1514.89 769.468 1511.7 773.092 1508.46 776.6C1508.06 776.224 1507.43 776.247 1507.05 776.65C1505.18 778.664 1503.29 780.639 1501.38 782.568C1499.72 784.246 1498.03 785.9 1496.33 787.527C1495.93 787.907 1495.91 788.539 1496.29 788.939C1493.33 791.739 1490.29 794.457 1487.18 797.077C1486.83 796.654 1486.2 796.597 1485.77 796.949C1482.15 799.969 1478.42 802.853 1474.57 805.574C1474.12 805.892 1474.02 806.515 1474.34 806.965C1471 809.299 1467.58 811.51 1464.07 813.584C1463.79 813.109 1463.18 812.948 1462.7 813.225C1458.64 815.584 1454.47 817.757 1450.17 819.718C1449.67 819.946 1449.45 820.537 1449.67 821.039C1445.98 822.69 1442.19 824.186 1438.3 825.511C1438.12 824.99 1437.56 824.708 1437.04 824.881C1432.63 826.346 1428.09 827.59 1423.42 828.588C1422.89 828.703 1422.54 829.233 1422.66 829.771C1418.73 830.58 1414.7 831.217 1410.58 831.668C1410.52 831.121 1410.03 830.723 1409.48 830.779C1407.16 831.015 1404.82 831.192 1402.44 831.308C1399.91 831.431 1397.38 831.437 1394.86 831.337C1394.31 831.315 1393.84 831.742 1393.82 832.291C1389.4 832.066 1384.99 831.52 1380.58 830.697C1380.69 830.156 1380.33 829.633 1379.79 829.527C1374.87 828.561 1369.96 827.248 1365.08 825.652C1364.55 825.481 1363.99 825.766 1363.82 826.289C1359.63 824.89 1355.48 823.29 1351.35 821.526C1351.56 821.02 1351.33 820.433 1350.82 820.213C1346.19 818.204 1341.59 815.99 1337.04 813.628C1336.55 813.374 1335.94 813.564 1335.69 814.052C1331.75 811.991 1327.86 809.823 1324.01 807.586C1324.29 807.11 1324.12 806.498 1323.65 806.219C1321.44 804.929 1319.25 803.616 1317.08 802.288C1314.59 800.768 1312.07 799.192 1309.52 797.569C1309.05 797.272 1308.44 797.408 1308.14 797.872C1303.79 795.091 1299.37 792.174 1294.89 789.154C1295.2 788.697 1295.08 788.076 1294.62 787.766C1289.78 784.497 1284.88 781.111 1279.92 777.649C1279.47 777.333 1278.85 777.443 1278.53 777.895C1274.24 774.895 1269.91 771.84 1265.57 768.759C1265.89 768.309 1265.78 767.685 1265.33 767.365C1262.91 765.648 1260.48 763.923 1258.05 762.195L1257.96 762.134C1255.61 760.462 1253.25 758.786 1250.89 757.112C1250.43 756.792 1249.81 756.897 1249.49 757.348C1245.25 754.344 1241.01 751.347 1236.78 748.381C1237.09 747.928 1236.98 747.305 1236.53 746.988C1234.12 745.304 1231.71 743.631 1229.31 741.972C1227.14 740.472 1224.96 738.978 1222.78 737.492C1222.33 737.18 1221.7 737.298 1221.39 737.754C1217.58 735.162 1213.75 732.594 1209.91 730.057C1209.91 730.057 1209.91 730.057 1209.91 730.057C1210.21 729.596 1210.08 728.976 1209.62 728.672C1205.2 725.764 1200.76 722.899 1196.3 720.089C1195.83 719.794 1195.21 719.934 1194.92 720.401C1194.92 720.402 1194.92 720.402 1194.92 720.402C1191.01 717.948 1187.08 715.537 1183.13 713.177C1183.13 713.177 1183.13 713.177 1183.13 713.177C1183.41 712.702 1183.26 712.089 1182.78 711.806C1178.23 709.094 1173.65 706.451 1169.04 703.89C1168.56 703.621 1167.95 703.795 1167.68 704.277C1167.68 704.277 1167.68 704.278 1167.68 704.278C1163.64 702.039 1159.58 699.864 1155.49 697.762C1155.49 697.762 1155.49 697.761 1155.49 697.761C1155.74 697.27 1155.55 696.667 1155.05 696.415C1150.33 693.997 1145.57 691.677 1140.79 689.467C1140.29 689.235 1139.7 689.453 1139.46 689.954C1139.46 689.955 1139.46 689.955 1139.46 689.955C1135.26 688.028 1131.04 686.187 1126.79 684.441C1126.79 684.441 1126.79 684.44 1126.79 684.44C1127 683.929 1126.75 683.345 1126.24 683.136C1121.32 681.133 1116.37 679.257 1111.39 677.523C1110.87 677.342 1110.3 677.617 1110.12 678.139C1110.12 678.139 1110.12 678.14 1110.12 678.14C1105.75 676.638 1101.36 675.245 1096.94 673.972C1096.94 673.972 1096.94 673.971 1096.94 673.97C1097.09 673.439 1096.78 672.886 1096.25 672.735C1091.15 671.287 1086.02 669.998 1080.85 668.882C1080.31 668.765 1079.77 669.108 1079.66 669.648C1079.66 669.649 1079.66 669.65 1079.66 669.65C1075.15 668.698 1070.62 667.88 1066.06 667.203C1066.06 667.202 1066.06 667.201 1066.06 667.201C1066.14 666.654 1065.76 666.147 1065.21 666.069C1059.99 665.317 1054.72 664.753 1049.42 664.389C1048.87 664.351 1048.39 664.767 1048.35 665.318C1048.35 665.319 1048.35 665.32 1048.35 665.321C1043.78 665.029 1039.18 664.889 1034.55 664.908C1034.55 664.907 1034.55 664.906 1034.55 664.905C1034.54 664.353 1034.09 663.91 1033.54 663.915C1030.9 663.939 1028.25 664.015 1025.59 664.144C1023.19 664.261 1020.79 664.322 1018.4 664.329C1017.85 664.331 1017.41 664.778 1017.41 665.329C1013.22 665.314 1009.06 665.135 1004.94 664.803C1004.99 664.254 1004.58 663.771 1004.03 663.723C999.227 663.306 994.471 662.679 989.762 661.862C989.218 661.768 988.702 662.131 988.607 662.674C984.504 661.938 980.437 661.059 976.407 660.05C976.541 659.515 976.217 658.972 975.682 658.835C971.027 657.644 966.42 656.277 961.861 654.756C961.337 654.581 960.772 654.863 960.598 655.385C956.658 654.051 952.756 652.601 948.89 651.051C949.096 650.54 948.848 649.957 948.336 649.75C943.885 647.943 939.481 646 935.125 643.943C934.626 643.707 934.031 643.919 933.796 644.417C930.041 642.627 926.323 640.752 922.641 638.806C922.899 638.319 922.713 637.714 922.225 637.454C920.1 636.322 917.988 635.167 915.887 633.989C913.843 632.844 911.803 631.674 909.766 630.481C909.29 630.201 908.678 630.36 908.399 630.836C904.93 628.791 901.472 626.68 898.027 624.513C898.321 624.046 898.181 623.429 897.713 623.134C893.754 620.631 889.811 618.055 885.885 615.419C885.426 615.11 884.805 615.232 884.498 615.69C881.149 613.433 877.814 611.133 874.493 608.8C874.81 608.349 874.701 607.725 874.249 607.407C870.404 604.698 866.577 601.945 862.771 599.161C862.324 598.835 861.699 598.932 861.373 599.377C858.106 596.983 854.854 594.567 851.617 592.139C851.948 591.698 851.858 591.071 851.416 590.738C847.64 587.9 843.884 585.046 840.151 582.189C839.712 581.853 839.085 581.936 838.75 582.374C835.523 579.902 832.313 577.429 829.122 574.965C829.459 574.528 829.378 573.9 828.94 573.562C828.245 573.026 827.551 572.489 826.858 571.954C825.684 571.046 824.512 570.14 823.343 569.235L822.458 568.551C822.021 568.213 821.393 568.293 821.056 568.729C820.994 568.682 820.932 568.634 820.871 568.586C821.208 568.15 821.127 567.522 820.689 567.184L819.805 566.5C817.873 565.007 815.949 563.522 814.033 562.045C813.595 561.708 812.967 561.789 812.63 562.226C809.281 559.648 805.954 557.098 802.647 554.581C802.98 554.141 802.894 553.514 802.454 553.179C798.543 550.206 794.659 547.279 790.8 544.407C790.357 544.077 789.73 544.168 789.401 544.611C786.004 542.087 782.625 539.607 779.263 537.176C779.586 536.729 779.484 536.104 779.035 535.78C775.04 532.899 771.067 530.087 767.113 527.355C766.658 527.041 766.035 527.154 765.722 527.608C762.229 525.203 758.75 522.861 755.285 520.59C755.285 520.59 755.285 520.589 755.285 520.589C755.586 520.127 755.455 519.507 754.992 519.205C750.856 516.506 746.736 513.907 742.627 511.42C742.154 511.134 741.54 511.285 741.254 511.757C741.254 511.757 741.254 511.758 741.254 511.758C737.617 509.57 733.991 507.471 730.371 505.469C730.371 505.468 730.372 505.468 730.372 505.467C730.637 504.983 730.459 504.375 729.974 504.109C725.638 501.729 721.31 499.488 716.983 497.401C716.485 497.16 715.888 497.369 715.649 497.866C715.649 497.866 715.648 497.867 715.648 497.868C711.817 496.038 707.989 494.33 704.16 492.754C704.16 492.753 704.16 492.752 704.161 492.752C704.368 492.24 704.12 491.657 703.608 491.449C699.029 489.589 694.445 487.917 689.851 486.45C689.325 486.282 688.762 486.572 688.595 487.098C688.595 487.099 688.595 487.1 688.594 487.101C684.56 485.837 680.519 484.734 676.466 483.801C676.466 483.8 676.466 483.799 676.467 483.798C676.586 483.259 676.245 482.725 675.706 482.604C670.91 481.534 666.097 480.702 661.258 480.128C660.709 480.063 660.213 480.455 660.149 481.003C660.149 481.004 660.148 481.005 660.148 481.007C655.991 480.544 651.815 480.273 647.618 480.207C647.618 480.206 647.618 480.204 647.618 480.203C647.621 479.651 647.176 479.2 646.623 479.195C644.186 479.175 641.74 479.224 639.286 479.343C637.007 479.454 634.663 479.72 632.247 480.14C631.703 480.234 631.339 480.752 631.435 481.296C631.436 481.299 631.436 481.301 631.437 481.304C627.796 481.994 623.974 483.035 619.935 484.428C619.935 484.426 619.934 484.425 619.934 484.423C619.748 483.903 619.175 483.631 618.655 483.816C614.565 485.269 610.264 487.071 605.717 489.219C605.218 489.455 605.006 490.051 605.243 490.55C605.243 490.551 605.244 490.552 605.244 490.553C601.855 492.177 598.325 493.995 594.639 496.005C594.639 496.005 594.639 496.004 594.639 496.004C594.371 495.52 593.763 495.343 593.279 495.609C591.297 496.7 589.271 497.846 587.199 499.046C585.558 499.996 583.925 500.957 582.296 501.93C581.822 502.212 581.668 502.826 581.952 503.301C581.952 503.301 581.953 503.301 581.953 503.301C579.291 504.898 576.637 506.525 573.977 508.183C573.683 507.715 573.066 507.573 572.598 507.865C569.422 509.853 566.234 511.885 563.011 513.962C562.547 514.261 562.414 514.88 562.714 515.344C560.13 517.013 557.521 518.711 554.873 520.44C554.57 519.977 553.95 519.847 553.488 520.149C551.956 521.15 550.41 522.162 548.849 523.183L548.738 523.255C546.075 524.998 543.367 526.77 540.6 528.573C540.138 528.874 540.008 529.494 540.311 529.956C535.611 533.017 530.74 536.165 525.64 539.404C525.344 538.938 524.726 538.799 524.26 539.094C521.583 540.791 518.843 542.513 516.031 544.26C513.864 545.606 511.674 546.953 509.463 548.298C508.992 548.585 508.843 549.2 509.131 549.672C505.339 551.972 501.481 554.265 497.556 556.538C497.28 556.059 496.668 555.895 496.19 556.171C491.786 558.711 487.299 561.224 482.726 563.691C482.24 563.952 482.06 564.558 482.323 565.044C478.403 567.148 474.421 569.217 470.375 571.238C470.128 570.744 469.528 570.543 469.034 570.788C464.472 573.055 459.828 575.261 455.102 577.388C454.6 577.614 454.376 578.205 454.603 578.709C450.537 580.526 446.411 582.285 442.221 583.974C442.015 583.462 441.433 583.214 440.921 583.418C436.188 585.312 431.375 587.115 426.483 588.814C425.962 588.995 425.687 589.564 425.868 590.085C421.656 591.533 417.384 592.902 413.051 594.184C412.894 593.655 412.338 593.352 411.809 593.506C406.922 594.934 401.958 596.249 396.916 597.437C396.38 597.563 396.048 598.101 396.174 598.638C391.838 599.643 387.444 600.555 382.992 601.363C382.893 600.82 382.373 600.459 381.83 600.555C376.825 601.446 371.746 602.205 366.591 602.82C366.043 602.886 365.653 603.382 365.719 603.93C361.303 604.441 356.832 604.846 352.305 605.138C352.269 604.588 351.794 604.169 351.244 604.203C346.18 604.511 341.046 604.676 335.841 604.688C335.289 604.689 334.844 605.137 334.845 605.688C330.409 605.682 325.921 605.564 321.382 605.329C321.41 604.778 320.987 604.307 320.436 604.277C317.889 604.135 315.326 603.956 312.747 603.739C310.283 603.531 307.834 603.24 305.399 602.87C304.854 602.787 304.346 603.16 304.262 603.704C300.006 603.018 295.795 602.094 291.629 600.954C291.775 600.424 291.465 599.874 290.934 599.724C286.203 598.39 281.529 596.775 276.912 594.915C276.401 594.708 275.82 594.954 275.613 595.464C271.65 593.837 267.731 592.03 263.856 590.067C264.106 589.576 263.911 588.975 263.42 588.723C259.05 586.477 254.735 584.032 250.475 581.416C250.005 581.127 249.39 581.273 249.101 581.742C245.458 579.483 241.857 577.101 238.297 574.618C238.613 574.167 238.503 573.544 238.051 573.226C234.014 570.387 230.029 567.416 226.098 564.342C225.663 564.002 225.035 564.078 224.695 564.511C221.313 561.85 217.971 559.115 214.67 556.325C215.026 555.905 214.974 555.274 214.553 554.916C212.659 553.308 210.779 551.681 208.913 550.04C206.756 548.144 204.595 546.208 202.431 544.235C202.022 543.863 201.39 543.891 201.019 544.298C197.275 540.874 193.523 537.344 189.766 533.728C190.149 533.331 190.138 532.698 189.74 532.314C185.612 528.33 181.478 524.243 177.34 520.077C176.95 519.685 176.317 519.682 175.925 520.071C172.328 516.443 168.728 512.757 165.129 509.032C165.527 508.649 165.537 508.016 165.153 507.618C161.139 503.458 157.125 499.247 153.115 495.011C152.734 494.61 152.101 494.592 151.701 494.971C148.168 491.237 144.64 487.485 141.116 483.73C141.519 483.353 141.538 482.72 141.16 482.317C139.17 480.196 137.182 478.074 135.196 475.955C133.486 474.129 131.776 472.305 130.069 470.484C129.691 470.081 129.058 470.06 128.655 470.437C125.682 467.267 122.714 464.109 119.754 460.973C120.155 460.594 120.173 459.961 119.793 459.559C118.071 457.736 116.352 455.92 114.635 454.114C112.756 452.137 110.878 450.167 108.999 448.207C108.617 447.808 107.983 447.794 107.585 448.175C104.265 444.715 100.945 441.284 97.6237 437.89C98.0178 437.504 98.0235 436.871 97.6364 436.477C93.7998 432.563 89.9607 428.699 86.1159 424.895C85.7228 424.507 85.0896 424.509 84.7015 424.901C81.2817 421.526 77.8578 418.199 74.4275 414.93C74.8075 414.53 74.7908 413.897 74.39 413.516C70.4061 409.73 66.4129 406.021 62.4074 402.401C61.9971 402.03 61.3647 402.061 60.9948 402.471C57.4169 399.249 53.829 396.1 50.2297 393.032C50.2299 393.032 50.2301 393.031 50.2304 393.031C50.5872 392.61 50.5349 391.979 50.1132 391.622C45.9109 388.055 41.6912 384.599 37.4506 381.268C37.0157 380.927 36.3871 381.002 36.0465 381.435C36.0463 381.436 36.0459 381.436 36.0457 381.437C32.2461 378.468 28.43 375.601 24.5951 372.846C24.5955 372.845 24.5957 372.845 24.596 372.845C24.9162 372.395 24.811 371.771 24.361 371.45C22.1271 369.855 19.8864 368.299 17.6384 366.782C15.7577 365.513 13.8769 364.275 11.9959 363.07C11.5303 362.772 10.9119 362.907 10.6147 363.371C10.6143 363.372 10.614 363.372 10.6137 363.373C7.34765 361.297 4.0813 359.32 0.813096 357.445C0.81343 357.444 0.813887 357.444 0.814222 357.443C1.08614 356.963 0.916879 356.353 0.436158 356.08C-3.54127 353.821 -7.52307 351.713 -11.5122 349.765C-12.0089 349.522 -12.6074 349.727 -12.8489 350.223C-12.8492 350.224 -12.8497 350.225 -12.85 350.226C-16.3304 348.547 -19.8156 346.992 -23.3073 345.564C-23.3069 345.563 -23.3065 345.562 -23.3062 345.561C-23.1011 345.049 -23.3505 344.466 -23.8633 344.26C-28.0989 342.556 -32.3463 341.039 -36.6084 339.718C-37.1363 339.555 -37.696 339.85 -37.8584 340.377C-37.8588 340.378 -37.8591 340.379 -37.8594 340.38C-41.5396 339.266 -45.2299 338.3 -48.933 337.488C-48.9327 337.486 -48.9325 337.485 -48.9323 337.484C-48.819 336.944 -49.1654 336.413 -49.706 336.299C-54.1418 335.359 -58.597 334.639 -63.075 334.148C-63.6242 334.088 -64.1171 334.485 -64.176 335.034C-64.1762 335.035 -64.1763 335.036 -64.1764 335.037C-67.9667 334.652 -71.773 334.432 -75.5976 334.386C-75.5977 334.384 -75.5975 334.383 -75.5976 334.382C-75.5965 333.83 -76.0433 333.38 -76.5957 333.378C-78.8466 333.368 -81.1037 333.417 -83.3676 333.527C-84.5195 333.584 -85.6668 333.638 -86.8094 333.691C-87.9914 333.745 -89.1685 333.798 -90.3405 333.848C-90.8923 333.872 -91.3192 334.338 -91.2942 334.89C-95.3337 335.061 -99.3156 335.206 -103.242 335.32C-103.259 334.768 -103.72 334.332 -104.272 334.348C-108.996 334.478 -113.639 334.561 -118.204 334.584C-118.757 334.587 -119.201 335.037 -119.197 335.59C-123.242 335.603 -127.227 335.569 -131.155 335.48C-131.143 334.928 -131.58 334.469 -132.132 334.455C-136.85 334.335 -141.484 334.134 -146.039 333.837C-146.59 333.801 -147.065 334.218 -147.1 334.769C-151.129 334.493 -155.099 334.139 -159.012 333.7C-158.95 333.152 -159.344 332.657 -159.892 332.593C-164.555 332.05 -169.136 331.383 -173.641 330.574C-174.184 330.476 -174.702 330.836 -174.8 331.378C-178.753 330.648 -182.649 329.807 -186.492 328.844C-186.358 328.31 -186.681 327.766 -187.215 327.629C-191.717 326.474 -196.145 325.147 -200.506 323.631C-201.027 323.45 -201.595 323.725 -201.777 324.244C-205.528 322.914 -209.232 321.441 -212.891 319.816C-212.666 319.313 -212.891 318.723 -213.394 318.495C-215.493 317.546 -217.578 316.545 -219.65 315.49C-221.972 314.308 -224.263 313.065 -226.525 311.762C-227.003 311.487 -227.612 311.65 -227.888 312.126C-231.818 309.828 -235.662 307.346 -239.432 304.677C-239.113 304.228 -239.218 303.605 -239.666 303.284C-243.843 300.288 -247.932 297.058 -251.951 293.586C-252.369 293.225 -252.999 293.27 -253.36 293.685C-256.75 290.725 -260.09 287.594 -263.391 284.288C-263 283.9 -262.998 283.268 -263.387 282.875C-266.974 279.25 -270.517 275.415 -274.03 271.365C-274.392 270.948 -275.022 270.902 -275.439 271.261C-278.361 267.868 -281.264 264.327 -284.152 260.636C-283.716 260.297 -283.638 259.669 -283.977 259.233C-287.105 255.209 -290.22 251.007 -293.332 246.622C-293.652 246.171 -294.277 246.064 -294.727 246.383C-297.31 242.725 -299.891 238.941 -302.476 235.032C-302.014 234.729 -301.887 234.109 -302.191 233.647C-305 229.38 -307.815 224.961 -310.643 220.389C-310.934 219.919 -311.551 219.772 -312.02 220.062C-314.373 216.245 -316.734 212.323 -319.11 208.294C-318.634 208.015 -318.475 207.402 -318.755 206.926C-320.069 204.689 -321.388 202.42 -322.712 200.118C-324.462 197.074 -325.565 193.81 -326.061 190.505C-326.143 189.965 -326.642 189.59 -327.182 189.66C-327.923 183.204 -326.454 176.664 -323.061 171.279C-322.606 171.578 -321.995 171.46 -321.687 171.009C-319.797 168.243 -317.361 165.83 -314.424 163.962C-311.521 162.116 -308.404 160.977 -305.249 160.494C-304.71 160.412 -304.339 159.913 -304.411 159.375C-298.242 158.688 -291.986 160.378 -286.856 164.124C-287.185 164.557 -287.107 165.175 -286.679 165.514C-284.177 167.492 -281.979 170.003 -280.252 173.007C-278.907 175.346 -277.576 177.633 -276.259 179.869C-275.979 180.345 -275.366 180.505 -274.89 180.225C-272.46 184.336 -270.078 188.27 -267.738 192.037C-268.207 192.329 -268.349 192.945 -268.057 193.414C-265.128 198.11 -262.264 202.545 -259.457 206.734C-259.149 207.193 -258.528 207.317 -258.069 207.01C-255.377 211.006 -252.738 214.773 -250.143 218.327C-250.588 218.654 -250.683 219.279 -250.356 219.725C-247.04 224.236 -243.794 228.402 -240.601 232.252C-240.247 232.677 -239.617 232.737 -239.192 232.385C-239.192 232.385 -239.191 232.384 -239.19 232.384C-236.073 236.108 -233.008 239.528 -229.978 242.671C-229.979 242.672 -229.98 242.673 -229.98 242.673C-230.375 243.058 -230.383 243.691 -229.996 244.087C-226.055 248.128 -222.169 251.71 -218.301 254.894C-217.874 255.245 -217.244 255.185 -216.893 254.759C-216.892 254.758 -216.892 254.756 -216.891 254.755C-213.14 257.792 -209.409 260.452 -205.665 262.789C-205.666 262.791 -205.667 262.792 -205.668 262.793C-205.955 263.264 -205.805 263.88 -205.333 264.168C-203.019 265.583 -200.699 266.878 -198.365 268.066C-196.237 269.15 -194.069 270.16 -191.855 271.1C-191.346 271.316 -190.759 271.079 -190.544 270.571C-190.544 270.57 -190.543 270.568 -190.543 270.567C-186.846 272.094 -183.013 273.427 -179.001 274.583C-179.002 274.584 -179.002 274.585 -179.002 274.587C-179.15 275.118 -178.837 275.67 -178.305 275.818C-173.874 277.054 -169.231 278.078 -164.321 278.91C-163.776 279.003 -163.261 278.636 -163.17 278.092C-163.17 278.091 -163.169 278.09 -163.169 278.089C-159.306 278.719 -155.274 279.233 -151.047 279.641C-151.047 279.642 -151.047 279.643 -151.047 279.643C-151.096 280.193 -150.69 280.68 -150.14 280.731C-145.621 281.146 -140.883 281.443 -135.897 281.634C-135.345 281.655 -134.881 281.224 -134.862 280.672C-130.95 280.81 -126.882 280.882 -122.645 280.896C-122.644 281.448 -122.196 281.897 -121.643 281.897C-117.095 281.902 -112.355 281.841 -107.403 281.72C-106.851 281.707 -106.415 281.248 -106.43 280.696C-102.496 280.595 -98.4288 280.456 -94.2193 280.283C-94.1948 280.835 -93.7277 281.263 -93.1759 281.24C-90.8447 281.142 -88.4704 281.034 -86.0516 280.916C-83.7247 280.803 -81.4098 280.737 -79.1066 280.716C-78.5552 280.711 -78.1132 280.261 -78.118 279.71C-74.0955 279.696 -70.1088 279.82 -66.1578 280.075C-66.1935 280.624 -65.7775 281.101 -65.2273 281.139C-60.5755 281.465 -55.9734 281.973 -51.4204 282.65C-50.8747 282.731 -50.3675 282.356 -50.2861 281.811C-46.3271 282.422 -42.4055 283.161 -38.5212 284.02C-38.6403 284.557 -38.3015 285.091 -37.7635 285.213C-33.2331 286.239 -28.7532 287.429 -24.3233 288.769C-23.7951 288.929 -23.2383 288.631 -23.0786 288.104C-19.2615 289.28 -15.4821 290.566 -11.7402 291.956C-11.9323 292.472 -11.67 293.048 -11.1534 293.242C-6.81515 294.876 -2.52701 296.649 1.71148 298.548C2.21534 298.774 2.80575 298.55 3.03129 298.047C6.66406 299.693 10.2598 301.431 13.8186 303.254C13.5671 303.744 13.7605 304.346 14.251 304.599C18.3688 306.728 22.4375 308.969 26.4574 311.31C26.9345 311.588 27.5457 311.428 27.8234 310.952C31.2627 312.971 34.6658 315.063 38.0326 317.219C37.735 317.683 37.8697 318.301 38.334 318.6C40.2854 319.859 42.2249 321.139 44.1523 322.439C46.1039 323.756 48.0472 325.096 49.9822 326.459C50.4339 326.777 51.057 326.67 51.3746 326.22C54.6813 328.562 57.9635 330.968 61.2211 333.431C60.8883 333.87 60.975 334.497 61.4149 334.831C65.1615 337.678 68.8763 340.601 72.5593 343.59C72.9884 343.938 73.6176 343.873 73.9651 343.446C77.1106 346.009 80.2332 348.618 83.3317 351.269C82.9723 351.688 83.0211 352.319 83.4407 352.679C87.0197 355.752 90.568 358.879 94.0857 362.051C94.4964 362.421 95.1287 362.389 95.4981 361.979C98.5132 364.706 101.505 367.464 104.475 370.248C104.097 370.65 104.118 371.282 104.52 371.661C107.967 374.901 111.384 378.175 114.771 381.472C115.167 381.858 115.8 381.85 116.185 381.455C119.101 384.3 121.993 387.163 124.864 390.036C124.473 390.425 124.473 391.058 124.864 391.45C128.215 394.81 131.535 398.184 134.826 401.562C135.212 401.958 135.845 401.967 136.24 401.583C139.088 404.51 141.913 407.44 144.715 410.366C144.316 410.747 144.303 411.38 144.685 411.78C146.325 413.494 147.958 415.207 149.583 416.917C151.434 418.865 153.273 420.806 155.101 422.74C155.48 423.142 156.113 423.161 156.514 422.783C159.758 426.217 162.965 429.629 166.141 433.013C165.738 433.39 165.719 434.023 166.097 434.426C167.9 436.348 169.693 438.261 171.477 440.163L171.586 440.28C173.454 442.272 175.311 444.254 177.159 446.223C177.537 446.626 178.17 446.647 178.573 446.27C181.867 449.779 185.13 453.249 188.366 456.673C187.965 457.052 187.949 457.684 188.329 458.086C192.111 462.084 195.859 466.019 199.577 469.88C199.961 470.278 200.594 470.291 200.991 469.909C204.339 473.38 207.663 476.79 210.97 480.132C210.578 480.52 210.576 481.153 210.965 481.546C214.853 485.468 218.717 489.295 222.565 493.016C222.962 493.4 223.595 493.39 223.979 492.994C227.459 496.348 230.926 499.613 234.385 502.781C234.385 502.781 234.385 502.781 234.385 502.781C234.013 503.189 234.043 503.822 234.452 504.194C236.48 506.044 238.506 507.86 240.531 509.64C242.389 511.274 244.228 512.86 246.049 514.399C246.471 514.756 247.102 514.704 247.458 514.283C247.459 514.282 247.459 514.282 247.459 514.282C250.77 517.065 254.02 519.69 257.211 522.157C257.21 522.157 257.21 522.158 257.21 522.158C256.874 522.596 256.958 523.224 257.396 523.56C261.431 526.655 265.376 529.497 269.236 532.083C269.695 532.391 270.316 532.269 270.623 531.81C270.623 531.81 270.624 531.809 270.624 531.808C274.263 534.219 277.823 536.398 281.312 538.345C281.312 538.346 281.311 538.347 281.311 538.348C281.046 538.832 281.224 539.44 281.709 539.706C286.227 542.184 290.633 544.277 294.939 545.977C295.453 546.18 296.034 545.928 296.236 545.415C296.236 545.413 296.237 545.411 296.238 545.41C300.326 546.975 304.316 548.177 308.221 549.015C308.221 549.017 308.22 549.019 308.22 549.022C308.113 549.563 308.466 550.09 309.008 550.198C311.468 550.689 313.898 551.036 316.3 551.239C318.895 551.457 321.472 551.629 324.03 551.755C324.582 551.782 325.05 551.357 325.076 550.806C325.076 550.805 325.076 550.804 325.076 550.803C329.601 551.006 334.07 551.065 338.484 550.991C338.484 550.992 338.484 550.992 338.484 550.993C338.497 551.545 338.955 551.983 339.507 551.971C344.731 551.859 349.879 551.559 354.956 551.087C355.506 551.036 355.909 550.548 355.857 549.998C355.857 549.998 355.857 549.997 355.857 549.996C360.342 549.558 364.772 548.984 369.148 548.285C369.148 548.286 369.149 548.287 369.149 548.288C369.24 548.833 369.755 549.202 370.3 549.112C375.428 548.27 380.483 547.256 385.47 546.087C386.007 545.961 386.34 545.423 386.213 544.886C386.212 544.885 386.212 544.884 386.212 544.884C390.577 543.841 394.889 542.68 399.152 541.41C399.152 541.411 399.153 541.412 399.153 541.412C399.314 541.941 399.873 542.24 400.401 542.08C405.351 540.585 410.235 538.945 415.056 537.177C415.575 536.988 415.84 536.413 415.648 535.895C415.648 535.894 415.648 535.894 415.648 535.893C419.844 534.338 423.994 532.686 428.1 530.949C428.1 530.95 428.101 530.95 428.101 530.951C428.319 531.459 428.907 531.695 429.414 531.478C434.156 529.455 438.839 527.319 443.47 525.088C443.967 524.849 444.175 524.251 443.934 523.754C443.934 523.753 443.934 523.753 443.934 523.753C447.955 521.802 451.937 519.78 455.883 517.698C455.883 517.698 455.883 517.699 455.883 517.699C456.143 518.187 456.749 518.373 457.236 518.114C461.784 515.701 466.284 513.21 470.74 510.658C471.219 510.384 471.384 509.773 471.108 509.293C471.108 509.293 471.108 509.293 471.108 509.293C474.983 507.064 478.827 504.79 482.642 502.482C482.93 502.954 483.545 503.104 484.017 502.818C486.215 501.484 488.403 500.139 490.583 498.785C493.043 497.257 495.531 495.691 498.039 494.097C498.505 493.801 498.641 493.183 498.344 492.717C502.669 489.964 507.052 487.131 511.455 484.269C511.757 484.732 512.377 484.864 512.84 484.563C513.833 483.917 514.828 483.27 515.823 482.621C517.285 481.669 518.749 480.714 520.212 479.76C521.982 478.606 523.751 477.452 525.517 476.303C525.979 476.001 526.109 475.382 525.807 474.919C528.806 472.967 531.794 471.028 534.76 469.117C535.059 469.581 535.678 469.716 536.142 469.417C539.745 467.099 543.312 464.825 546.82 462.625C547.288 462.332 547.428 461.715 547.134 461.247C550.215 459.32 553.25 457.453 556.224 455.663C556.509 456.136 557.123 456.29 557.596 456.007C559.436 454.904 561.251 453.833 563.038 452.798C564.934 451.7 566.843 450.614 568.764 449.545C569.246 449.276 569.419 448.668 569.15 448.186C572.416 446.381 575.719 444.624 579.057 442.941C579.305 443.434 579.905 443.633 580.398 443.387C584.329 441.424 588.305 439.565 592.323 437.851C592.83 437.635 593.065 437.049 592.849 436.541C596.306 435.087 599.796 433.74 603.315 432.524C603.494 433.045 604.061 433.324 604.583 433.147C608.747 431.738 612.949 430.518 617.185 429.526C617.721 429.401 618.053 428.865 617.929 428.329C621.584 427.504 625.266 426.849 628.972 426.39C629.038 426.936 629.533 427.328 630.08 427.265C632.247 427.018 634.421 426.838 636.602 426.732C639.075 426.612 641.538 426.545 643.99 426.53C644.541 426.527 644.985 426.078 644.982 425.527C649.299 425.526 653.585 425.684 657.838 425.992C657.798 426.542 658.21 427.021 658.76 427.064C663.697 427.449 668.591 428.035 673.442 428.808C673.987 428.895 674.498 428.525 674.585 427.981C678.825 428.679 683.033 429.518 687.207 430.487C687.082 431.024 687.415 431.561 687.952 431.689C692.753 432.828 697.511 434.14 702.226 435.608C702.753 435.773 703.313 435.479 703.476 434.953C707.564 436.246 711.618 437.655 715.639 439.169C715.445 439.685 715.705 440.261 716.221 440.458C720.828 442.214 725.392 444.108 729.915 446.125C730.419 446.35 731.009 446.125 731.234 445.622C735.141 447.38 739.015 449.229 742.858 451.159C742.611 451.651 742.809 452.252 743.302 452.501C747.706 454.729 752.069 457.062 756.391 459.484C756.873 459.754 757.482 459.583 757.751 459.103C761.487 461.209 765.191 463.381 768.864 465.608C768.578 466.079 768.729 466.694 769.201 466.982C773.426 469.557 777.61 472.205 781.755 474.911C782.218 475.213 782.837 475.084 783.138 474.622C786.732 476.978 790.295 479.376 793.827 481.806C793.514 482.26 793.629 482.883 794.084 483.197C798.17 486.018 802.216 488.881 806.222 491.77C806.67 492.094 807.295 491.993 807.617 491.546C811.109 494.071 814.569 496.615 817.998 499.168C817.669 499.61 817.761 500.237 818.204 500.567C822.202 503.549 826.158 506.541 830.072 509.527C830.512 509.862 831.139 509.778 831.474 509.34C834.91 511.964 838.314 514.583 841.686 517.184C841.349 517.621 841.431 518.249 841.868 518.587C843.78 520.062 845.68 521.532 847.571 522.993L847.754 523.135L848.601 523.789C849.039 524.128 849.666 524.048 850.004 523.611L850.113 523.696C849.776 524.132 849.857 524.761 850.295 525.099L851.141 525.753L851.515 526.042C853.165 527.318 854.808 528.588 856.446 529.853C856.884 530.191 857.512 530.111 857.849 529.675C860.88 532.015 863.891 534.336 866.884 536.634C866.549 537.071 866.632 537.699 867.071 538.036C870.652 540.781 874.208 543.492 877.743 546.162C878.184 546.495 878.812 546.408 879.144 545.968C882.204 548.275 885.249 550.551 888.282 552.79C887.955 553.234 888.05 553.86 888.496 554.188C892.135 556.869 895.756 559.497 899.365 562.063C899.816 562.384 900.44 562.279 900.759 561.829C903.889 564.048 907.009 566.219 910.122 568.339C910.122 568.339 910.122 568.34 910.122 568.34C909.812 568.797 909.933 569.418 910.39 569.729C914.137 572.27 917.876 574.735 921.611 577.115C922.077 577.412 922.695 577.276 922.992 576.81C922.992 576.81 922.992 576.81 922.992 576.809C926.234 578.863 929.472 580.852 932.711 582.77C932.711 582.771 932.711 582.771 932.711 582.771C932.432 583.247 932.592 583.86 933.068 584.14C935.01 585.282 936.953 586.399 938.897 587.488C941.063 588.702 943.22 589.875 945.367 591.007C945.856 591.265 946.461 591.078 946.717 590.59C946.718 590.589 946.718 590.589 946.718 590.588C950.537 592.583 954.327 594.444 958.091 596.165C958.091 596.166 958.09 596.166 958.09 596.167C957.864 596.67 958.089 597.263 958.592 597.49C963.174 599.559 967.721 601.421 972.241 603.062C972.76 603.251 973.333 602.983 973.521 602.464C973.521 602.463 973.522 602.463 973.522 602.462C977.571 603.906 981.596 605.17 985.604 606.247C985.604 606.248 985.603 606.249 985.603 606.25C985.465 606.784 985.786 607.33 986.321 607.47C991.163 608.735 995.983 609.725 1000.79 610.425C1001.34 610.505 1001.84 610.126 1001.92 609.58C1001.92 609.578 1001.92 609.577 1001.92 609.576C1006.14 610.154 1010.34 610.506 1014.53 610.621C1014.53 610.622 1014.53 610.624 1014.53 610.625C1014.52 611.177 1014.96 611.633 1015.52 611.643C1017.98 611.689 1020.45 611.652 1022.91 611.533C1025.56 611.404 1028.19 611.318 1030.82 611.275C1031.37 611.265 1031.81 610.811 1031.8 610.26C1036.46 610.201 1041.08 610.274 1045.68 610.469C1045.65 611.02 1046.08 611.487 1046.63 611.513C1051.93 611.76 1057.19 612.173 1062.4 612.739C1062.95 612.799 1063.44 612.403 1063.5 611.855C1068.12 612.375 1072.71 613.015 1077.25 613.767C1077.16 614.311 1077.53 614.826 1078.07 614.918C1083.3 615.803 1088.47 616.835 1093.6 618.003C1094.14 618.125 1094.67 617.789 1094.79 617.252C1099.32 618.299 1103.8 619.451 1108.24 620.7C1108.09 621.231 1108.4 621.783 1108.93 621.934C1114.03 623.383 1119.07 624.958 1124.06 626.648C1124.58 626.825 1125.15 626.545 1125.32 626.023C1129.71 627.525 1134.06 629.114 1138.37 630.782C1138.17 631.296 1138.43 631.875 1138.94 632.076C1143.88 634.002 1148.76 636.032 1153.58 638.151C1154.09 638.373 1154.68 638.144 1154.9 637.639C1159.14 639.517 1163.35 641.463 1167.51 643.469C1167.27 643.966 1167.47 644.563 1167.97 644.805C1172.75 647.12 1177.46 649.514 1182.12 651.973C1182.61 652.231 1183.21 652.045 1183.47 651.557C1187.58 653.736 1191.64 655.964 1195.65 658.231C1195.38 658.711 1195.55 659.321 1196.03 659.594C1200.66 662.218 1205.23 664.894 1209.73 667.608C1210.2 667.893 1210.82 667.741 1211.1 667.269C1215.09 669.68 1219.03 672.12 1222.92 674.578C1222.62 675.044 1222.76 675.662 1223.23 675.958C1227.74 678.816 1232.18 681.699 1236.55 684.589C1237.01 684.893 1237.63 684.767 1237.94 684.307C1241.84 686.888 1245.68 689.474 1249.47 692.054C1249.16 692.51 1249.28 693.132 1249.73 693.444C1251.93 694.945 1254.11 696.443 1256.28 697.937C1258.93 699.769 1261.55 701.588 1264.13 703.391C1264.58 703.708 1265.2 703.598 1265.52 703.146C1270.3 706.491 1274.96 709.783 1279.52 713.013C1279.2 713.463 1279.3 714.087 1279.75 714.407C1282.39 716.274 1284.98 718.121 1287.55 719.944L1287.56 719.949C1289.8 721.544 1292.02 723.121 1294.22 724.68C1294.67 725 1295.29 724.894 1295.61 724.444C1299.59 727.267 1303.49 730.026 1307.33 732.715C1307.02 733.167 1307.13 733.791 1307.58 734.108C1312.16 737.306 1316.64 740.404 1321.06 743.39C1321.52 743.699 1322.14 743.58 1322.45 743.122C1322.45 743.122 1322.45 743.122 1322.45 743.122C1326.5 745.85 1330.49 748.482 1334.43 751.007C1334.43 751.007 1334.43 751.007 1334.43 751.007C1334.14 751.473 1334.27 752.091 1334.74 752.388C1337.07 753.872 1339.39 755.318 1341.69 756.726C1343.99 758.129 1346.23 759.461 1348.41 760.723C1348.89 761 1349.5 760.837 1349.77 760.359C1349.77 760.359 1349.77 760.358 1349.77 760.358C1353.97 762.766 1357.94 764.909 1361.72 766.798C1361.72 766.798 1361.72 766.799 1361.72 766.8C1361.47 767.295 1361.68 767.895 1362.17 768.139C1367.33 770.685 1372.11 772.754 1376.56 774.365C1377.08 774.553 1377.65 774.285 1377.84 773.766C1377.84 773.765 1377.84 773.763 1377.84 773.762C1382.6 775.433 1386.95 776.563 1390.95 777.179C1390.95 777.183 1390.95 777.186 1390.95 777.189C1390.88 777.736 1391.26 778.24 1391.81 778.313C1394.62 778.692 1397.26 778.818 1399.75 778.696C1401.93 778.591 1404.07 778.405 1406.19 778.14C1406.73 778.071 1407.12 777.571 1407.05 777.023C1407.05 777.021 1407.05 777.019 1407.05 777.017C1410.64 776.522 1414.15 775.796 1417.58 774.843C1417.58 774.845 1417.58 774.847 1417.58 774.849C1417.74 775.379 1418.3 775.684 1418.83 775.53C1422.94 774.332 1426.96 772.812 1430.89 770.982C1431.39 770.749 1431.61 770.154 1431.38 769.654C1431.38 769.652 1431.37 769.65 1431.37 769.649C1434.56 768.124 1437.69 766.392 1440.79 764.458C1440.79 764.459 1440.79 764.461 1440.79 764.462C1441.09 764.928 1441.71 765.065 1442.17 764.768C1445.69 762.521 1449.17 760.016 1452.61 757.265C1453.04 756.92 1453.11 756.291 1452.76 755.86C1452.76 755.859 1452.76 755.858 1452.76 755.857C1455.47 753.654 1458.17 751.295 1460.85 748.783C1460.86 748.784 1460.86 748.784 1460.86 748.785C1461.24 749.187 1461.87 749.205 1462.27 748.826C1463.8 747.38 1465.33 745.885 1466.85 744.342C1468.59 742.587 1470.31 740.787 1472.02 738.944C1472.39 738.539 1472.37 737.907 1471.96 737.531C1471.96 737.531 1471.96 737.53 1471.96 737.53C1474.81 734.419 1477.63 731.186 1480.43 727.839C1480.43 727.839 1480.43 727.839 1480.43 727.84C1480.86 728.193 1481.49 728.135 1481.84 727.711C1484.96 723.959 1488.04 720.068 1491.13 716.05C1491.47 715.612 1491.38 714.985 1490.94 714.648C1490.94 714.647 1490.94 714.647 1490.94 714.647C1493.51 711.294 1496.07 707.852 1498.64 704.328C1498.64 704.328 1498.64 704.328 1498.64 704.328C1499.09 704.654 1499.71 704.556 1500.04 704.11C1502.9 700.17 1505.78 696.13 1508.7 691.999C1509.01 691.548 1508.9 690.924 1508.45 690.605C1508.45 690.605 1508.45 690.605 1508.45 690.605C1510.88 687.149 1513.34 683.629 1515.82 680.05C1516.28 680.365 1516.9 680.254 1517.22 679.801C1518.62 677.781 1520.03 675.743 1521.46 673.687C1522.13 672.717 1522.8 671.743 1523.48 670.765C1523.8 670.312 1523.68 669.689 1523.23 669.374C1524.19 667.981 1525.17 666.581 1526.14 665.173C1526.6 665.489 1527.22 665.378 1527.54 664.925C1527.78 664.57 1528.03 664.214 1528.28 663.857C1528.71 663.242 1529.14 662.626 1529.57 662.008C1531.05 659.883 1532.54 657.744 1534.05 655.595C1534.37 655.144 1534.26 654.52 1533.81 654.202C1536.4 650.514 1539.04 646.796 1541.73 643.065C1542.18 643.388 1542.81 643.289 1543.13 642.842C1546.16 638.651 1549.25 634.447 1552.42 630.251C1552.75 629.811 1552.66 629.184 1552.22 628.85C1554.96 625.239 1557.75 621.634 1560.61 618.051C1561.04 618.396 1561.67 618.327 1562.01 617.897C1565.26 613.846 1568.58 609.826 1571.99 605.858C1572.35 605.44 1572.3 604.809 1571.88 604.448C1574.85 601.01 1577.89 597.61 1581 594.265C1581.41 594.642 1582.04 594.621 1582.42 594.219C1585.97 590.425 1589.61 586.703 1593.36 583.075C1593.76 582.691 1593.77 582.059 1593.38 581.662C1596.66 578.509 1600.02 575.427 1603.46 572.429C1603.83 572.846 1604.46 572.892 1604.87 572.532C1608.8 569.139 1612.84 565.858 1617 562.708C1617.44 562.375 1617.52 561.749 1617.19 561.309C1620.82 558.58 1624.55 555.952 1628.36 553.437C1628.67 553.898 1629.29 554.028 1629.75 553.727C1634.08 550.903 1638.54 548.226 1643.12 545.715C1643.61 545.451 1643.78 544.845 1643.52 544.36C1647.5 542.207 1651.58 540.177 1655.76 538.285C1655.99 538.788 1656.58 539.014 1657.09 538.789C1661.78 536.695 1666.61 534.775 1671.57 533.045C1672.09 532.864 1672.37 532.296 1672.19 531.775C1676.45 530.316 1680.81 528.997 1685.28 527.829C1685.42 528.363 1685.96 528.684 1686.49 528.548C1691.45 527.281 1696.53 526.2 1701.75 525.321C1702.29 525.229 1702.66 524.715 1702.57 524.171C1706.99 523.448 1711.52 522.869 1716.15 522.442C1716.2 522.991 1716.68 523.397 1717.23 523.349C1719.8 523.125 1722.4 522.948 1725.03 522.82C1727.58 522.696 1730.09 522.626 1732.56 522.609C1733.11 522.606 1733.56 522.157 1733.55 521.606C1738.05 521.602 1742.42 521.774 1746.68 522.121C1746.63 522.67 1747.04 523.153 1747.59 523.202C1752.72 523.655 1757.68 524.365 1762.47 525.325C1763.01 525.434 1763.53 525.085 1763.64 524.546C1768.01 525.458 1772.24 526.579 1776.34 527.905C1776.17 528.428 1776.46 528.992 1776.98 529.166C1781.79 530.767 1786.42 532.655 1790.88 534.824C1791.38 535.065 1791.97 534.86 1792.22 534.367C1796.15 536.321 1799.95 538.495 1803.63 540.883C1803.33 541.343 1803.46 541.961 1803.92 542.265C1806 543.642 1808.05 545.089 1810.05 546.605C1811.86 547.968 1813.61 549.375 1815.33 550.825C1815.75 551.181 1816.38 551.13 1816.73 550.712C1819.68 553.244 1822.5 555.898 1825.2 558.655C1824.81 559.039 1824.8 559.67 1825.19 560.067C1828.32 563.311 1831.31 566.697 1834.15 570.196C1834.5 570.624 1835.13 570.69 1835.56 570.344C1837.99 573.361 1840.31 576.458 1842.55 579.615C1842.1 579.932 1842 580.554 1842.31 581.006C1844.91 584.705 1847.4 588.487 1849.79 592.321C1850.08 592.79 1850.69 592.935 1851.16 592.645C1853.2 595.946 1855.17 599.283 1857.08 602.636C1856.6 602.908 1856.44 603.517 1856.71 603.998C1857.83 605.972 1858.93 607.952 1860.01 609.933C1861.65 612.944 1863.27 615.968 1864.87 619.003C1865.12 619.492 1865.73 619.682 1866.22 619.426C1869.09 624.917 1871.9 630.443 1874.69 635.992C1874.2 636.239 1874 636.839 1874.24 637.333C1875.78 640.394 1877.31 643.462 1878.85 646.536L1878.85 646.548C1879.86 648.57 1880.87 650.596 1881.89 652.623C1882.13 653.117 1882.73 653.319 1883.23 653.073C1883.23 653.073 1883.23 653.073 1883.23 653.073C1884.95 656.515 1886.69 659.962 1888.44 663.412C1888.44 663.412 1888.44 663.412 1888.44 663.412C1887.95 663.662 1887.75 664.264 1888.01 664.757C1890.06 668.775 1892.14 672.799 1894.27 676.824C1894.53 677.312 1895.13 677.499 1895.62 677.242C1895.62 677.242 1895.62 677.242 1895.62 677.242C1897.42 680.635 1899.26 684.027 1901.15 687.418C1901.15 687.418 1901.15 687.418 1901.15 687.418C1900.66 687.686 1900.49 688.295 1900.76 688.778C1902.96 692.712 1905.22 696.644 1907.56 700.569C1907.84 701.044 1908.46 701.2 1908.93 700.918C1908.93 700.918 1908.93 700.918 1908.93 700.918C1910.91 704.205 1912.93 707.487 1915.03 710.762C1915.03 710.763 1915.03 710.763 1915.03 710.763C1914.56 711.061 1914.43 711.68 1914.73 712.144C1917.16 715.926 1919.69 719.697 1922.31 723.457C1922.63 723.91 1923.25 724.021 1923.71 723.705C1923.71 723.705 1923.71 723.705 1923.71 723.705C1925.91 726.831 1928.18 729.949 1930.54 733.056C1930.54 733.056 1930.54 733.056 1930.54 733.057C1930.1 733.391 1930.02 734.018 1930.35 734.458C1933.07 738.022 1935.9 741.572 1938.86 745.105C1939.21 745.529 1939.84 745.586 1940.27 745.233C1940.27 745.232 1940.27 745.232 1940.27 745.231C1942.72 748.149 1945.26 751.054 1947.89 753.946C1947.89 753.946 1947.89 753.947 1947.89 753.947C1947.49 754.32 1947.46 754.952 1947.83 755.36C1949.36 757.023 1950.91 758.682 1952.5 760.336C1954.93 762.867 1956.77 765.789 1958.01 768.913C1958.22 769.42 1958.79 769.671 1959.3 769.479Z" stroke="#808080" stroke-width="2" stroke-linecap="round" stroke-dasharray="15 15"/>
<path d="M1931.56 779.785C1832.05 676.043 1843.01 544.042 1722.83 549.889C1551.94 558.202 1530.83 799.281 1397.55 805.765C1311.77 809.938 1186.81 630.52 1020.71 638.601C886.561 645.128 777.285 446.849 634.398 453.801C554.599 457.683 462.972 591.06 310.977 578.252C190.543 568.103 78.0516 299.894 -88.2553 307.985C-196.482 313.25 -239.232 301.756 -305.028 187.326" stroke="white" stroke-width="2" stroke-linecap="round" stroke-dasharray="10 10"/>
</svg>
