<svg width="224" height="49" viewBox="0 0 224 49" fill="none" xmlns="http://www.w3.org/2000/svg">
<path d="M48.8382 17.0977C49.489 17.0977 49.7059 17.321 49.7059 17.9225V31.5319H57.063C57.6957 31.5319 57.9307 31.7553 57.9307 32.3567V33.5596C57.9307 34.161 57.6957 34.3844 57.063 34.3844H47.374C46.7414 34.3844 46.4883 34.161 46.4883 33.5596V17.9225C46.4883 17.321 46.7414 17.0977 47.374 17.0977H48.8382Z" fill="#808080"/>
<path fill-rule="evenodd" clip-rule="evenodd" d="M71.5783 16.7388C66.9868 16.7388 64.3477 19.1273 64.3477 23.0967V28.3893C64.3477 32.3587 67.0049 34.7472 71.5783 34.7472C76.1516 34.7472 78.8088 32.3587 78.8088 28.3893V23.0967C78.8088 19.1273 76.1697 16.7388 71.5783 16.7388ZM71.6713 19.6567C74.3105 19.6567 75.7747 20.8595 75.7747 23.0934V28.4203C75.7747 30.6198 74.3105 31.8571 71.6713 31.8571C69.0321 31.8571 67.586 30.6714 67.586 28.4203V23.0934C67.586 20.8767 69.0321 19.6567 71.6713 19.6567Z" fill="#808080"/>
<path d="M100.339 24.9166C101.044 24.9166 101.206 25.14 101.206 25.7414V29.0063C101.245 30.5639 100.541 32.0546 99.2903 33.0616C97.7568 34.2224 95.8234 34.7983 93.8673 34.6769C89.1855 34.6769 86.6367 32.2884 86.6367 28.319V22.992C86.6367 19.0742 89.2759 16.6685 93.8673 16.6685C97.4826 16.6685 99.8326 18.026 100.827 20.741C100.94 20.9478 100.943 21.1931 100.836 21.4028C100.73 21.6125 100.525 21.7621 100.284 21.8064L98.8745 22.2703C98.2599 22.4765 98.0068 22.3562 97.7899 21.7548C97.1739 20.2449 95.5585 19.3249 93.8673 19.5209C91.2101 19.5209 89.764 20.741 89.764 22.9577V28.4221C89.764 30.6731 91.2281 31.8588 93.8673 31.8588C96.5065 31.8588 98.1334 30.7075 98.1334 29.0235V27.7519H94.2108C93.56 27.7519 93.325 27.5113 93.325 26.9099V25.7414C93.325 25.14 93.56 24.9166 94.2108 24.9166H100.339Z" fill="#808080"/>
<path fill-rule="evenodd" clip-rule="evenodd" d="M115.901 16.7388C111.309 16.7388 108.67 19.1273 108.67 23.0967V28.3893C108.67 32.3587 111.327 34.7472 115.901 34.7472C120.474 34.7472 123.131 32.3587 123.131 28.3893V23.0967C123.131 19.1273 120.492 16.7388 115.901 16.7388ZM115.989 19.6567C118.61 19.6567 120.074 20.8595 120.074 23.0934V28.4203C120.074 30.6198 118.628 31.8571 115.989 31.8571C113.35 31.8571 111.885 30.6714 111.885 28.4203V23.0934C111.885 20.8767 113.368 19.6567 115.989 19.6567Z" fill="#808080"/>
<path d="M131.646 17.596C131.646 17.2179 131.773 17.0977 132.171 17.0977H133.002C133.4 17.0977 133.49 17.2179 133.49 17.596V33.8861C133.49 34.2641 133.49 34.3844 133.002 34.3844H132.171C131.773 34.3844 131.646 34.2641 131.646 33.8861V17.596Z" fill="#808080"/>
<path fill-rule="evenodd" clip-rule="evenodd" d="M155.634 22.4933C155.634 19.5134 153.093 17.0977 149.958 17.0977H143.216C142.836 17.0977 142.691 17.2179 142.691 17.596V33.8861C142.691 34.2641 142.836 34.3844 143.216 34.3844H144.065C144.445 34.3844 144.535 34.2641 144.535 33.8861V27.889H149.958C153.093 27.889 155.634 25.4733 155.634 22.4933ZM153.208 24.3153C152.504 25.4743 151.203 26.1883 149.795 26.1883H144.372V18.6962H149.795C151.203 18.6962 152.504 19.4102 153.208 20.5693C153.912 21.7283 153.912 23.1563 153.208 24.3153Z" fill="#808080"/>
<path d="M169.752 16.7569C172.618 16.4562 175.352 17.9792 176.477 20.5029C176.621 20.7779 176.477 21.0012 176.187 21.1387L175.392 21.4824C175.067 21.6027 174.94 21.5855 174.741 21.259C173.901 19.3873 171.883 18.2476 169.752 18.4409C166.697 18.4409 165.034 19.5922 165.034 21.6542C164.998 22.9573 165.977 24.0866 167.33 24.3005C168.302 24.6019 169.31 24.7866 170.331 24.8504C171.566 24.913 172.784 25.1505 173.946 25.5549C175.781 26.1069 176.958 27.8066 176.766 29.6274C176.766 32.8408 174.308 34.7825 169.788 34.7825C166.734 35.1147 163.85 33.3753 162.865 30.6069C162.801 30.4829 162.798 30.3379 162.857 30.2116C162.916 30.0853 163.032 29.9908 163.172 29.9539L163.968 29.679C164.094 29.6298 164.237 29.6334 164.361 29.6889C164.484 29.7445 164.578 29.8469 164.619 29.9711C165.448 31.9632 167.54 33.2146 169.788 33.0642C173.205 33.0642 174.886 31.93 174.886 29.6274C174.952 28.3775 174.057 27.2656 172.771 26.9983C171.836 26.7331 170.871 26.5717 169.897 26.5172L167.945 26.2766C167.334 26.1533 166.73 25.9984 166.137 25.8127C165.551 25.6444 165.005 25.3702 164.528 25.005C163.557 24.1693 163.028 22.9668 163.082 21.723C163.209 18.7158 165.577 16.7569 169.752 16.7569Z" fill="#808080"/>
<path d="M186.508 28.5076C186.668 31.0301 188.866 32.9983 191.525 32.9983C194.183 32.9983 196.381 31.0301 196.541 28.5076V17.596C196.541 17.2179 196.667 17.0977 197.065 17.0977H197.897C198.294 17.0977 198.421 17.2179 198.421 17.596V28.4904C198.421 32.3911 195.999 34.7452 191.534 34.7452C187.069 34.7452 184.646 32.3911 184.646 28.4904V17.596C184.646 17.2179 184.773 17.0977 185.153 17.0977H186.002C186.382 17.0977 186.508 17.2179 186.508 17.596V28.5076Z" fill="#808080"/>
<path d="M223.366 17.1006C223.764 17.1006 223.89 17.2209 223.89 17.599V33.889C223.89 34.2671 223.764 34.3874 223.366 34.3874H222.607C222.227 34.3874 222.1 34.2671 222.1 33.889V23.9741C222.1 22.5314 222.203 21.0904 222.408 19.661H222.299C221.735 20.9682 221.076 22.237 220.329 23.4586L216.443 29.9712C216.345 30.2025 216.108 30.3528 215.846 30.3492H215.34C215.074 30.3504 214.833 30.202 214.725 29.9712L210.785 23.3898C210.085 22.1857 209.48 20.9336 208.977 19.6438H208.868C209.054 21.0864 209.15 22.538 209.158 23.9913V33.889C209.158 34.2671 209.031 34.3874 208.633 34.3874H207.929C207.531 34.3874 207.404 34.2671 207.404 33.889V17.599C207.404 17.2209 207.531 17.1006 207.929 17.1006H208.579C208.884 17.0736 209.174 17.2319 209.302 17.4959L215.629 28.1841L221.92 17.599C222.119 17.2381 222.227 17.1866 222.625 17.1866L223.366 17.1006Z" fill="#808080"/>
<path fill-rule="evenodd" clip-rule="evenodd" d="M4.69645 1.59808V36.498C4.69645 36.9264 4.51743 37.3373 4.19877 37.6402C3.88011 37.9431 3.44792 38.1133 2.99726 38.1133H2.59958C1.66114 38.1133 0.900391 37.3901 0.900391 36.498V1.59808C0.910299 0.712711 1.66816 -5.01015e-05 2.59958 2.64143e-09H2.99726C3.92869 -5.01015e-05 4.68654 0.712711 4.69645 1.59808ZM25.5366 23.724C25.8954 23.3991 26.3788 23.2286 26.8737 23.2521L26.7833 23.2865C27.3093 23.2354 27.8325 23.4059 28.2149 23.753C28.5974 24.1 28.8009 24.5889 28.7717 25.0908V34.5418C28.7717 35.5382 27.9219 36.346 26.8737 36.346C25.8254 36.346 24.9756 35.5382 24.9756 34.5418V24.9705C24.975 24.4995 25.1778 24.0488 25.5366 23.724ZM30.96 28.6983C30.96 27.7492 31.7693 26.9799 32.7677 26.9799C33.2907 26.9342 33.8088 27.1071 34.1871 27.4535C34.5654 27.7999 34.7665 28.2856 34.738 28.7842V30.8634C34.738 31.8551 33.8923 32.6591 32.849 32.6591C31.8058 32.6591 30.96 31.8551 30.96 30.8634V28.6983ZM16.6802 42.9939V30.5701C16.1149 30.9786 15.4196 31.1908 14.7099 31.1715C14.0588 31.1562 13.4282 30.9524 12.9022 30.5873V42.9939C12.9022 43.9856 13.748 44.7895 14.7912 44.7895C15.8345 44.7895 16.6802 43.9856 16.6802 42.9939ZM8.80005 35.2789C8.1496 35.2604 7.51994 35.0569 6.9924 34.6947V47.1528C6.9924 48.1493 7.84218 48.9571 8.89044 48.9571C9.93869 48.9571 10.7885 48.1493 10.7885 47.1528V34.7806C10.1982 35.1433 9.50172 35.3178 8.80005 35.2789ZM20.873 26.9293C20.1922 26.9249 19.5294 26.7208 18.975 26.345V38.8375C18.975 39.834 19.8248 40.6418 20.873 40.6418C21.9213 40.6418 22.7711 39.834 22.7711 38.8375V26.3622C22.1976 26.7683 21.4975 26.98 20.7827 26.9636L20.873 26.9293ZM8.99641 33.9566H8.59873C7.66029 33.9566 6.89954 33.2335 6.89954 32.3414V5.75832C6.90944 4.87295 7.6673 4.16019 8.59873 4.16024H8.99641C9.92783 4.16019 10.6857 4.87295 10.6956 5.75832V32.3757C10.6956 33.2678 9.93484 33.991 8.99641 33.991V33.9566ZM14.5651 29.8681H14.9809C15.9094 29.8681 16.662 29.1526 16.662 28.27V9.88351C16.6621 8.9981 15.9123 8.27767 14.9809 8.26825H14.5651C14.1161 8.26823 13.6858 8.43895 13.37 8.74238C13.0542 9.0458 12.8792 9.45671 12.884 9.88351V28.27C12.884 29.1526 13.6367 29.8681 14.5651 29.8681ZM20.9637 25.6568H20.5841C19.6527 25.6568 18.8948 24.9441 18.8849 24.0587V14.1609C18.8549 13.715 19.0206 13.2771 19.3426 12.9515C19.6645 12.6259 20.114 12.4416 20.5841 12.4426H20.9818C21.9202 12.4426 22.681 13.1657 22.681 14.0578V24.0243C22.6858 24.4557 22.5089 24.871 22.1897 25.1776C21.8705 25.4843 21.4356 25.6568 20.9818 25.6568H20.9637ZM26.5681 21.9621H26.9658H26.9839C27.9153 21.9527 28.6651 21.2323 28.665 20.3468V17.7865C28.6551 16.9011 27.8972 16.1884 26.9658 16.1884H26.5681C25.6367 16.1884 24.8789 16.9011 24.8689 17.7865V20.3468C24.8689 21.2389 25.6297 21.9621 26.5681 21.9621Z" fill="#808080"/>
</svg>
