<svg width="213" height="41" viewBox="0 0 213 41" fill="none" xmlns="http://www.w3.org/2000/svg">
<path d="M68.6436 33.0014C67.5684 33.0568 66.505 32.7663 65.6248 32.1766C64.8782 31.6505 64.4522 30.8085 64.486 29.9256V13.9963C64.4682 13.8597 64.5177 13.7229 64.6201 13.6255C64.7225 13.5281 64.8665 13.4811 65.0102 13.498H68.0471C68.3905 13.498 68.5532 13.6699 68.5532 13.9963V28.6884C68.5532 29.3413 68.8605 29.6678 69.4932 29.6678C69.7614 29.6783 70.0297 29.6494 70.2885 29.5819C70.6501 29.5819 70.8489 29.685 70.867 29.9943L71.1381 32.1423C71.1645 32.269 71.1319 32.4003 71.0487 32.5024C70.9655 32.6046 70.8399 32.6675 70.7043 32.675C70.0391 32.8838 69.3441 32.9939 68.6436 33.0014Z" fill="#808080"/>
<path fill-rule="evenodd" clip-rule="evenodd" d="M74.8788 31.1624C78.0264 33.6346 82.5771 33.6346 85.7247 31.1624V31.1452C88.4471 28.4463 88.4471 24.1869 85.7247 21.488C82.572 19.0294 78.0315 19.0294 74.8788 21.488C72.0873 24.1669 72.0873 28.4835 74.8788 31.1624ZM82.9056 28.897C81.4385 30.1604 79.2028 30.1604 77.7357 28.897C76.4106 27.4486 76.4106 25.2935 77.7357 23.8451C79.2028 22.5817 81.4385 22.5817 82.9056 23.8451C84.2308 25.2935 84.2308 27.4486 82.9056 28.897Z" fill="#808080"/>
<path fill-rule="evenodd" clip-rule="evenodd" d="M104.994 20.578C104.994 20.2515 104.831 20.0797 104.487 20.0797L101.487 20.0969C101.346 20.0856 101.207 20.1351 101.109 20.2317C101.011 20.3284 100.964 20.4618 100.981 20.5952V20.8701C99.8775 20.0681 98.5186 19.6496 97.1303 19.6845C95.2258 19.6199 93.3747 20.2891 91.9966 21.5403C89.2876 24.2044 89.2876 28.4303 91.9966 31.0944C93.3683 32.357 95.2222 33.0334 97.1303 32.9674C98.4795 33.0038 99.8029 32.6107 100.89 31.8505V32.933C100.927 33.7292 100.62 34.5051 100.041 35.081C99.4064 35.6312 98.5661 35.9161 97.7087 35.8714C97.0053 35.8849 96.3094 35.7313 95.6842 35.4247C95.1711 35.1609 94.7785 34.7265 94.5815 34.2046C94.4819 33.9727 94.2484 33.8179 93.985 33.8094H90.9481C90.4601 33.8094 90.4601 33.964 90.4601 34.3077C90.7144 35.7157 91.5719 36.9603 92.8281 37.7444C94.2834 38.6412 95.9935 39.0911 97.7268 39.0332C99.6458 39.1136 101.525 38.4996 102.987 37.3149C104.321 36.2046 105.058 34.5827 104.994 32.8987V20.578ZM99.9502 28.8958C99.3236 29.566 98.4164 29.9374 97.4737 29.9097C96.5208 29.9358 95.6032 29.5656 94.961 28.8958C94.3127 28.1882 93.9704 27.2734 94.003 26.3355C93.9632 25.3883 94.3134 24.4637 94.9791 23.7579C95.6198 23.0862 96.5384 22.7156 97.4917 22.7441C98.4259 22.7148 99.3258 23.0796 99.9502 23.7407C101.186 25.2582 101.186 27.3783 99.9502 28.8958Z" fill="#808080"/>
<path fill-rule="evenodd" clip-rule="evenodd" d="M109.749 31.1608C112.901 33.6194 117.442 33.6194 120.595 31.1608V31.1436C123.317 28.4447 123.317 24.1853 120.595 21.4864C117.439 19.0345 112.904 19.0345 109.749 21.4864C107.024 24.1911 107.024 28.4561 109.749 31.1608ZM115.188 29.8386C114.222 29.8669 113.285 29.5265 112.585 28.8935C111.283 27.437 111.283 25.2981 112.585 23.8415C113.285 23.2085 114.222 22.8682 115.188 22.8964C116.147 22.8728 117.077 23.2128 117.773 23.8415C119.075 25.2981 119.075 27.437 117.773 28.8935C117.077 29.5222 116.147 29.8622 115.188 29.8386Z" fill="#808080"/>
<path fill-rule="evenodd" clip-rule="evenodd" d="M125.709 17.1559C126.698 17.9782 128.174 17.9782 129.162 17.1559C129.6 16.7631 129.848 16.216 129.848 15.6437C129.848 15.0714 129.6 14.5244 129.162 14.1316C128.165 13.3311 126.706 13.3311 125.709 14.1316C125.272 14.5244 125.023 15.0714 125.023 15.6437C125.023 16.216 125.272 16.7631 125.709 17.1559ZM126.525 32.1735C127.407 32.7583 128.469 33.0484 129.543 32.9983C130.25 32.992 130.951 32.8819 131.622 32.6718C131.758 32.6643 131.883 32.6014 131.967 32.4993C132.05 32.3972 132.082 32.2658 132.056 32.1391L131.785 29.9912C131.767 29.6819 131.568 29.5788 131.206 29.5788C130.941 29.6451 130.667 29.674 130.393 29.6647C129.778 29.6647 129.471 29.3382 129.471 28.6852V20.5745C129.471 20.248 129.308 20.0762 128.965 20.0762H125.928C125.784 20.0593 125.64 20.1063 125.538 20.2037C125.435 20.301 125.386 20.4379 125.404 20.5745V29.9224C125.372 30.801 125.79 31.6399 126.525 32.1735Z" fill="#808080"/>
<path fill-rule="evenodd" clip-rule="evenodd" d="M148.395 21.5216C147.007 20.2634 145.142 19.5938 143.225 19.6658C141.552 19.6311 139.937 20.2526 138.76 21.3841C138.14 20.2313 136.846 19.5516 135.489 19.6658C134.823 19.6541 134.162 19.759 133.536 19.9751C133.275 20.0473 133.101 20.2836 133.121 20.5421V22.5698C133.121 22.8447 133.319 22.9822 133.717 22.9822H134.314C134.608 22.9412 134.905 23.0347 135.115 23.2344C135.325 23.4342 135.423 23.7166 135.38 23.996V38.0866C135.354 38.2203 135.399 38.3578 135.5 38.454C135.601 38.5502 135.746 38.5927 135.886 38.5677H138.923C139.267 38.5677 139.447 38.4131 139.447 38.0866V31.8833C140.545 32.6367 141.872 33.0289 143.225 33.0003C145.145 33.0737 147.014 32.3969 148.395 31.1272C151.047 28.4216 151.047 24.2272 148.395 21.5216ZM142.9 29.9093C141.958 29.9093 141.057 29.5434 140.405 28.8963C139.752 28.1642 139.41 27.2265 139.447 26.2673C139.405 25.3072 139.747 24.3678 140.405 23.6382C141.057 22.9911 141.958 22.6252 142.9 22.6252C143.842 22.6252 144.743 22.9911 145.394 23.6382C146.078 24.3551 146.436 25.3004 146.389 26.2673C146.43 27.2333 146.073 28.1765 145.394 28.8963C144.743 29.5434 143.842 29.9093 142.9 29.9093Z" fill="#808080"/>
<path d="M158.916 33.002C157.294 33.0654 155.685 32.6964 154.271 31.9366C153.122 31.2786 152.35 30.1593 152.174 28.8951C152.174 28.5514 152.3 28.3796 152.698 28.3796H155.355C155.613 28.3891 155.843 28.5351 155.952 28.7576C156.331 29.6855 157.326 30.1495 158.916 30.1495C159.471 30.1736 160.024 30.0674 160.525 29.8402C160.878 29.6888 161.114 29.3651 161.14 28.9982C161.14 28.5514 160.851 28.2421 160.272 28.0359C159.586 27.8188 158.877 27.6747 158.157 27.6063C157.305 27.5146 156.46 27.3711 155.626 27.1767C154.816 27.0024 154.08 26.6014 153.511 26.0254C152.835 25.2341 152.535 24.2113 152.682 23.2013C152.83 22.1914 153.411 21.285 154.289 20.6985C155.592 19.9095 157.12 19.5252 158.663 19.5987C160.157 19.5507 161.635 19.902 162.929 20.6126C163.986 21.1813 164.716 22.1724 164.918 23.3104C164.918 23.6541 164.755 23.8259 164.43 23.8259H161.754C161.524 23.8389 161.309 23.7161 161.212 23.5166C161.033 23.1096 160.697 22.7835 160.272 22.6059C159.793 22.3676 159.258 22.2493 158.718 22.2622C158.188 22.2348 157.659 22.3353 157.181 22.5543C156.836 22.6807 156.607 22.9937 156.603 23.3448C156.626 23.8271 156.978 24.2384 157.47 24.3586C158.164 24.6073 158.886 24.7802 159.621 24.8741C160.467 24.9799 161.306 25.129 162.134 25.3209C162.944 25.4952 163.681 25.8962 164.249 26.4722C164.863 27.1131 165.182 27.9607 165.135 28.8263C165.166 30.0347 164.528 31.17 163.454 31.8163C162.103 32.6405 160.52 33.0541 158.916 33.002Z" fill="#808080"/>
<path d="M184.24 32.142C184.261 32.2653 184.228 32.3912 184.15 32.4915C184.072 32.5917 183.954 32.6578 183.824 32.6747C183.164 32.8795 182.476 32.9896 181.781 33.0012C180.384 33.1387 179.013 32.5717 178.166 31.5062C176.889 32.5498 175.238 33.0852 173.557 33.0012C171.978 33.0703 170.442 32.5024 169.327 31.4375C168.22 30.3224 167.64 28.8272 167.718 27.2962V20.5774C167.718 20.2509 167.881 20.0791 168.224 20.0791H171.261C171.604 20.0791 171.767 20.2509 171.767 20.5774V26.7807C171.734 27.5536 172.012 28.3094 172.544 28.8943C173.082 29.4365 173.84 29.731 174.623 29.7019C175.423 29.7352 176.204 29.463 176.792 28.9459C177.349 28.4004 177.644 27.6602 177.606 26.901V20.5774C177.606 20.2509 177.768 20.0791 178.112 20.0791H181.185C181.528 20.0791 181.691 20.2509 181.691 20.5774V28.6709C181.691 29.3411 181.998 29.6676 182.595 29.6676C182.875 29.6779 183.155 29.6489 183.426 29.5816C183.565 29.5447 183.713 29.5701 183.83 29.6505C183.946 29.7309 184.017 29.8575 184.023 29.9941L184.24 32.142Z" fill="#808080"/>
<path d="M212.965 32.1404C212.997 32.265 212.969 32.3969 212.889 32.5C212.808 32.6031 212.684 32.6666 212.549 32.6731C211.877 32.8808 211.176 32.9909 210.47 32.9996C209.395 33.0523 208.333 32.762 207.451 32.1748C206.677 31.6639 206.223 30.8193 206.24 29.9237V25.8856C206.278 25.115 206.007 24.3595 205.481 23.772C204.967 23.2281 204.224 22.9317 203.456 22.9643C202.764 22.9395 202.097 23.2182 201.649 23.7204C201.172 24.2962 200.928 25.0158 200.962 25.7481V32.0888C200.962 32.4153 200.799 32.5872 200.456 32.5872H197.401C197.257 32.6041 197.113 32.5571 197.011 32.4597C196.908 32.3623 196.859 32.2255 196.877 32.0888V25.8856C196.916 25.1234 196.666 24.3732 196.172 23.772C195.725 23.2606 195.063 22.9646 194.364 22.9643C193.618 22.9357 192.895 23.2107 192.375 23.7204C191.858 24.2778 191.592 25.006 191.634 25.7481V32.0888C191.652 32.2255 191.603 32.3623 191.5 32.4597C191.398 32.5571 191.254 32.6041 191.11 32.5872H188.164C187.82 32.5872 187.658 32.4153 187.658 32.0888V23.9954C187.701 23.7159 187.602 23.4335 187.392 23.2338C187.182 23.034 186.885 22.9405 186.591 22.9815H185.994C185.597 22.9815 185.398 22.844 185.398 22.5691V20.5414C185.379 20.2829 185.552 20.0466 185.814 19.9744C186.439 19.7583 187.101 19.6535 187.766 19.6651C189.069 19.5595 190.32 20.1743 190.984 21.246C192.216 20.1352 193.88 19.5624 195.575 19.6651C197.227 19.5884 198.818 20.265 199.859 21.4865C201.071 20.2349 202.809 19.5663 204.595 19.6651C206.19 19.5941 207.744 20.1612 208.879 21.2288C209.989 22.3417 210.571 23.8385 210.488 25.37V28.6865C210.488 29.3395 210.795 29.6659 211.374 29.6659C211.654 29.6784 211.935 29.6494 212.205 29.58C212.579 29.58 212.778 29.7175 212.802 29.9924L212.965 32.1404Z" fill="#808080"/>
<path fill-rule="evenodd" clip-rule="evenodd" d="M1.00341 17.8447C3.74757 7.35985 13.6521 0 25.018 0C36.3839 0 46.2885 7.35985 49.0326 17.8447H46.8635C43.2042 17.7935 39.62 18.8331 36.6141 20.8175C36.4406 20.9369 36.2595 21.0459 36.0718 21.144H35.8187C35.631 21.0459 35.4499 20.9369 35.2764 20.8175C29.0735 16.8524 20.9626 16.8524 14.7596 20.8175C14.5861 20.9369 14.405 21.0459 14.2173 21.144H13.9643C13.7766 21.0459 13.5954 20.9369 13.422 20.8175C10.4161 18.8331 6.83185 17.7935 3.17259 17.8447H1.00341ZM42.9564 28.6201C44.07 27.7958 45.4501 27.3645 46.861 27.4001H49.7713V21.8842H46.861C44.3759 21.8556 41.9475 22.5909 39.9377 23.9806C37.616 25.6076 34.4503 25.6076 32.1286 23.9806C27.9078 21.1875 22.304 21.1875 18.0832 23.9806C15.7615 25.6076 12.5958 25.6076 10.2741 23.9806C8.23945 22.5731 5.77634 21.8369 3.26046 21.8842H0.259766V27.4001H3.17008C4.58097 27.3645 5.96107 27.7958 7.0746 28.6201C11.2881 31.4153 16.8884 31.4153 21.102 28.6201C22.2169 27.7983 23.596 27.3674 25.0065 27.4001C26.4178 27.3617 27.7989 27.7932 28.911 28.6201C33.1318 31.4132 38.7356 31.4132 42.9564 28.6201ZM46.861 37.2609C45.4501 37.2253 44.07 37.6565 42.9564 38.4809C38.7356 41.274 33.1318 41.274 28.911 38.4809C27.7989 37.654 26.4178 37.2224 25.0065 37.2609C23.596 37.2281 22.2169 37.6591 21.102 38.4809C16.8884 41.276 11.2881 41.276 7.0746 38.4809C5.96107 37.6565 4.58097 37.2253 3.17008 37.2609H0.259766V31.7449H3.26046C5.77634 31.6976 8.23945 32.4339 10.2741 33.8413C12.5958 35.4684 15.7615 35.4684 18.0832 33.8413C22.304 31.0482 27.9078 31.0482 32.1286 33.8413C34.4503 35.4684 37.616 35.4684 39.9377 33.8413C41.9475 32.4516 44.3759 31.7163 46.861 31.7449H49.7713V37.2609H46.861Z" fill="#808080"/>
</svg>
