<svg width="215" height="47" viewBox="0 0 215 47" fill="none" xmlns="http://www.w3.org/2000/svg">
<path fill-rule="evenodd" clip-rule="evenodd" d="M128.123 11.9496C127.099 12.381 126.45 13.357 126.479 14.4215V14.4559C126.472 15.1551 126.773 15.8253 127.308 16.3048C127.844 16.7844 128.565 17.0298 129.299 16.9819C130.419 16.9606 131.415 16.2993 131.821 15.3071C132.228 14.3148 131.964 13.1875 131.154 12.4521C130.344 11.7166 129.147 11.5182 128.123 11.9496ZM67.6046 13.1306H62.1816V33.9744H67.6046V13.1306ZM78.2146 17.8763C73.0809 17.8763 69.7548 20.9522 69.7548 26.1073C69.7548 31.3483 73.0086 34.3554 78.2146 34.3554C83.4207 34.3554 86.6744 31.2624 86.6744 26.1073C86.6744 20.9522 83.3484 17.8763 78.2146 17.8763ZM81.2346 26.1074C81.2346 23.2721 80.0597 21.6052 78.2158 21.6052C76.372 21.6052 75.2152 23.3236 75.2152 26.1074C75.2152 28.8911 76.354 30.5751 78.2158 30.5751C80.0777 30.5751 81.2346 28.9942 81.2346 26.1245V26.1074ZM93.9242 34.9925H88.7181V35.0097C89.0254 37.8622 92.0081 39.907 96.7983 39.907C101.95 39.907 105.439 37.5701 105.439 33.8069V18.1698H100.016V21.0394C99.18 19.1402 97.1909 17.9345 95.0268 18.0151C90.8692 18.0151 88.3747 21.1253 88.3747 26.057C88.3747 30.9887 90.9958 33.8584 94.9545 33.8584C97.0509 33.9667 99.0054 32.8505 99.8894 31.0403H99.9979V33.9271C99.9979 35.4737 98.9133 36.5391 96.8526 36.5391C95.624 36.6961 94.4329 36.0671 93.9242 34.9925ZM100.017 26.0906C100.017 23.5818 98.8059 22.0009 96.8898 22.0009C94.9737 22.0009 93.7987 23.5646 93.7987 26.0906C93.7987 28.6166 94.9556 30.0428 96.8898 30.0428C98.824 30.0428 100.017 28.651 100.017 26.1078V26.0906ZM115.941 17.859C110.807 17.859 107.481 20.9349 107.481 26.09V26.1072C107.481 31.3482 110.717 34.3381 115.941 34.3381C121.165 34.3381 124.419 31.2451 124.419 26.09C124.419 20.9349 121.075 17.859 115.941 17.859ZM118.959 26.0901C118.959 23.2548 117.784 21.588 115.94 21.588C114.097 21.588 113.03 23.3235 113.03 26.1245C113.03 28.9254 114.169 30.5922 116.013 30.5922C117.856 30.5922 118.959 28.9941 118.959 26.1245V26.0901ZM126.48 18.2015H131.902V33.9761H126.48V18.2015ZM145.064 34.1829C149.185 34.1829 151.589 31.2445 151.589 26.0895L151.662 26.1238C151.662 20.9687 149.185 18.0132 145.027 17.9444C142.846 17.8519 140.837 19.0678 140.002 20.9859H139.894V18.1678H134.471V39.0287H139.894V31.2617H140.002C140.878 33.1484 142.899 34.315 145.064 34.1829ZM146.166 26.0912C146.166 23.5824 144.955 21.9843 143.056 21.9843C141.158 21.9843 139.947 23.5996 139.929 26.0912C139.911 28.5828 141.158 30.1809 143.056 30.1809C144.955 30.1809 146.166 28.6172 146.166 26.1256V26.0912ZM168.255 23.1175C168.128 19.8698 165.399 17.8421 160.898 17.8421V17.8765C156.415 17.8765 153.504 19.887 153.468 22.98C153.468 25.3857 155.168 27.0182 158.403 27.654L161.53 28.2898C162.832 28.5475 163.338 28.7194 163.338 29.5442C163.338 30.369 162.615 30.8673 161.024 30.8673C159.434 30.8673 158.457 30.18 158.295 29.0115H153.071C153.306 32.2248 156.324 34.3212 160.934 34.3212C165.543 34.3212 168.671 32.2248 168.671 28.9599C168.671 26.5714 167.261 25.2998 163.953 24.6297L160.482 23.9595C159.271 23.7189 158.674 23.4612 158.674 22.6535C158.674 21.8459 159.343 21.296 160.844 21.296C162.344 21.296 163.32 22.0006 163.32 23.1175H168.255ZM186.765 33.9419H181.541V31.0035H181.432C180.841 33.0362 178.839 34.4024 176.624 34.2856C174.957 34.3757 173.331 33.7744 172.166 32.6373C171.001 31.5003 170.411 29.939 170.55 28.3572V18.1673H175.973V27.1716C175.973 29.0446 176.985 30.0412 178.666 30.0412C179.464 30.0428 180.223 29.717 180.75 29.1474C181.276 28.5779 181.518 27.8201 181.414 27.0685V18.1673H186.837L186.765 33.9419ZM194.627 18.1675H189.385L189.295 33.9765H194.718V24.6801C194.635 24.0264 194.851 23.3703 195.31 22.8776C195.77 22.3849 196.429 22.1028 197.122 22.1026C198.604 22.1026 199.417 22.9618 199.417 24.5427V33.9765H204.569V24.6458C204.48 24 204.69 23.3493 205.144 22.8616C205.598 22.3739 206.252 22.0971 206.937 22.1026C208.456 22.1026 209.269 22.893 209.269 24.6114V33.9765H214.692V23.2367C214.801 21.8219 214.272 20.4298 213.238 19.4072C212.203 18.3846 210.761 17.8278 209.269 17.8754C206.944 17.7804 204.846 19.1947 204.172 21.3122H204.063C203.703 19.2 201.697 17.7046 199.454 17.8754C197.266 17.837 195.327 19.207 194.736 21.209H194.627V18.1675Z" fill="#808080"/>
<path fill-rule="evenodd" clip-rule="evenodd" d="M43.4006 8.54314C44.8784 10.2133 46.0959 12.0767 47.0159 14.0763C48.3558 16.9917 49.0452 20.1395 49.0404 23.3211C49.0305 36.163 38.0921 46.5765 24.5829 46.6049C21.4396 46.6032 18.3267 46.0196 15.4181 44.8865C13.3436 44.1029 11.3961 43.0442 9.63366 41.7419C2.13731 36.3111 -1.40922 27.2688 0.517173 18.4984C2.44357 9.72791 9.50007 2.79014 18.6561 0.664585C27.8122 -1.46096 37.4384 1.60398 43.4006 8.54314ZM32.7354 6.4657C30.1762 5.33354 27.3876 4.74705 24.5648 4.74734L24.5829 4.71297C17.8892 4.70823 11.6597 7.96373 8.07719 13.3387C4.49469 18.7137 4.05876 25.4587 6.92216 31.2101C7.73866 30.3947 8.24182 29.3412 8.35021 28.2202C9.00767 23.9026 12.5754 20.5111 17.1173 19.8861C19.6799 19.6652 21.7264 17.7629 22.016 15.3325C22.6735 11.0149 26.2413 7.62338 30.7831 6.9984C31.4552 6.90106 32.1113 6.72203 32.7354 6.4657ZM9.61563 35.3529C9.68794 35.2899 9.76026 35.2288 9.83257 35.1677C9.97717 35.0455 10.1218 34.9233 10.2664 34.7858C11.8746 33.3036 12.9068 31.3471 13.1948 29.2355C13.3115 28.0485 13.869 26.9399 14.7674 26.1081C15.6319 25.2526 16.7956 24.7271 18.0393 24.6303C22.5812 24.0053 26.1489 20.6138 26.8064 16.2962C26.8846 15.0547 27.445 13.8851 28.379 13.0142C29.2649 12.1753 30.4396 11.6689 31.687 11.5879C33.7187 11.3222 35.6135 10.4636 37.11 9.13066C38.814 10.4745 40.2577 12.0912 41.376 13.9077C41.3073 13.9959 41.2285 14.0766 41.141 14.1483C40.2782 15.0112 39.1161 15.5483 37.8692 15.6604C33.3216 16.2747 29.7482 19.6716 29.1021 23.9945C28.8394 26.4334 26.8061 28.3591 24.2395 28.5997C19.685 29.2198 16.0986 32.6081 15.4182 36.9338C15.3209 37.7736 15.0175 38.5799 14.5324 39.2879C12.6778 38.2412 11.0167 36.9118 9.61563 35.3529ZM19.1422 41.2601C20.9054 41.7408 22.7309 41.9837 24.5651 41.9818V41.8959C30.6191 41.8736 36.3209 39.1875 40.0063 34.6217C43.6917 30.0559 44.9452 24.1251 43.4008 18.5606C42.0285 19.483 40.44 20.0728 38.7733 20.2789C36.2137 20.5272 34.1899 22.451 33.9288 24.8841C33.2693 29.2071 29.6925 32.6002 25.1436 33.2182C22.584 33.4664 20.5602 35.3902 20.2991 37.8234C20.1374 39.0265 19.7453 40.1913 19.1422 41.2601Z" fill="#808080"/>
</svg>
