<svg width="1920" height="1512" viewBox="0 0 1920 1512" fill="none" xmlns="http://www.w3.org/2000/svg">
<path d="M-234.084 938.159C-130.728 852.034 -131.592 730.755 -16.3875 746.301C147.417 768.406 150.046 989.996 277.806 1007.24C360.028 1018.33 493.421 865.376 652.643 886.863C781.23 904.215 900.915 732.73 1037.88 751.213C1114.37 761.536 1192.75 890.926 1339.93 892.168C1456.55 893.153 1584.45 658.184 1743.87 679.696C1847.61 693.696 1889.59 686.85 1961.29 588.115" stroke="#F6555A" stroke-width="16.5289" stroke-linecap="round"/>
<g clip-path="url(#clip0)" filter="url(#filter0_d)">
<path fill-rule="evenodd" clip-rule="evenodd" d="M1551.77 542.699C1546.95 542.699 1543.04 546.608 1543.04 551.431L1543.04 612.55C1543.04 617.372 1546.95 621.281 1551.77 621.281L1682.46 621.281L1692.55 632.806C1694.29 634.794 1697.38 634.794 1699.12 632.806L1709.2 621.281L1844.27 621.281C1849.09 621.281 1853 617.372 1853 612.55L1853 551.431C1853 546.608 1849.09 542.699 1844.27 542.699L1551.77 542.699Z" fill="white"/>
</g>
<g clip-path="url(#clip1)" filter="url(#filter1_d)">
<circle cx="1698.04" cy="681.616" r="39.722" fill="white"/>
<circle cx="1698.04" cy="681.617" r="11.9166" fill="#F6555A"/>
<mask id="mask0" mask-type="alpha" maskUnits="userSpaceOnUse" x="1686" y="669" width="24" height="25">
<circle cx="1698.04" cy="681.617" r="11.9166" fill="white"/>
</mask>
<g mask="url(#mask0)">
</g>
</g>
<path d="M1591.14 587L1591.14 571.778L1585.83 571.778L1582.52 581.539L1582.44 581.539L1578.97 571.778L1573.75 571.778L1573.75 587L1577.21 587L1577.13 576.228L1577.19 576.228L1581.04 587L1583.62 587L1587.57 576.228L1587.64 576.228L1587.55 587L1591.14 587ZM1605.44 581.603C1605.44 578.099 1602.73 575.949 1599.49 575.949C1596.26 575.949 1593.55 578.099 1593.55 581.603C1593.55 585.108 1596.26 587.344 1599.49 587.344C1602.73 587.344 1605.44 585.108 1605.44 581.603ZM1602.05 581.603C1602.05 582.979 1601.16 584.377 1599.51 584.377C1597.85 584.377 1596.97 582.979 1596.97 581.603C1596.97 580.227 1597.83 578.873 1599.49 578.873C1601.14 578.873 1602.05 580.227 1602.05 581.603ZM1618.25 587L1618.25 580.378C1618.25 578.228 1617.22 575.992 1614.34 575.992C1612.86 575.992 1611.63 576.83 1611.14 577.776L1611.09 577.776L1611.09 576.293L1607.68 576.293L1607.68 587L1611.22 587L1611.22 581.195C1611.22 579.969 1611.87 578.894 1613.12 578.894C1614.38 578.894 1614.71 579.969 1614.71 581.152L1614.71 587L1618.25 587ZM1627.27 578.937L1627.27 576.293L1624.75 576.293L1624.75 573.476L1621.29 573.476L1621.29 576.293L1619.59 576.293L1619.59 578.937L1621.31 578.937L1621.31 583.452C1621.31 585.731 1622.26 587.258 1625.12 587.258C1625.87 587.258 1626.69 587.107 1627.16 586.935L1627.12 584.355C1626.86 584.463 1626.43 584.527 1626.08 584.527C1625.07 584.527 1624.75 584.011 1624.75 583.022L1624.75 578.937L1627.27 578.937ZM1639.52 587L1639.52 580.378C1639.52 578.228 1638.51 575.992 1635.61 575.992C1634.13 575.992 1633.01 576.787 1632.54 577.647L1632.49 577.647L1632.49 570.746L1628.97 570.746L1628.97 587L1632.49 587L1632.49 581.216C1632.49 579.948 1633.18 578.937 1634.41 578.937C1635.67 578.937 1635.98 579.991 1635.98 581.195L1635.98 587L1639.52 587ZM1645.81 587L1645.81 570.746L1642.24 570.746L1642.24 587L1645.81 587ZM1659.43 576.293L1655.69 576.293L1653.56 583.173L1653.5 583.173L1651.11 576.293L1647.2 576.293L1651.67 586.828L1651.33 587.709C1650.98 588.634 1650.62 589.15 1649.52 589.15C1649.18 589.15 1648.73 589.064 1648.38 588.956L1647.99 591.923C1648.51 592.052 1649.26 592.16 1649.93 592.16C1652.62 592.16 1653.78 590.848 1654.64 588.612L1659.43 576.293ZM1676.99 587L1676.99 583.861L1669.91 583.861L1669.91 580.7L1676.23 580.7L1676.23 577.755L1669.91 577.755L1669.91 574.895L1676.6 574.895L1676.6 571.778L1666.36 571.778L1666.36 587L1676.99 587ZM1685.55 582.7C1685.55 584.033 1684.76 584.893 1683.34 584.893C1682.63 584.893 1681.81 584.613 1681.81 583.796C1681.81 582.528 1683.55 582.334 1685.1 582.334L1685.55 582.334L1685.55 582.7ZM1680.86 579.668C1681.51 579.066 1682.5 578.572 1683.51 578.572C1684.61 578.572 1685.44 579.066 1685.44 580.12L1685.44 580.292C1682.33 580.292 1678.56 580.808 1678.56 583.904C1678.56 586.419 1680.76 587.258 1682.46 587.258C1683.72 587.258 1684.95 586.742 1685.49 585.86L1685.55 585.86L1685.55 587L1688.78 587L1688.78 581.603C1688.78 577.712 1687.44 575.949 1683.85 575.949C1682.11 575.949 1680.33 576.572 1679.08 577.755L1680.86 579.668ZM1698.5 576.078C1698.33 576.013 1698.03 575.992 1697.75 575.992C1696.44 575.992 1695.39 576.766 1694.85 577.841L1694.8 577.841L1694.8 576.293L1691.41 576.293L1691.41 587L1694.93 587L1694.93 581.496C1694.93 580.614 1695.56 579.066 1697.45 579.066C1697.73 579.066 1698.03 579.088 1698.35 579.174L1698.5 576.078ZM1710.51 587L1710.51 580.378C1710.51 578.228 1709.48 575.992 1706.6 575.992C1705.11 575.992 1703.89 576.83 1703.39 577.776L1703.35 577.776L1703.35 576.293L1699.93 576.293L1699.93 587L1703.48 587L1703.48 581.195C1703.48 579.969 1704.12 578.894 1705.37 578.894C1706.64 578.894 1706.96 579.969 1706.96 581.152L1706.96 587L1710.51 587ZM1717.01 572.874C1717.01 571.799 1716.1 570.939 1714.99 570.939C1713.85 570.939 1712.97 571.842 1712.97 572.874C1712.97 573.928 1713.85 574.809 1714.99 574.809C1716.1 574.809 1717.01 573.971 1717.01 572.874ZM1716.75 587L1716.75 576.293L1713.22 576.293L1713.22 587L1716.75 587ZM1730.12 587L1730.12 580.378C1730.12 578.228 1729.09 575.992 1726.21 575.992C1724.72 575.992 1723.5 576.83 1723 577.776L1722.96 577.776L1722.96 576.293L1719.54 576.293L1719.54 587L1723.09 587L1723.09 581.195C1723.09 579.969 1723.74 578.894 1724.98 578.894C1726.25 578.894 1726.57 579.969 1726.57 581.152L1726.57 587L1730.12 587ZM1744.14 585.989L1744.14 576.293L1740.81 576.293L1740.81 577.669L1740.77 577.669C1740.02 576.529 1738.68 575.992 1737.35 575.992C1734.12 575.992 1732.25 578.636 1732.25 581.603C1732.25 584.57 1734.12 587.107 1737.37 587.107C1738.79 587.107 1739.95 586.548 1740.62 585.688L1740.68 585.688L1740.68 586.333C1740.68 588.118 1739.71 589.322 1737.65 589.322C1736.45 589.322 1735.13 588.87 1734.1 587.967L1732.34 590.483C1733.78 591.558 1735.97 592.16 1737.84 592.16C1741.65 592.16 1744.14 590.182 1744.14 585.989ZM1740.79 581.582C1740.79 583.044 1739.8 584.312 1738.19 584.312C1736.6 584.312 1735.67 583.001 1735.67 581.582C1735.67 580.098 1736.6 578.873 1738.19 578.873C1739.78 578.873 1740.79 580.12 1740.79 581.582ZM1755.18 577.454C1754.12 576.465 1752.47 575.949 1750.88 575.949C1748.83 575.949 1746.43 576.981 1746.43 579.539C1746.43 581.56 1748.06 582.313 1749.54 582.657C1751.01 583.001 1751.67 583.216 1751.67 583.882C1751.67 584.57 1750.98 584.807 1750.4 584.807C1749.37 584.807 1748.4 584.291 1747.78 583.603L1745.8 585.688C1746.92 586.763 1748.73 587.344 1750.47 587.344C1752.66 587.344 1755.05 586.398 1755.05 583.689C1755.05 581.603 1753.26 580.786 1751.63 580.421C1750.25 580.12 1749.67 579.948 1749.67 579.346C1749.67 578.722 1750.34 578.486 1751.01 578.486C1751.87 578.486 1752.68 578.916 1753.24 579.453L1755.18 577.454ZM1761.38 578.185C1761.38 577.067 1760.42 576.164 1759.3 576.164C1758.14 576.164 1757.17 577.088 1757.17 578.228C1757.17 579.367 1758.16 580.249 1759.3 580.249C1760.42 580.249 1761.38 579.324 1761.38 578.185ZM1761.38 585.086C1761.38 583.947 1760.42 583.044 1759.3 583.044C1758.14 583.044 1757.17 583.968 1757.17 585.108C1757.17 586.247 1758.16 587.129 1759.3 587.129C1760.42 587.129 1761.38 586.226 1761.38 585.086ZM1775.96 570.101L1774.39 570.101L1774.39 571.584C1772.13 571.692 1769.6 573.283 1769.6 576.099C1769.6 578.98 1771.81 579.926 1774.28 580.593L1774.28 584.355C1773.34 584.334 1772.01 583.71 1771.23 582.872C1770.5 583.667 1769.73 584.463 1768.97 585.237C1770.39 586.505 1772.44 587.15 1774.28 587.215L1774.28 588.784L1775.88 588.784L1775.88 587.215C1778.39 587.129 1780.84 585.645 1780.84 582.506C1780.84 579.432 1778.18 578.486 1775.96 577.819L1775.96 574.379C1776.86 574.401 1777.98 574.831 1778.69 575.54C1779.4 574.766 1780.09 573.992 1780.78 573.197C1779.44 572.122 1777.57 571.606 1775.96 571.563L1775.96 570.101ZM1774.39 577.454C1773.49 577.217 1772.89 576.766 1772.89 575.863C1772.89 574.917 1773.62 574.422 1774.39 574.336L1774.39 577.454ZM1775.88 580.98C1776.78 581.259 1777.44 581.711 1777.44 582.7C1777.44 583.689 1776.84 584.334 1775.88 584.377L1775.88 580.98ZM1795.28 584.033L1795.28 581.109L1793.17 581.109L1793.17 571.778L1788.85 571.778L1782.66 581.001L1782.66 584.033L1789.82 584.033L1789.82 587L1793.19 587L1793.19 584.033L1795.28 584.033ZM1789.84 581.109L1786.16 581.109L1789.77 575.476L1789.84 575.476L1789.84 581.109ZM1808.92 579.346C1808.92 575.046 1807.29 571.369 1802.99 571.369C1798.66 571.369 1797.01 575.046 1797.01 579.346C1797.01 583.667 1798.66 587.408 1802.99 587.408C1807.29 587.408 1808.92 583.667 1808.92 579.346ZM1805.22 579.346C1805.22 581.302 1804.88 584.312 1802.99 584.312C1801.07 584.312 1800.71 581.302 1800.71 579.346C1800.71 577.432 1801.07 574.422 1802.99 574.422C1804.88 574.422 1805.22 577.432 1805.22 579.346ZM1822.82 579.346C1822.82 575.046 1821.19 571.369 1816.89 571.369C1812.56 571.369 1810.91 575.046 1810.91 579.346C1810.91 583.667 1812.56 587.408 1816.89 587.408C1821.19 587.408 1822.82 583.667 1822.82 579.346ZM1819.12 579.346C1819.12 581.302 1818.78 584.312 1816.89 584.312C1814.97 584.312 1814.61 581.302 1814.61 579.346C1814.61 577.432 1814.97 574.422 1816.89 574.422C1818.78 574.422 1819.12 577.432 1819.12 579.346Z" fill="#505D6F"/>
<defs>
<filter id="filter0_d" x="1490.65" y="512.139" width="414.739" height="196.455" filterUnits="userSpaceOnUse" color-interpolation-filters="sRGB">
<feFlood flood-opacity="0" result="BackgroundImageFix"/>
<feColorMatrix in="SourceAlpha" type="matrix" values="0 0 0 0 0 0 0 0 0 0 0 0 0 0 0 0 0 0 127 0"/>
<feOffset dy="21.8284"/>
<feGaussianBlur stdDeviation="26.1941"/>
<feColorMatrix type="matrix" values="0 0 0 0 0.113725 0 0 0 0 0.164706 0 0 0 0 0.266667 0 0 0 0.12 0"/>
<feBlend mode="normal" in2="BackgroundImageFix" result="effect1_dropShadow"/>
<feBlend mode="normal" in="SourceGraphic" in2="effect1_dropShadow" result="shape"/>
</filter>
<filter id="filter1_d" x="1626.54" y="622.033" width="142.999" height="142.999" filterUnits="userSpaceOnUse" color-interpolation-filters="sRGB">
<feFlood flood-opacity="0" result="BackgroundImageFix"/>
<feColorMatrix in="SourceAlpha" type="matrix" values="0 0 0 0 0 0 0 0 0 0 0 0 0 0 0 0 0 0 127 0"/>
<feOffset dy="11.9166"/>
<feGaussianBlur stdDeviation="15.8888"/>
<feColorMatrix type="matrix" values="0 0 0 0 0.439216 0 0 0 0 0.470588 0 0 0 0 0.529412 0 0 0 0.24 0"/>
<feBlend mode="normal" in2="BackgroundImageFix" result="effect1_dropShadow"/>
<feBlend mode="normal" in="SourceGraphic" in2="effect1_dropShadow" result="shape"/>
</filter>
<clipPath id="clip0">
<rect width="309.963" height="91.6792" fill="white" transform="translate(1543.04 542.699)"/>
</clipPath>
<clipPath id="clip1">
<rect width="79.444" height="79.444" fill="white" transform="translate(1658.32 641.894)"/>
</clipPath>
</defs>
</svg>
