<svg width="233" height="48" viewBox="0 0 233 48" fill="none" xmlns="http://www.w3.org/2000/svg">
<path fill-rule="evenodd" clip-rule="evenodd" d="M73.0302 33.4865H79.8168C79.8168 33.4865 79.7374 26.6402 79.8168 24.1195C79.9766 19.0522 79.9766 16.4427 83.3526 16.4427C86.7286 16.4427 86.8285 18.9437 86.9957 24.1195C87.0762 26.6125 86.9957 33.4865 86.9957 33.4865H93.7242C93.7242 33.4865 93.7242 29.114 93.7242 24.1195C93.7242 19.125 94.1643 16.4427 97.3545 16.4427C100.545 16.4427 100.843 19.071 100.843 24.1195C100.843 26.7274 100.843 33.4865 100.843 33.4865H107.625C107.625 33.4865 107.625 25.1611 107.625 21.4046C107.625 19.722 107.998 13.5169 102.154 10.6075C96.3093 7.69812 90.3275 12.31 90.3275 12.31C90.3275 12.31 84.4828 7.69466 78.6006 10.6075C72.7183 13.5204 73.0302 19.5592 73.0302 21.4046C73.0302 24.616 73.0302 33.4865 73.0302 33.4865Z" fill="black"/>
<path fill-rule="evenodd" clip-rule="evenodd" d="M111.661 33.4865H118.448C118.448 33.4865 118.368 26.6402 118.448 24.1195C118.607 19.0522 118.607 16.4427 121.983 16.4427C125.359 16.4427 125.459 18.9437 125.627 24.1195C125.707 26.6125 125.627 33.4865 125.627 33.4865H132.355C132.355 33.4865 132.355 29.114 132.355 24.1195C132.355 19.125 132.795 16.4427 135.985 16.4427C139.175 16.4427 139.474 19.071 139.474 24.1195C139.474 26.7274 139.474 33.4865 139.474 33.4865H146.256C146.256 33.4865 146.256 23.0872 146.256 21.4046C146.256 21.0797 146.629 13.5169 140.785 10.6075C134.94 7.69812 128.958 12.31 128.958 12.31C128.958 12.31 123.114 7.69466 117.231 10.6075C111.349 13.5204 111.661 19.5592 111.661 21.4046C111.661 24.5945 111.661 33.4865 111.661 33.4865Z" fill="black"/>
<circle cx="229.47" cy="29.9566" r="3.53029" fill="black"/>
<path d="M177.625 0H184.686V33.4874C180.786 33.4874 177.625 30.3262 177.625 26.4268V0Z" fill="black"/>
<path d="M183.172 11.4985V4.43795L194.671 4.43795C194.671 8.3374 191.509 11.4985 187.61 11.4985H183.172Z" fill="black"/>
<path d="M194.672 25.418H187.611V33.4872C191.511 33.4872 194.672 30.3261 194.672 26.4266V25.418Z" fill="#0043EA"/>
<path d="M0 21.3828H6.85886V40.5473C6.85886 44.3353 3.78804 47.4061 0 47.4061V21.3828Z" fill="black"/>
<circle cx="57.4925" cy="21.3832" r="8.57357" stroke="black" stroke-width="7.06059"/>
<circle cx="12.1039" cy="21.3832" r="8.57357" stroke="black" stroke-width="7.06059"/>
<circle cx="162.057" cy="21.3832" r="8.57357" stroke="black" stroke-width="7.06059"/>
<circle cx="210.473" cy="21.3832" r="8.57357" stroke="black" stroke-width="7.06059"/>
<path d="M27.9062 33.6733H35.0109V9.63372C31.0871 9.63372 27.9062 12.8146 27.9062 16.7383V33.6733Z" fill="black"/>
<path fill-rule="evenodd" clip-rule="evenodd" d="M32.9681 13.7312L34.5425 27.2721C34.5425 27.2721 34.5392 23.5039 34.538 22.1846C34.5361 20.1006 34.9615 18.7546 35.9205 18.1654C38.3053 16.7 41.3447 17.2326 41.3447 17.2326L43.6104 10.7926C43.6104 10.7926 41.9856 9.92438 39.0262 9.92173C36.0668 9.91908 35.045 10.8105 33.4191 11.7349C31.7932 12.6593 32.9681 13.7312 32.9681 13.7312Z" fill="black"/>
</svg>
