<svg width="62" height="62" viewBox="0 0 62 62" fill="none" xmlns="http://www.w3.org/2000/svg">
<path d="M58.0528 15.375C56.0797 16.2719 53.9528 16.8612 51.7491 17.1431C54.0041 15.785 55.7466 13.6325 56.5666 11.0444C54.4397 12.3256 52.0822 13.2225 49.5966 13.735C47.5722 11.5313 44.7278 10.25 41.4991 10.25C35.4772 10.25 30.5572 15.17 30.5572 21.2431C30.5572 22.1144 30.6597 22.96 30.8391 23.7544C21.7166 23.2931 13.5934 18.9113 8.18656 12.2744C7.23844 13.8887 6.70031 15.785 6.70031 17.7838C6.70031 21.6019 8.62219 24.9844 11.5947 26.9062C9.77531 26.9062 8.08406 26.3937 6.59781 25.625V25.7019C6.59781 31.0319 10.3903 35.4906 15.4128 36.49C13.8003 36.9313 12.1074 36.9927 10.4672 36.6694C11.1632 38.8539 12.5263 40.7653 14.3648 42.135C16.2033 43.5047 18.4249 44.2638 20.7172 44.3056C16.8315 47.3817 12.0149 49.0445 7.05906 49.0206C6.18781 49.0206 5.31656 48.9694 4.44531 48.8669C9.31406 51.9931 15.1053 53.8125 21.3066 53.8125C41.4991 53.8125 52.5947 37.0538 52.5947 22.5244C52.5947 22.0375 52.5947 21.5762 52.5691 21.0894C54.7216 19.5519 56.5666 17.6044 58.0528 15.375Z" fill="#0043EA"/>
</svg>
