<svg width="1920" height="2265" viewBox="0 0 1920 2265" fill="none" xmlns="http://www.w3.org/2000/svg">
<path opacity="0.1" d="M2186 678.231L1560.18 1036.68L1072.43 758.106L1343.66 568.579L1614.89 379.053L2157.35 0H2102.69H2048.03L1017.81 726.637L-123.267 130.847H-232.448L963.195 758.106L600.757 966.913L-266 463.539V526.218L1088.5 1308.42L775.569 1488.7L-266 889.103V952.073L720.996 1520.14L-73.1855 1981.75L-41.0843 2031.38L383.145 1777.26L562.28 1883.93L954.217 1657.55L1960.13 2265H2069.1L1372.17 1836.14L1686.23 1655.2L2175.93 1936.25C2182.49 1927.03 2186.01 1915.99 2186 1904.67V1878.94L1808.69 1661.87L2173.59 1455.36L2186 1461.89V1399.35L1614.79 1068.14L2186 741.123V678.231ZM655.376 998.378L1017.81 789.571L1505.56 1068.14L1143.12 1276.95L655.376 998.378ZM561.876 1820.2L437.721 1745.82L775.527 1551.66L899.686 1626.04L561.876 1820.2ZM1317.64 1804.62L830.099 1520.22L1143.12 1339.88L1631.61 1623.74L1317.64 1804.62ZM2116.51 1421.6L1754.07 1630.41L1197.74 1308.42L1560.18 1099.61L2116.51 1421.6Z" fill="#0043EA" fill-opacity="0.4"/>
</svg>
