<svg width="732" height="631" viewBox="0 0 732 631" fill="none" xmlns="http://www.w3.org/2000/svg">
<path d="M604.291 418.037C604.291 489.955 546.486 548.256 475.18 548.256H346.069V418.037C346.069 346.119 403.874 287.817 475.18 287.817C546.486 287.817 604.291 346.119 604.291 418.037Z" fill="#0043EA"/>
<path fill-rule="evenodd" clip-rule="evenodd" d="M475.18 27.3784C546.486 27.3784 604.291 85.6797 604.291 157.598V287.817H475.18C403.873 287.817 346.068 229.516 346.068 157.598C346.068 85.6797 403.873 27.3784 475.18 27.3784Z" fill="#69CDCD"/>
<path d="M85.9063 286.838C85.9063 143.542 201.221 27.3782 343.47 27.3782H344.129L344.129 546.298H343.47C201.221 546.298 85.9062 430.134 85.9063 286.838Z" fill="#F48C6B"/>
<g filter="url(#filter0_d)">
<rect x="22.7227" y="27" width="354.867" height="235.632" rx="28.3894" fill="white"/>
</g>
<rect opacity="0.1" x="87.0723" y="147.182" width="262.129" height="3.78525" rx="1.89262" fill="black"/>
<rect x="87.0723" y="147.182" width="99.3628" height="3.78525" rx="1.89262" fill="#0043EA"/>
<path d="M59.3054 148.829C59.3054 147.782 58.5635 146.908 57.5037 146.656V146.616C58.4178 146.378 59.0802 145.61 59.0802 144.576C59.0802 142.774 57.4374 141.927 55.7814 141.927C54.2181 141.927 52.7342 142.735 52.2838 144.311L54.3505 144.788C54.4963 144.152 54.9997 143.742 55.6356 143.742C56.2451 143.742 56.8147 144.099 56.8147 144.775C56.8147 145.676 56.0066 145.888 55.1719 145.888H54.5228V147.517H55.1189C56.0463 147.517 57.0267 147.796 57.0267 148.749C57.0267 149.624 56.2981 149.942 55.6621 149.942C54.8142 149.942 54.2446 149.399 54.0723 148.776L52.0056 149.319C52.509 151.068 54.0591 151.81 55.7681 151.81C57.4904 151.81 59.3054 150.882 59.3054 148.829ZM67.9293 148.458C67.9293 146.484 66.419 145.477 64.5377 145.477C64.2595 145.477 63.8753 145.504 63.5971 145.57L63.6766 144.086H67.4524V142.178H61.7026L61.4774 147.544C62.1398 147.305 63.1069 147.133 63.7693 147.133C64.6835 147.133 65.6903 147.451 65.6903 148.564C65.6903 149.465 65.0412 149.929 64.286 149.929C63.5574 149.929 62.9744 149.452 62.7757 148.802L60.7487 149.425C61.1859 150.909 62.6035 151.81 64.3125 151.81C66.154 151.81 67.9293 150.737 67.9293 148.458ZM80.6337 149.213C80.6337 147.822 79.5076 146.709 78.1165 146.709C76.7254 146.709 75.5993 147.822 75.5993 149.213C75.5993 150.604 76.7254 151.717 78.1165 151.717C79.5076 151.717 80.6337 150.604 80.6337 149.213ZM79.1499 149.213C79.1499 149.783 78.6729 150.233 78.1165 150.233C77.5468 150.233 77.0831 149.783 77.0831 149.213C77.0831 148.643 77.5468 148.18 78.1165 148.18C78.6729 148.18 79.1499 148.643 79.1499 149.213ZM74.2745 144.523C74.2745 143.119 73.1484 142.019 71.7573 142.019C70.3662 142.019 69.2401 143.119 69.2401 144.523C69.2401 145.901 70.3662 147.027 71.7573 147.027C73.1484 147.027 74.2745 145.901 74.2745 144.523ZM72.7907 144.523C72.7907 145.093 72.327 145.543 71.7573 145.543C71.1876 145.543 70.7239 145.093 70.7239 144.523C70.7239 143.954 71.1876 143.49 71.7573 143.49C72.327 143.49 72.7907 143.954 72.7907 144.523ZM78.302 142.35L77.0699 141.754L71.5983 151.426L72.7774 152.009L78.302 142.35Z" fill="#0043EA"/>
<g clip-path="url(#clip0)">
<path d="M320.562 99.38C319.301 99.0393 318.45 98.3921 318.45 97.1656C318.45 95.8881 319.387 95.0194 320.562 94.9853V99.38ZM321.379 100.828C322.674 101.237 323.611 102.037 323.611 103.196C323.611 104.882 322.384 105.478 321.379 105.512V100.828ZM320.562 105.512C319.846 105.495 318.552 105.035 317.939 104.013L316.968 104.694C317.785 105.734 319.029 106.466 320.562 106.5V107.726H321.379V106.5C323.338 106.466 324.837 105.171 324.837 103.281C324.837 101.066 323.1 100.266 321.379 99.6696V94.9853C322.197 95.0024 323.066 95.3771 323.594 96.1266L324.531 95.4112C323.764 94.5084 322.47 94.0655 321.379 94.0314V92.805H320.562V94.0314C318.79 94.1166 317.274 95.2919 317.274 97.2678C317.274 99.3459 319.012 100.147 320.562 100.623V105.512Z" fill="#484848"/>
<path d="M285.154 71.3888H289.699V70.5542H285.154V67.3216H290.016V66.4737H284.2V75.8535H290.175V75.0056H285.154V71.3888ZM295.968 72.0512C293.703 72.0512 291.596 72.2235 291.596 74.1312C291.596 75.5091 292.802 76.0125 293.743 76.0125C294.736 76.0125 295.425 75.668 295.995 74.8466H296.021C296.021 75.1778 296.061 75.5488 296.114 75.8535H296.922C296.856 75.5091 296.816 74.9394 296.816 74.4624V71.7465C296.816 70.2362 295.743 69.4943 294.405 69.4943C293.345 69.4943 292.471 69.8785 291.967 70.3819L292.471 70.9781C292.908 70.5409 293.584 70.2495 294.312 70.2495C295.385 70.2495 295.968 70.7794 295.968 71.8525V72.0512ZM295.968 72.7534V73.2171C295.968 74.3167 295.253 75.2706 293.981 75.2706C293.279 75.2706 292.524 74.9791 292.524 74.0915C292.524 72.9124 294.233 72.7534 295.703 72.7534H295.968ZM299.209 71.0179V75.8535H300.11V72.6739C300.11 71.0179 300.971 70.3289 301.925 70.3289C302.164 70.3289 302.455 70.3687 302.561 70.4084L302.68 69.5605C302.495 69.5075 302.309 69.4943 302.084 69.4943C301.21 69.4943 300.441 69.9977 300.097 70.7131H300.07C300.07 70.4482 300.044 69.9845 300.017 69.6533H299.156C299.196 70.0772 299.209 70.6866 299.209 71.0179ZM304.003 69.6533C304.042 70.0772 304.056 70.6866 304.056 71.0179V75.8535H304.957V72.6739C304.957 71.0179 305.884 70.2495 306.838 70.2495C308.136 70.2495 308.52 71.1238 308.52 72.4222V75.8535H309.421V72.0512C309.421 70.5144 308.64 69.4943 307.063 69.4943C306.189 69.4943 305.288 69.9977 304.943 70.7131H304.917C304.917 70.4482 304.89 69.9845 304.864 69.6533H304.003ZM312.74 69.6533H311.839V75.8535H312.74V69.6533ZM312.926 67.2686C312.926 66.8976 312.608 66.6326 312.29 66.6326C311.972 66.6326 311.654 66.8976 311.654 67.2686C311.654 67.6395 311.972 67.9045 312.29 67.9045C312.608 67.9045 312.926 67.6395 312.926 67.2686ZM315.157 69.6533C315.197 70.0772 315.21 70.6866 315.21 71.0179V75.8535H316.111V72.6739C316.111 71.0179 317.039 70.2495 317.992 70.2495C319.291 70.2495 319.675 71.1238 319.675 72.4222V75.8535H320.576V72.0512C320.576 70.5144 319.794 69.4943 318.218 69.4943C317.343 69.4943 316.442 69.9977 316.098 70.7131H316.071C316.071 70.4482 316.045 69.9845 316.018 69.6533H315.157ZM322.663 77.7878C323.391 78.5562 324.504 79.0331 325.644 79.0331C328.386 79.0331 329.009 77.1519 329.009 75.8005V69.6533H328.108V70.7264H328.081C327.591 69.9315 326.637 69.4943 325.736 69.4943C323.802 69.4943 322.53 70.9384 322.53 72.7004C322.53 74.5154 323.802 75.8535 325.736 75.8535C326.637 75.8535 327.604 75.4031 328.081 74.6347H328.108V75.8005C328.108 77.1386 327.459 78.2382 325.683 78.2382C324.743 78.2382 323.802 77.7348 323.312 77.0989L322.663 77.7878ZM323.484 72.6739C323.484 71.3756 324.332 70.2495 325.829 70.2495C327.22 70.2495 328.214 71.3756 328.214 72.6739C328.214 74.1047 327.22 75.0851 325.829 75.0851C324.332 75.0851 323.484 73.9722 323.484 72.6739ZM335.411 70.6072C335.014 69.905 334.1 69.4943 333.239 69.4943C332.113 69.4943 331.026 70.0375 331.026 71.2961C331.026 72.4752 332.073 72.7931 332.801 72.9654C333.981 73.2436 334.63 73.5086 334.63 74.1577C334.63 74.9659 333.941 75.2441 333.172 75.2441C332.444 75.2441 331.768 74.8201 331.45 74.277L330.735 74.8069C331.304 75.6415 332.245 76.0125 333.186 76.0125C334.325 76.0125 335.517 75.5091 335.517 74.0915C335.517 73.1244 334.828 72.5812 333.371 72.2765C332.351 72.0645 331.887 71.7995 331.887 71.2166C331.887 70.5277 332.55 70.2495 333.199 70.2495C333.888 70.2495 334.458 70.6072 334.723 71.1238L335.411 70.6072Z" fill="#484848"/>
<path d="M296.654 100.94C296.654 99.1456 295.382 97.6467 293.565 97.2152V97.147C295.133 96.7382 296.268 95.4209 296.268 93.6494C296.268 90.5607 293.452 89.1071 290.613 89.1071C287.933 89.1071 285.389 90.4925 284.617 93.1952L288.16 94.0128C288.41 92.9227 289.273 92.2186 290.363 92.2186C291.408 92.2186 292.384 92.8318 292.384 93.9901C292.384 95.5345 290.999 95.8979 289.568 95.8979H288.455V98.6914H289.477C291.067 98.6914 292.748 99.1683 292.748 100.804C292.748 102.303 291.499 102.848 290.409 102.848C288.955 102.848 287.978 101.916 287.683 100.849L284.14 101.78C285.003 104.778 287.66 106.05 290.59 106.05C293.543 106.05 296.654 104.46 296.654 100.94ZM311.723 97.5331C311.723 92.9908 309.997 89.1071 305.455 89.1071C300.89 89.1071 299.141 92.9908 299.141 97.5331C299.141 102.098 300.89 106.05 305.455 106.05C309.997 106.05 311.723 102.098 311.723 97.5331ZM307.817 97.5331C307.817 99.5999 307.453 102.779 305.455 102.779C303.433 102.779 303.047 99.5999 303.047 97.5331C303.047 95.5118 303.433 92.3322 305.455 92.3322C307.453 92.3322 307.817 95.5118 307.817 97.5331Z" fill="black"/>
<g clip-path="url(#clip1)">
<g clip-path="url(#clip2)">
<path d="M200.463 99.6866H200.429C200.429 99.3459 200.395 98.7498 200.361 98.3239H199.254C199.305 98.869 199.322 99.6525 199.322 100.078V106.296H200.48V102.208C200.48 100.078 201.69 99.0904 202.797 99.0904C204.347 99.0904 204.722 100.095 204.722 101.645V106.296H205.88V102.054C205.88 100.572 206.476 99.0904 208.146 99.0904C209.644 99.0904 210.207 100.215 210.207 101.884V106.296H211.365V101.407C211.365 99.4311 210.36 98.1195 208.333 98.1195C207.055 98.1195 206.084 98.7157 205.539 99.8058C205.011 98.4432 203.955 98.1195 203.087 98.1195C201.945 98.1195 200.923 98.7668 200.463 99.6866ZM215.645 93.4182H214.487V106.296H215.645V93.4182Z" fill="#484848"/>
<path d="M175.373 105.618V89.5387H171.876L166.584 93.4223L168.56 96.125L171.558 93.8084V105.618H175.373ZM193.031 100.304C193.031 96.9199 190.442 95.1938 187.217 95.1938C186.74 95.1938 186.081 95.2393 185.604 95.3528L185.741 92.8091H192.213V89.5387H182.357L181.97 98.7368C183.106 98.328 184.764 98.0328 185.9 98.0328C187.467 98.0328 189.193 98.5778 189.193 100.486C189.193 102.03 188.08 102.825 186.785 102.825C185.536 102.825 184.537 102.007 184.196 100.894L180.721 101.962C181.471 104.506 183.901 106.05 186.831 106.05C189.988 106.05 193.031 104.21 193.031 100.304Z" fill="black"/>
</g>
<path d="M173.694 67.4938C172.899 66.7121 171.786 66.2352 170.302 66.2352C167.507 66.2352 165.414 68.3152 165.414 71.1636C165.414 74.012 167.467 76.092 170.302 76.092C171.574 76.092 172.78 75.7873 173.8 75.1778V70.9516H170.66V71.7863H172.846V74.6347C172.303 74.9924 171.376 75.2441 170.316 75.2441C167.904 75.2441 166.421 73.3496 166.421 71.1636C166.421 68.9776 167.904 67.0698 170.316 67.0698C171.482 67.0698 172.382 67.4673 173.032 68.1562L173.694 67.4938ZM182.421 72.7534C182.421 70.8854 181.044 69.4943 179.109 69.4943C177.188 69.4943 175.81 70.8854 175.81 72.7534C175.81 74.6214 177.188 76.0125 179.109 76.0125C181.044 76.0125 182.421 74.6214 182.421 72.7534ZM181.468 72.7534C181.468 74.1445 180.553 75.2441 179.109 75.2441C177.678 75.2441 176.764 74.1445 176.764 72.7534C176.764 71.3623 177.678 70.2495 179.109 70.2495C180.553 70.2495 181.468 71.3623 181.468 72.7534ZM188.341 72.0512C186.075 72.0512 183.969 72.2235 183.969 74.1312C183.969 75.5091 185.174 76.0125 186.115 76.0125C187.108 76.0125 187.797 75.668 188.367 74.8466H188.394C188.394 75.1778 188.433 75.5488 188.486 75.8535H189.294C189.228 75.5091 189.188 74.9394 189.188 74.4624V71.7465C189.188 70.2362 188.115 69.4943 186.777 69.4943C185.717 69.4943 184.843 69.8785 184.34 70.3819L184.843 70.9781C185.28 70.5409 185.956 70.2495 186.685 70.2495C187.758 70.2495 188.341 70.7794 188.341 71.8525V72.0512ZM188.341 72.7534V73.2171C188.341 74.3167 187.625 75.2706 186.353 75.2706C185.651 75.2706 184.896 74.9791 184.896 74.0915C184.896 72.9124 186.605 72.7534 188.076 72.7534H188.341ZM192.509 65.8377H191.608V75.8535H192.509V65.8377Z" fill="#484848"/>
</g>
<g clip-path="url(#clip3)">
<path d="M55.366 67.3216H58.5059V66.4737H51.2723V67.3216H54.4121V75.8535H55.366V67.3216ZM64.8262 72.7534C64.8262 70.8854 63.4484 69.4943 61.5141 69.4943C59.5931 69.4943 58.2153 70.8854 58.2153 72.7534C58.2153 74.6214 59.5931 76.0125 61.5141 76.0125C63.4484 76.0125 64.8262 74.6214 64.8262 72.7534ZM63.8723 72.7534C63.8723 74.1445 62.9582 75.2441 61.5141 75.2441C60.0833 75.2441 59.1691 74.1445 59.1691 72.7534C59.1691 71.3623 60.0833 70.2495 61.5141 70.2495C62.9582 70.2495 63.8723 71.3623 63.8723 72.7534ZM71.9377 74.8069H71.9642V75.8535H72.8651V65.8377H71.9642V70.7264H71.9377C71.4078 69.9182 70.4804 69.4943 69.5927 69.4943C67.6585 69.4943 66.3866 70.9251 66.3866 72.7534C66.3866 74.5817 67.6585 76.0125 69.5927 76.0125C70.4804 76.0125 71.4078 75.5885 71.9377 74.8069ZM67.3405 72.7534C67.3405 71.3756 68.1884 70.2495 69.6855 70.2495C71.0766 70.2495 72.0702 71.3358 72.0702 72.7534C72.0702 74.171 71.0766 75.2441 69.6855 75.2441C68.1884 75.2441 67.3405 74.1312 67.3405 72.7534ZM79.2531 72.0512C76.9876 72.0512 74.8811 72.2235 74.8811 74.1312C74.8811 75.5091 76.0867 76.0125 77.0274 76.0125C78.021 76.0125 78.7099 75.668 79.2796 74.8466H79.3061C79.3061 75.1778 79.3458 75.5488 79.3988 75.8535H80.207C80.1407 75.5091 80.101 74.9394 80.101 74.4624V71.7465C80.101 70.2362 79.0279 69.4943 77.6898 69.4943C76.6299 69.4943 75.7555 69.8785 75.2521 70.3819L75.7555 70.9781C76.1927 70.5409 76.8684 70.2495 77.597 70.2495C78.6702 70.2495 79.2531 70.7794 79.2531 71.8525V72.0512ZM79.2531 72.7534V73.2171C79.2531 74.3167 78.5377 75.2706 77.2658 75.2706C76.5637 75.2706 75.8085 74.9791 75.8085 74.0915C75.8085 72.9124 77.5176 72.7534 78.9881 72.7534H79.2531ZM82.5206 69.6533H81.5137L84.1634 75.8403L83.66 77.1386C83.395 77.8408 83.077 78.2382 82.4676 78.2382C82.2291 78.2382 82.0039 78.1985 81.8052 78.1322L81.7124 78.9536C81.9774 79.0066 82.2556 79.0331 82.5206 79.0331C83.5937 79.0331 84.0972 78.4105 84.4681 77.4566L87.555 69.6533H86.5746L84.6536 74.8864H84.6271L82.5206 69.6533Z" fill="#484848"/>
<path d="M71.7622 99.6866H71.7281C71.7281 99.3459 71.694 98.7498 71.66 98.3239H70.5528C70.6039 98.869 70.6209 99.6525 70.6209 100.078V106.296H71.7792V102.208C71.7792 100.078 72.9886 99.0904 74.0958 99.0904C75.6458 99.0904 76.0206 100.095 76.0206 101.645V106.296H77.1789V102.054C77.1789 100.572 77.775 99.0904 79.4443 99.0904C80.9433 99.0904 81.5054 100.215 81.5054 101.884V106.296H82.6637V101.407C82.6637 99.4311 81.6587 98.1195 79.6317 98.1195C78.3542 98.1195 77.3833 98.7157 76.8382 99.8058C76.3101 98.4432 75.2541 98.1195 74.3853 98.1195C73.2441 98.1195 72.2221 98.7668 71.7622 99.6866ZM86.9437 93.4182H85.7854V106.296H86.9437V93.4182Z" fill="#484848"/>
<path d="M64.5606 100.304C64.5606 96.9199 61.9714 95.1938 58.7464 95.1938C58.2695 95.1938 57.6108 95.2393 57.1339 95.3528L57.2702 92.8091H63.7429V89.5387H53.8862L53.5001 98.7368C54.6356 98.328 56.2936 98.0328 57.4291 98.0328C58.9962 98.0328 60.7223 98.5778 60.7223 100.486C60.7223 102.03 59.6095 102.825 58.3149 102.825C57.0658 102.825 56.0665 102.007 55.7258 100.894L52.2509 101.962C53.0004 104.506 55.4305 106.05 58.3603 106.05C61.5172 106.05 64.5606 104.21 64.5606 100.304Z" fill="black"/>
</g>
<path opacity="0.1" d="M141.487 117.847V65.3267" stroke="black" stroke-width="0.946313"/>
<path opacity="0.1" d="M259.772 117.847V65.3267" stroke="black" stroke-width="0.946313"/>
</g>
<rect x="51.1133" y="179.357" width="298.088" height="49.2082" rx="24.6041" fill="#0043EA"/>
<path d="M188.202 199.945V198.011H182.029V207.39H184.268V203.747H187.898V201.879H184.268V199.945H188.202ZM191.74 198.686C191.74 198.024 191.184 197.494 190.495 197.494C189.793 197.494 189.25 198.05 189.25 198.686C189.25 199.335 189.793 199.879 190.495 199.879C191.184 199.879 191.74 199.362 191.74 198.686ZM191.581 207.39V200.793H189.409V207.39H191.581ZM199.893 207.39V203.31C199.893 201.985 199.257 200.607 197.481 200.607C196.567 200.607 195.812 201.124 195.507 201.707H195.481V200.793H193.374V207.39H195.56V203.813C195.56 203.058 195.958 202.396 196.726 202.396C197.508 202.396 197.707 203.058 197.707 203.787V207.39H199.893ZM203.969 198.686C203.969 198.024 203.412 197.494 202.723 197.494C202.021 197.494 201.478 198.05 201.478 198.686C201.478 199.335 202.021 199.879 202.723 199.879C203.412 199.879 203.969 199.362 203.969 198.686ZM203.81 207.39V200.793H201.637V207.39H203.81ZM210.677 201.508C210.028 200.899 209.008 200.581 208.027 200.581C206.769 200.581 205.285 201.217 205.285 202.793C205.285 204.039 206.292 204.502 207.206 204.714C208.107 204.926 208.518 205.059 208.518 205.469C208.518 205.893 208.094 206.039 207.736 206.039C207.1 206.039 206.504 205.721 206.12 205.297L204.901 206.582C205.59 207.245 206.703 207.602 207.776 207.602C209.127 207.602 210.598 207.019 210.598 205.35C210.598 204.065 209.498 203.562 208.491 203.336C207.643 203.151 207.285 203.045 207.285 202.674C207.285 202.29 207.696 202.144 208.107 202.144C208.637 202.144 209.14 202.409 209.485 202.74L210.677 201.508ZM218.456 207.39V203.31C218.456 201.985 217.833 200.607 216.044 200.607C215.13 200.607 214.441 201.097 214.15 201.627H214.123V197.375H211.951V207.39H214.123V203.827C214.123 203.045 214.547 202.422 215.303 202.422C216.084 202.422 216.27 203.071 216.27 203.813V207.39H218.456Z" fill="white"/>
<rect opacity="0.1" x="176.975" y="40.2488" width="47.3156" height="3.78525" rx="1.89262" fill="black"/>
<g filter="url(#filter1_d)">
<rect x="455.5" y="46.7246" width="222.824" height="150.2" rx="13.2044" fill="white"/>
</g>
<path d="M522.941 75.4138H526.952C529.939 75.4138 533.257 73.5652 533.257 69.5709C533.257 65.428 529.939 63.7279 526.952 63.7279H522.941V75.4138ZM524.575 65.1474H526.622C529.444 65.1474 531.507 66.6824 531.507 69.5709C531.507 72.3603 529.444 73.9778 526.622 73.9778H524.575V65.1474ZM537.073 67.5902H535.521V75.4138H537.073V67.5902ZM537.337 64.7678C537.337 64.1901 536.858 63.7609 536.297 63.7609C535.736 63.7609 535.274 64.2066 535.274 64.7678C535.274 65.3125 535.736 65.7581 536.297 65.7581C536.858 65.7581 537.337 65.329 537.337 64.7678ZM545.165 68.6631C544.603 67.8213 543.432 67.3756 542.326 67.3756C540.84 67.3756 539.371 68.0854 539.371 69.7689C539.371 71.2379 540.609 71.6836 541.649 71.9312C542.986 72.2448 543.696 72.5089 543.696 73.2351C543.696 74.0934 542.92 74.374 542.144 74.374C541.269 74.374 540.477 73.8953 540.064 73.2846L538.959 74.2254C539.701 75.1662 540.923 75.6284 542.111 75.6284C543.696 75.6284 545.231 74.9517 545.231 73.1031C545.231 71.7331 544.092 71.1224 542.606 70.7923C541.418 70.5282 540.824 70.2806 540.824 69.6204C540.824 68.8776 541.566 68.5971 542.276 68.5971C543.068 68.5971 543.745 69.0097 544.092 69.5709L545.165 68.6631ZM551.12 67.5902H549.04V65.3455H547.505V67.5902H546.003V68.8611H547.505V73.1031C547.505 74.7206 548.314 75.5459 549.783 75.5459C550.261 75.5459 550.74 75.4633 551.103 75.3313L551.054 74.0604C550.79 74.1924 550.426 74.2584 550.146 74.2584C549.37 74.2584 549.04 73.8788 549.04 72.938V68.8611H551.12V67.5902ZM557.681 70.5612C555.041 70.5612 552.235 70.8418 552.235 73.2021C552.235 75.0012 553.836 75.6119 555.074 75.6119C556.246 75.6119 557.137 75.1332 557.698 74.2914H557.747C557.747 74.6546 557.797 75.0672 557.88 75.4138H559.283C559.2 75.0342 559.167 74.3905 559.167 73.8623V70.4457C559.167 68.7126 558.144 67.3756 555.899 67.3756C554.628 67.3756 553.456 67.8213 552.697 68.5475L553.522 69.5379C554.05 69.0097 554.876 68.6301 555.75 68.6301C556.906 68.6301 557.681 69.1913 557.681 70.3466V70.5612ZM557.681 71.6836V72.0962C557.681 73.4167 556.873 74.3905 555.42 74.3905C554.644 74.3905 553.819 74.0934 553.819 73.1691C553.819 71.8486 555.767 71.6836 557.302 71.6836H557.681ZM561.782 67.5902C561.832 68.1019 561.848 68.8611 561.848 69.2738V75.4138H563.4V71.2544C563.4 69.7029 564.275 68.6796 565.496 68.6796C566.932 68.6796 567.279 69.802 567.279 71.0729V75.4138H568.83V70.5612C568.83 68.8116 567.922 67.3756 565.909 67.3756C564.786 67.3756 563.746 68.0359 563.367 68.8776H563.317C563.317 68.5475 563.284 67.9864 563.251 67.5902H561.782ZM578.147 68.6631C577.503 67.8213 576.315 67.3756 575.209 67.3756C572.816 67.3756 571.033 69.0427 571.033 71.502C571.033 73.9943 572.832 75.6284 575.242 75.6284C576.497 75.6284 577.503 75.1662 578.164 74.407L577.124 73.4662C576.711 73.9943 576.034 74.3245 575.242 74.3245C573.608 74.3245 572.667 72.9875 572.667 71.502C572.667 70 573.608 68.6796 575.226 68.6796C575.968 68.6796 576.695 69.0592 577.025 69.5709L578.147 68.6631ZM580.864 70.8088C580.963 69.5874 581.986 68.5971 583.323 68.5971C584.759 68.5971 585.485 69.5709 585.518 70.8088H580.864ZM587.086 71.436C587.086 68.9437 585.634 67.3756 583.323 67.3756C581.029 67.3756 579.279 69.0757 579.279 71.5185C579.279 73.9778 581.029 75.6284 583.406 75.6284C584.792 75.6284 585.931 75.1167 586.773 74.0274L585.683 73.1526C585.238 73.8128 584.462 74.341 583.406 74.341C582.036 74.341 580.913 73.3011 580.864 71.9642H587.07C587.086 71.7826 587.086 71.6011 587.086 71.436Z" fill="black"/>
<path d="M495.633 134.398V118.038H492.074L486.69 121.989L488.7 124.739L491.75 122.382V134.398H495.633ZM514.14 126.172C514.14 121.55 512.384 117.599 507.763 117.599C503.118 117.599 501.339 121.55 501.339 126.172C501.339 130.816 503.118 134.837 507.763 134.837C512.384 134.837 514.14 130.816 514.14 126.172ZM510.166 126.172C510.166 128.274 509.796 131.509 507.763 131.509C505.706 131.509 505.313 128.274 505.313 126.172C505.313 124.115 505.706 120.88 507.763 120.88C509.796 120.88 510.166 124.115 510.166 126.172Z" fill="black"/>
<path d="M455.5 59.929C455.5 52.6364 461.412 46.7246 468.704 46.7246H505.016V83.0367C505.016 90.3293 499.105 96.2411 491.812 96.2411H455.5V59.929Z" fill="#FFE100"/>
<path fill-rule="evenodd" clip-rule="evenodd" d="M472.133 62.5414C474.307 60.3675 477.075 59.1496 479.915 58.8876C479.914 58.8968 479.914 58.906 479.914 58.9153V61.3004L479.922 61.4367C479.99 62.0182 480.484 62.4695 481.083 62.4695C481.729 62.4695 482.253 61.9461 482.253 61.3004V58.9153L482.251 58.8872C485.092 59.1485 487.861 60.3665 490.036 62.5414C490.146 62.6511 490.253 62.7624 490.358 62.8751L488.544 64.3443L488.443 64.4362C488.033 64.8546 487.993 65.5227 488.371 65.9886C488.777 66.4904 489.513 66.5678 490.015 66.1615L491.787 64.7266C493.451 67.3539 494.054 70.4605 493.595 73.4349L491.564 72.966L491.429 72.943C490.848 72.878 490.297 73.258 490.162 73.8422C490.017 74.4714 490.409 75.0991 491.038 75.2444L493.026 75.7034C492.417 77.4345 491.42 79.0596 490.036 80.4439C485.092 85.3875 477.077 85.3875 472.133 80.4439C470.749 79.0598 469.753 77.435 469.144 75.7043L471.139 75.2437L471.27 75.2053C471.821 75.0087 472.15 74.4257 472.015 73.8415C471.87 73.2124 471.242 72.8201 470.613 72.9653L468.575 73.4358C468.115 70.4612 468.718 67.3541 470.383 64.7265L472.154 66.1611L472.265 66.2408C472.759 66.5543 473.421 66.4543 473.798 65.9883C474.205 65.4865 474.127 64.7503 473.626 64.3439L471.812 62.875C471.917 62.7623 472.024 62.6511 472.133 62.5414ZM486.695 67.5681C486.308 67.0515 485.575 66.9468 485.059 67.3343L480.382 70.8417L480.27 70.937C479.852 71.3406 479.791 72.0016 480.148 72.4785C480.536 72.995 481.268 73.0997 481.785 72.7123L486.461 69.2049L486.573 69.1096C486.991 68.706 487.053 68.0449 486.695 67.5681Z" fill="white"/>
<path d="M495.853 148.735H493.674V162.758H495.1V150.577H495.14L500.21 162.758H500.963L506.034 150.577H506.073V162.758H507.499V148.735H505.321L500.626 160.341H500.607L495.853 148.735ZM512.613 153.488H511.266V162.758H512.613V153.488ZM512.891 149.923C512.891 149.368 512.415 148.972 511.94 148.972C511.465 148.972 510.989 149.368 510.989 149.923C510.989 150.477 511.465 150.874 511.94 150.874C512.415 150.874 512.891 150.477 512.891 149.923ZM517.693 147.784H516.346V162.758H517.693V147.784ZM522.157 157.41C522.276 155.825 523.603 154.379 525.406 154.379C527.327 154.379 528.396 155.667 528.476 157.41H522.157ZM529.842 157.846C529.842 155.31 528.317 153.25 525.406 153.25C522.771 153.25 520.731 155.33 520.731 158.123C520.731 160.916 522.771 162.995 525.524 162.995C527.05 162.995 528.416 162.421 529.506 161.034L528.495 160.242C527.98 161.074 526.911 161.846 525.524 161.846C523.623 161.846 522.177 160.341 522.138 158.479H529.822C529.842 158.242 529.842 158.024 529.842 157.846ZM538.809 154.914C538.215 153.864 536.848 153.25 535.561 153.25C533.877 153.25 532.253 154.062 532.253 155.944C532.253 157.707 533.818 158.182 534.907 158.44C536.67 158.856 537.641 159.252 537.641 160.222C537.641 161.431 536.611 161.846 535.462 161.846C534.372 161.846 533.362 161.213 532.887 160.401L531.817 161.193C532.669 162.441 534.075 162.995 535.482 162.995C537.185 162.995 538.968 162.243 538.968 160.123C538.968 158.677 537.938 157.865 535.759 157.41C534.234 157.093 533.541 156.697 533.541 155.825C533.541 154.795 534.531 154.379 535.501 154.379C536.531 154.379 537.383 154.914 537.779 155.687L538.809 154.914ZM548.163 161.193H548.222C548.995 162.342 550.381 162.995 551.708 162.995C554.6 162.995 556.501 160.856 556.501 158.123C556.501 155.39 554.6 153.25 551.708 153.25C550.381 153.25 548.995 153.884 548.222 155.092H548.163V153.488H546.816V167.511H548.163V161.193ZM555.075 158.123C555.075 160.183 553.808 161.846 551.569 161.846C549.49 161.846 548.004 160.242 548.004 158.123C548.004 156.004 549.49 154.379 551.569 154.379C553.808 154.379 555.075 156.063 555.075 158.123ZM560.249 157.41C560.368 155.825 561.695 154.379 563.497 154.379C565.419 154.379 566.488 155.667 566.567 157.41H560.249ZM567.934 157.846C567.934 155.31 566.409 153.25 563.497 153.25C560.863 153.25 558.823 155.33 558.823 158.123C558.823 160.916 560.863 162.995 563.616 162.995C565.141 162.995 566.508 162.421 567.597 161.034L566.587 160.242C566.072 161.074 565.003 161.846 563.616 161.846C561.715 161.846 560.269 160.341 560.229 158.479H567.914C567.934 158.242 567.934 158.024 567.934 157.846ZM570.939 155.528V162.758H572.286V158.004C572.286 155.528 573.573 154.498 574.999 154.498C575.356 154.498 575.792 154.558 575.95 154.617L576.128 153.349C575.851 153.27 575.574 153.25 575.237 153.25C573.93 153.25 572.781 154.003 572.266 155.073H572.227C572.227 154.676 572.187 153.983 572.147 153.488H570.86C570.919 154.122 570.939 155.033 570.939 155.528ZM590.87 161.193H590.909V162.758H592.256V147.784H590.909V155.092H590.87C590.077 153.884 588.691 153.25 587.364 153.25C584.472 153.25 582.571 155.39 582.571 158.123C582.571 160.856 584.472 162.995 587.364 162.995C588.691 162.995 590.077 162.361 590.87 161.193ZM583.997 158.123C583.997 156.063 585.264 154.379 587.503 154.379C589.582 154.379 591.068 156.004 591.068 158.123C591.068 160.242 589.582 161.846 587.503 161.846C585.264 161.846 583.997 160.183 583.997 158.123ZM601.806 157.073C598.419 157.073 595.27 157.331 595.27 160.183C595.27 162.243 597.073 162.995 598.479 162.995C599.964 162.995 600.994 162.48 601.846 161.252H601.886C601.886 161.747 601.945 162.302 602.024 162.758H603.232C603.133 162.243 603.074 161.391 603.074 160.678V156.618C603.074 154.36 601.47 153.25 599.469 153.25C597.885 153.25 596.577 153.825 595.825 154.577L596.577 155.469C597.231 154.815 598.241 154.379 599.33 154.379C600.935 154.379 601.806 155.172 601.806 156.776V157.073ZM601.806 158.123V158.816C601.806 160.46 600.737 161.886 598.835 161.886C597.786 161.886 596.657 161.45 596.657 160.123C596.657 158.361 599.212 158.123 601.41 158.123H601.806ZM606.691 153.488H605.186L609.147 162.738L608.395 164.679C607.999 165.729 607.523 166.323 606.612 166.323C606.256 166.323 605.919 166.263 605.622 166.164L605.483 167.392C605.879 167.472 606.295 167.511 606.691 167.511C608.296 167.511 609.048 166.58 609.603 165.154L614.218 153.488H612.752L609.88 161.312H609.841L606.691 153.488Z" fill="black"/>
<g filter="url(#filter2_d)">
<rect x="245.492" y="377.398" width="293.233" height="190.601" rx="16.7562" fill="white"/>
</g>
<path d="M342.132 411.203C341.252 412.481 339.807 413.172 338.152 413.172C334.738 413.172 332.581 410.533 332.581 407.203C332.581 403.956 334.78 401.254 338.215 401.254C339.744 401.254 341.189 401.987 341.901 402.993L343.535 401.736C342.446 400.228 340.247 399.432 338.215 399.432C333.712 399.432 330.319 402.574 330.319 407.203C330.319 411.769 333.586 415.015 338.131 415.015C340.729 415.015 342.635 413.905 343.787 412.334L342.132 411.203ZM351.722 408.48C348.371 408.48 344.81 408.836 344.81 411.832C344.81 414.115 346.842 414.89 348.413 414.89C349.9 414.89 351.031 414.282 351.743 413.214H351.806C351.806 413.675 351.869 414.198 351.974 414.638H353.754C353.649 414.156 353.607 413.34 353.607 412.669V408.334C353.607 406.134 352.309 404.438 349.46 404.438C347.847 404.438 346.36 405.003 345.397 405.925L346.444 407.182C347.114 406.511 348.162 406.03 349.272 406.03C350.738 406.03 351.722 406.742 351.722 408.208V408.48ZM351.722 409.905V410.428C351.722 412.104 350.696 413.34 348.853 413.34C347.868 413.34 346.821 412.963 346.821 411.79C346.821 410.114 349.293 409.905 351.241 409.905H351.722ZM358.937 406.344H358.874C358.874 405.925 358.832 405.213 358.79 404.71H356.926C356.989 405.359 357.01 406.323 357.01 406.847V414.638H358.979V409.36C358.979 407.391 360.068 406.093 361.513 406.093C363.084 406.093 363.608 407.182 363.608 408.732V414.638H365.576V409.276C365.576 407.726 366.289 406.093 368.09 406.093C369.807 406.093 370.289 407.517 370.289 409.13V414.638H372.258V408.48C372.258 406.26 371.106 404.438 368.551 404.438C367.147 404.438 365.849 405.15 365.179 406.428C364.571 405.024 363.419 404.438 362.1 404.438C360.592 404.438 359.44 405.297 358.937 406.344ZM377.666 413.151H377.728C378.461 414.261 379.823 414.91 381.226 414.91C384.284 414.91 386.232 412.565 386.232 409.653C386.232 406.721 384.221 404.438 381.268 404.438C379.634 404.438 378.336 405.213 377.686 406.26H377.624V404.71H375.697V419.665H377.666V413.151ZM384.2 409.653C384.2 411.517 383.048 413.256 380.891 413.256C378.88 413.256 377.54 411.58 377.54 409.674C377.54 407.768 378.88 406.072 380.891 406.072C383.048 406.072 384.2 407.789 384.2 409.653ZM395.265 408.48C391.913 408.48 388.353 408.836 388.353 411.832C388.353 414.115 390.384 414.89 391.955 414.89C393.442 414.89 394.573 414.282 395.286 413.214H395.348C395.348 413.675 395.411 414.198 395.516 414.638H397.296C397.192 414.156 397.15 413.34 397.15 412.669V408.334C397.15 406.134 395.851 404.438 393.003 404.438C391.39 404.438 389.903 405.003 388.939 405.925L389.986 407.182C390.657 406.511 391.704 406.03 392.814 406.03C394.28 406.03 395.265 406.742 395.265 408.208V408.48ZM395.265 409.905V410.428C395.265 412.104 394.238 413.34 392.395 413.34C391.411 413.34 390.363 412.963 390.363 411.79C390.363 410.114 392.835 409.905 394.783 409.905H395.265ZM402.542 404.71H400.573V414.638H402.542V404.71ZM402.877 401.129C402.877 400.395 402.27 399.851 401.558 399.851C400.845 399.851 400.259 400.416 400.259 401.129C400.259 401.82 400.845 402.385 401.558 402.385C402.27 402.385 402.877 401.841 402.877 401.129ZM405.605 417.864C406.841 418.995 408.747 419.665 410.464 419.665C414.591 419.665 415.952 417.026 415.952 414.135V404.71H414.046V406.302H414.004C413.25 405.066 411.847 404.438 410.422 404.438C407.385 404.438 405.437 406.763 405.437 409.611C405.437 412.46 407.406 414.722 410.443 414.722C411.847 414.722 413.208 414.115 413.941 413.004H413.983V414.282C413.983 416.335 413.103 417.948 410.485 417.948C409.124 417.948 407.721 417.298 406.862 416.335L405.605 417.864ZM407.469 409.569C407.469 407.663 408.684 406.072 410.758 406.072C412.768 406.072 414.13 407.684 414.13 409.569C414.13 411.538 412.789 413.067 410.758 413.067C408.684 413.067 407.469 411.392 407.469 409.569ZM419.351 404.71C419.414 405.359 419.435 406.323 419.435 406.847V414.638H421.404V409.36C421.404 407.391 422.514 406.093 424.064 406.093C425.886 406.093 426.326 407.517 426.326 409.13V414.638H428.295V408.48C428.295 406.26 427.143 404.438 424.587 404.438C423.163 404.438 421.844 405.276 421.362 406.344H421.299C421.299 405.925 421.257 405.213 421.215 404.71H419.351ZM443.814 406.072C443.102 405.003 441.615 404.438 440.211 404.438C438.326 404.438 436.462 405.339 436.462 407.475C436.462 409.339 438.033 409.905 439.353 410.219C441.049 410.617 441.95 410.952 441.95 411.873C441.95 412.963 440.965 413.319 439.981 413.319C438.871 413.319 437.866 412.711 437.342 411.936L435.939 413.13C436.881 414.324 438.431 414.91 439.939 414.91C441.95 414.91 443.898 414.052 443.898 411.706C443.898 409.967 442.453 409.192 440.567 408.774C439.059 408.438 438.305 408.124 438.305 407.286C438.305 406.344 439.248 405.988 440.149 405.988C441.154 405.988 442.013 406.511 442.453 407.224L443.814 406.072ZM451.371 404.71H448.732V401.862H446.784V404.71H444.878V406.323H446.784V411.706C446.784 413.758 447.81 414.806 449.674 414.806C450.282 414.806 450.889 414.701 451.35 414.533L451.287 412.921C450.952 413.088 450.491 413.172 450.135 413.172C449.151 413.172 448.732 412.69 448.732 411.496V406.323H451.371V404.71ZM459.698 408.48C456.346 408.48 452.786 408.836 452.786 411.832C452.786 414.115 454.817 414.89 456.388 414.89C457.875 414.89 459.006 414.282 459.719 413.214H459.781C459.781 413.675 459.844 414.198 459.949 414.638H461.729C461.625 414.156 461.583 413.34 461.583 412.669V408.334C461.583 406.134 460.284 404.438 457.436 404.438C455.823 404.438 454.336 405.003 453.372 405.925L454.419 407.182C455.09 406.511 456.137 406.03 457.247 406.03C458.713 406.03 459.698 406.742 459.698 408.208V408.48ZM459.698 409.905V410.428C459.698 412.104 458.671 413.34 456.828 413.34C455.844 413.34 454.797 412.963 454.797 411.79C454.797 410.114 457.268 409.905 459.216 409.905H459.698ZM464.985 406.847V414.638H466.954V409.423C466.954 407.768 467.855 406.239 469.74 406.239C470.054 406.239 470.389 406.281 470.64 406.344L470.724 404.522C470.494 404.459 470.222 404.438 469.949 404.438C468.609 404.438 467.457 405.234 466.912 406.386H466.849C466.849 405.967 466.807 405.213 466.766 404.71H464.901C464.964 405.359 464.985 406.323 464.985 406.847ZM477.302 404.71H474.663V401.862H472.715V404.71H470.809V406.323H472.715V411.706C472.715 413.758 473.741 414.806 475.605 414.806C476.213 414.806 476.82 414.701 477.281 414.533L477.218 412.921C476.883 413.088 476.422 413.172 476.066 413.172C475.082 413.172 474.663 412.69 474.663 411.496V406.323H477.302V404.71ZM486.173 406.072C485.461 405.003 483.974 404.438 482.571 404.438C480.686 404.438 478.822 405.339 478.822 407.475C478.822 409.339 480.392 409.905 481.712 410.219C483.409 410.617 484.309 410.952 484.309 411.873C484.309 412.963 483.325 413.319 482.34 413.319C481.23 413.319 480.225 412.711 479.701 411.936L478.298 413.13C479.24 414.324 480.79 414.91 482.298 414.91C484.309 414.91 486.257 414.052 486.257 411.706C486.257 409.967 484.812 409.192 482.927 408.774C481.419 408.438 480.665 408.124 480.665 407.286C480.665 406.344 481.607 405.988 482.508 405.988C483.513 405.988 484.372 406.511 484.812 407.224L486.173 406.072Z" fill="black"/>
<path d="M313.25 467.513H308.03L304.687 481.325H304.599L300.875 467.513H295.656L291.961 481.325H291.873L288.589 467.513H283.193L289.087 488.274H294.072L298.178 474.228H298.266L302.371 488.274H307.326L313.25 467.513ZM318.109 479.301C318.226 477.806 319.575 476.516 321.423 476.516C323.329 476.516 324.296 477.776 324.296 479.301H318.109ZM328.724 481.149C328.724 476.164 325.704 473.202 321.393 473.202C316.965 473.202 313.505 476.252 313.505 481.031C313.505 485.958 317.141 488.743 321.54 488.743C324.501 488.743 326.789 487.629 328.167 485.635L324.824 483.524C324.179 484.403 323.123 485.049 321.598 485.049C319.868 485.049 318.256 483.905 318.109 482.292H328.695C328.724 481.94 328.724 481.53 328.724 481.149ZM347.349 488.274V466.106H342.54V475.225H342.481C341.66 474.258 340.165 473.261 338.024 473.261C333.772 473.261 331.133 476.838 331.133 480.914C331.133 484.99 333.684 488.685 338.083 488.685C340.018 488.685 341.924 487.834 342.862 486.368H342.921V488.274H347.349ZM342.745 480.943C342.745 482.849 341.396 484.697 339.226 484.697C336.939 484.697 335.766 482.82 335.766 480.914C335.766 479.037 336.939 477.19 339.226 477.19C341.396 477.19 342.745 479.096 342.745 480.943ZM356.84 483.582H352.236L350.037 491.91H353.995L356.84 483.582ZM378.15 481.178V467.513H373.106V481.207C373.106 483.025 372.725 484.286 371.083 484.286C370.027 484.286 369.265 483.553 369.001 482.468L364.573 483.964C365.335 486.808 367.828 488.831 371.317 488.831C376.977 488.831 378.15 484.462 378.15 481.178ZM396.469 488.274V473.671H391.66V481.559C391.66 483.231 390.751 484.697 389.08 484.697C387.32 484.697 386.91 483.231 386.91 481.588V473.671H382.072V482.703C382.072 485.635 383.45 488.685 387.379 488.685C389.432 488.685 391.103 487.541 391.778 486.251H391.836V488.274H396.469ZM405.317 488.274V466.106H400.449V488.274H405.317ZM424.063 473.671H418.961L416.058 483.055H415.97L412.715 473.671H407.378L413.477 488.04L413.008 489.242C412.539 490.503 412.041 491.207 410.545 491.207C410.076 491.207 409.46 491.089 408.991 490.943L408.463 494.989C409.167 495.165 410.193 495.312 411.102 495.312C414.768 495.312 416.351 493.523 417.524 490.473L424.063 473.671ZM449.29 477.835C449.29 471.97 447.061 466.956 441.196 466.956C435.302 466.956 433.045 471.97 433.045 477.835C433.045 483.729 435.302 488.831 441.196 488.831C447.061 488.831 449.29 483.729 449.29 477.835ZM444.246 477.835C444.246 480.503 443.777 484.609 441.196 484.609C438.587 484.609 438.088 480.503 438.088 477.835C438.088 475.225 438.587 471.12 441.196 471.12C443.777 471.12 444.246 475.225 444.246 477.835ZM464.038 488.274V467.513H459.522L452.689 472.528L455.241 476.017L459.111 473.026V488.274H464.038Z" fill="black"/>
<g opacity="0.7">
<path d="M292.191 506.275H290.583L286.059 509.995L287.165 511.252L290.382 508.512V524.07H292.191V506.275ZM305.199 505.823C300.725 505.823 299.368 510.573 299.368 515.198C299.368 519.822 300.725 524.522 305.199 524.522C309.623 524.522 311.03 519.822 311.03 515.198C311.03 510.573 309.623 505.823 305.199 505.823ZM305.199 507.356C308.316 507.356 309.196 511.654 309.196 515.198C309.196 518.742 308.316 522.964 305.199 522.964C302.032 522.964 301.203 518.742 301.203 515.198C301.203 511.654 302.032 507.356 305.199 507.356ZM317.755 513.514C317.755 512.81 317.202 512.156 316.397 512.156C315.593 512.156 315.04 512.81 315.04 513.514C315.04 514.217 315.593 514.871 316.397 514.871C317.202 514.871 317.755 514.217 317.755 513.514ZM317.755 522.864C317.755 522.16 317.202 521.506 316.397 521.506C315.593 521.506 315.04 522.16 315.04 522.864C315.04 523.567 315.593 524.221 316.397 524.221C317.202 524.221 317.755 523.567 317.755 522.864ZM327.589 505.823C323.115 505.823 321.757 510.573 321.757 515.198C321.757 519.822 323.115 524.522 327.589 524.522C332.012 524.522 333.42 519.822 333.42 515.198C333.42 510.573 332.012 505.823 327.589 505.823ZM327.589 507.356C330.705 507.356 331.585 511.654 331.585 515.198C331.585 518.742 330.705 522.964 327.589 522.964C324.422 522.964 323.592 518.742 323.592 515.198C323.592 511.654 324.422 507.356 327.589 507.356ZM342.306 505.823C337.832 505.823 336.474 510.573 336.474 515.198C336.474 519.822 337.832 524.522 342.306 524.522C346.729 524.522 348.137 519.822 348.137 515.198C348.137 510.573 346.729 505.823 342.306 505.823ZM342.306 507.356C345.422 507.356 346.302 511.654 346.302 515.198C346.302 518.742 345.422 522.964 342.306 522.964C339.139 522.964 338.309 518.742 338.309 515.198C338.309 511.654 339.139 507.356 342.306 507.356ZM359.885 519.395H369.084L371.044 524.07H373.055L365.414 506.275H363.655L355.964 524.07H357.949L359.885 519.395ZM364.484 508.286L368.405 517.736H360.563L364.484 508.286ZM378.576 506.275H375.811V524.07H377.621V508.612H377.671L384.105 524.07H385.06L391.495 508.612H391.545V524.07H393.355V506.275H390.59L384.633 521.004H384.608L378.576 506.275Z" fill="black"/>
</g>
<path d="M245.492 394.155C245.492 384.9 252.994 377.398 262.248 377.398H308.328V423.478C308.328 432.732 300.826 440.234 291.572 440.234H245.492V394.155Z" fill="#F6555A"/>
<path fill-rule="evenodd" clip-rule="evenodd" d="M268.174 398.293C268.174 396.68 269.92 395.672 271.316 396.479L287.558 405.863C288.891 406.633 288.966 408.529 287.699 409.402L271.457 420.591C270.067 421.548 268.174 420.553 268.174 418.866V398.293Z" fill="white"/>
<defs>
<filter id="filter0_d" x="0.0111561" y="0.50325" width="400.29" height="281.055" filterUnits="userSpaceOnUse" color-interpolation-filters="sRGB">
<feFlood flood-opacity="0" result="BackgroundImageFix"/>
<feColorMatrix in="SourceAlpha" type="matrix" values="0 0 0 0 0 0 0 0 0 0 0 0 0 0 0 0 0 0 127 0"/>
<feOffset dy="-3.78525"/>
<feGaussianBlur stdDeviation="11.3558"/>
<feColorMatrix type="matrix" values="0 0 0 0 0 0 0 0 0 0 0 0 0 0 0 0 0 0 0.08 0"/>
<feBlend mode="normal" in2="BackgroundImageFix" result="effect1_dropShadow"/>
<feBlend mode="normal" in="SourceGraphic" in2="effect1_dropShadow" result="shape"/>
</filter>
<filter id="filter1_d" x="429.091" y="17.0147" width="302.05" height="229.426" filterUnits="userSpaceOnUse" color-interpolation-filters="sRGB">
<feFlood flood-opacity="0" result="BackgroundImageFix"/>
<feColorMatrix in="SourceAlpha" type="matrix" values="0 0 0 0 0 0 0 0 0 0 0 0 0 0 0 0 0 0 127 0"/>
<feOffset dx="13.2044" dy="9.90329"/>
<feGaussianBlur stdDeviation="19.8066"/>
<feColorMatrix type="matrix" values="0 0 0 0 0 0 0 0 0 0 0 0 0 0 0 0 0 0 0.12 0"/>
<feBlend mode="normal" in2="BackgroundImageFix" result="effect1_dropShadow"/>
<feBlend mode="normal" in="SourceGraphic" in2="effect1_dropShadow" result="shape"/>
</filter>
<filter id="filter2_d" x="211.98" y="339.697" width="393.77" height="291.139" filterUnits="userSpaceOnUse" color-interpolation-filters="sRGB">
<feFlood flood-opacity="0" result="BackgroundImageFix"/>
<feColorMatrix in="SourceAlpha" type="matrix" values="0 0 0 0 0 0 0 0 0 0 0 0 0 0 0 0 0 0 127 0"/>
<feOffset dx="16.7562" dy="12.5671"/>
<feGaussianBlur stdDeviation="25.1343"/>
<feColorMatrix type="matrix" values="0 0 0 0 0 0 0 0 0 0 0 0 0 0 0 0 0 0 0.12 0"/>
<feBlend mode="normal" in2="BackgroundImageFix" result="effect1_dropShadow"/>
<feBlend mode="normal" in="SourceGraphic" in2="effect1_dropShadow" result="shape"/>
</filter>
<clipPath id="clip0">
<rect width="285.786" height="52.9935" fill="white" transform="translate(51.1133 64.8535)"/>
</clipPath>
<clipPath id="clip1">
<rect width="52.9935" height="52.9935" fill="white" transform="translate(164.672 64.8535)"/>
</clipPath>
<clipPath id="clip2">
<rect width="52.9935" height="31.2283" fill="white" transform="translate(164.672 86.6184)"/>
</clipPath>
<clipPath id="clip3">
<rect width="37.8525" height="52.9935" fill="white" transform="translate(51.1133 64.8535)"/>
</clipPath>
</defs>
</svg>
