<svg width="414" height="386" viewBox="0 0 414 386" fill="none" xmlns="http://www.w3.org/2000/svg">
<path d="M-85.8203 252.256C-61.8231 232.26 -62.0235 204.101 -35.2752 207.71C2.75716 212.843 3.36753 264.292 33.031 268.295C52.1215 270.871 83.0928 235.357 120.061 240.346C149.917 244.375 177.705 204.559 209.506 208.851C227.267 211.248 245.463 241.29 279.636 241.578C306.712 241.807 336.411 187.251 373.424 192.246C397.511 195.497 407.257 193.907 423.904 170.983" stroke="#F6555A" stroke-width="3.83771" stroke-linecap="round"/>
<g clip-path="url(#clip0)" filter="url(#filter0_d)">
<path fill-rule="evenodd" clip-rule="evenodd" d="M242.776 125.522C240.138 125.522 238 127.66 238 130.298L238 163.729C238 166.367 240.138 168.505 242.776 168.505L314.26 168.505L319.776 174.809C320.727 175.896 322.419 175.896 323.37 174.809L328.886 168.505L402.768 168.505C405.406 168.505 407.544 166.367 407.544 163.729L407.544 130.298C407.544 127.66 405.406 125.522 402.768 125.522L242.776 125.522Z" fill="white"/>
</g>
<g clip-path="url(#clip1)" filter="url(#filter1_d)">
<circle cx="322.804" cy="208.383" r="24.3975" fill="white"/>
<circle cx="322.796" cy="208.384" r="7.31925" fill="#F6555A"/>
<mask id="mask0" mask-type="alpha" maskUnits="userSpaceOnUse" x="315" y="201" width="16" height="15">
<circle cx="322.796" cy="208.384" r="7.31925" fill="white"/>
</mask>
<g mask="url(#mask0)">
</g>
</g>
<path d="M260.001 150.207L260.001 140.858L256.739 140.858L254.706 146.853L254.653 146.853L252.527 140.858L249.318 140.858L249.318 150.207L251.444 150.207L251.391 143.591L251.431 143.591L253.795 150.207L255.379 150.207L257.809 143.591L257.849 143.591L257.796 150.207L260.001 150.207ZM268.784 146.892C268.784 144.74 267.12 143.419 265.126 143.419C263.145 143.419 261.481 144.74 261.481 146.892C261.481 149.045 263.145 150.418 265.126 150.418C267.12 150.418 268.784 149.045 268.784 146.892ZM266.697 146.892C266.697 147.738 266.156 148.596 265.139 148.596C264.122 148.596 263.581 147.738 263.581 146.892C263.581 146.047 264.109 145.215 265.126 145.215C266.143 145.215 266.697 146.047 266.697 146.892ZM276.652 150.207L276.652 146.14C276.652 144.819 276.018 143.446 274.249 143.446C273.338 143.446 272.585 143.961 272.281 144.542L272.255 144.542L272.255 143.631L270.155 143.631L270.155 150.207L272.334 150.207L272.334 146.642C272.334 145.889 272.73 145.229 273.496 145.229C274.275 145.229 274.473 145.889 274.473 146.615L274.473 150.207L276.652 150.207ZM282.188 145.255L282.188 143.631L280.643 143.631L280.643 141.901L278.517 141.901L278.517 143.631L277.474 143.631L277.474 145.255L278.53 145.255L278.53 148.028C278.53 149.428 279.111 150.365 280.867 150.365C281.33 150.365 281.831 150.273 282.122 150.167L282.096 148.583C281.937 148.649 281.673 148.688 281.462 148.688C280.841 148.688 280.643 148.371 280.643 147.764L280.643 145.255L282.188 145.255ZM289.716 150.207L289.716 146.14C289.716 144.819 289.095 143.446 287.313 143.446C286.401 143.446 285.715 143.934 285.424 144.463L285.398 144.463L285.398 140.224L283.232 140.224L283.232 150.207L285.398 150.207L285.398 146.655C285.398 145.876 285.82 145.255 286.573 145.255C287.352 145.255 287.537 145.902 287.537 146.642L287.537 150.207L289.716 150.207ZM293.574 150.207L293.574 140.224L291.382 140.224L291.382 150.207L293.574 150.207ZM301.945 143.631L299.647 143.631L298.34 147.856L298.3 147.856L296.834 143.631L294.431 143.631L297.178 150.101L296.966 150.643C296.755 151.211 296.531 151.528 295.857 151.528C295.646 151.528 295.368 151.475 295.157 151.409L294.919 153.231C295.236 153.31 295.699 153.376 296.108 153.376C297.759 153.376 298.472 152.571 299 151.197L301.945 143.631ZM312.725 150.207L312.725 148.279L308.381 148.279L308.381 146.338L312.263 146.338L312.263 144.529L308.381 144.529L308.381 142.772L312.488 142.772L312.488 140.858L306.202 140.858L306.202 150.207L312.725 150.207ZM317.987 147.566C317.987 148.385 317.498 148.913 316.627 148.913C316.191 148.913 315.689 148.741 315.689 148.239C315.689 147.46 316.759 147.341 317.709 147.341L317.987 147.341L317.987 147.566ZM315.108 145.704C315.504 145.334 316.112 145.03 316.732 145.03C317.406 145.03 317.921 145.334 317.921 145.981L317.921 146.087C316.006 146.087 313.695 146.404 313.695 148.305C313.695 149.85 315.042 150.365 316.085 150.365C316.864 150.365 317.617 150.049 317.947 149.507L317.987 149.507L317.987 150.207L319.968 150.207L319.968 146.892C319.968 144.502 319.149 143.419 316.944 143.419C315.874 143.419 314.778 143.802 314.012 144.529L315.108 145.704ZM325.942 143.499C325.836 143.459 325.651 143.446 325.48 143.446C324.674 143.446 324.027 143.921 323.697 144.582L323.671 144.582L323.671 143.631L321.584 143.631L321.584 150.207L323.75 150.207L323.75 146.826C323.75 146.285 324.133 145.334 325.295 145.334C325.466 145.334 325.651 145.347 325.849 145.4L325.942 143.499ZM333.317 150.207L333.317 146.14C333.317 144.819 332.683 143.446 330.913 143.446C330.002 143.446 329.25 143.961 328.946 144.542L328.919 144.542L328.919 143.631L326.82 143.631L326.82 150.207L328.999 150.207L328.999 146.642C328.999 145.889 329.395 145.229 330.161 145.229C330.94 145.229 331.138 145.889 331.138 146.615L331.138 150.207L333.317 150.207ZM337.308 141.531C337.308 140.871 336.753 140.343 336.066 140.343C335.367 140.343 334.825 140.897 334.825 141.531C334.825 142.178 335.367 142.72 336.066 142.72C336.753 142.72 337.308 142.205 337.308 141.531ZM337.149 150.207L337.149 143.631L334.984 143.631L334.984 150.207L337.149 150.207ZM345.362 150.207L345.362 146.14C345.362 144.819 344.728 143.446 342.958 143.446C342.047 143.446 341.294 143.961 340.991 144.542L340.964 144.542L340.964 143.631L338.865 143.631L338.865 150.207L341.044 150.207L341.044 146.642C341.044 145.889 341.44 145.229 342.206 145.229C342.985 145.229 343.183 145.889 343.183 146.615L343.183 150.207L345.362 150.207ZM353.974 149.586L353.974 143.631L351.928 143.631L351.928 144.476L351.901 144.476C351.439 143.776 350.62 143.446 349.802 143.446C347.821 143.446 346.672 145.07 346.672 146.892C346.672 148.715 347.821 150.273 349.815 150.273C350.686 150.273 351.399 149.93 351.809 149.401L351.848 149.401L351.848 149.798C351.848 150.894 351.254 151.633 349.986 151.633C349.247 151.633 348.441 151.356 347.807 150.801L346.725 152.346C347.609 153.007 348.956 153.376 350.105 153.376C352.443 153.376 353.974 152.161 353.974 149.586ZM351.914 146.879C351.914 147.777 351.307 148.556 350.317 148.556C349.339 148.556 348.771 147.751 348.771 146.879C348.771 145.968 349.339 145.215 350.317 145.215C351.294 145.215 351.914 145.981 351.914 146.879ZM360.751 144.344C360.104 143.736 359.088 143.419 358.11 143.419C356.856 143.419 355.377 144.053 355.377 145.625C355.377 146.866 356.38 147.328 357.292 147.54C358.19 147.751 358.599 147.883 358.599 148.292C358.599 148.715 358.176 148.86 357.82 148.86C357.186 148.86 356.592 148.543 356.209 148.121L354.994 149.401C355.681 150.062 356.79 150.418 357.86 150.418C359.206 150.418 360.672 149.837 360.672 148.173C360.672 146.892 359.576 146.391 358.573 146.166C357.727 145.981 357.371 145.876 357.371 145.506C357.371 145.123 357.78 144.978 358.19 144.978C358.718 144.978 359.22 145.242 359.563 145.572L360.751 144.344ZM364.564 144.793C364.564 144.106 363.969 143.551 363.283 143.551C362.57 143.551 361.975 144.119 361.975 144.819C361.975 145.519 362.583 146.061 363.283 146.061C363.969 146.061 364.564 145.493 364.564 144.793ZM364.564 149.032C364.564 148.332 363.969 147.777 363.283 147.777C362.57 147.777 361.975 148.345 361.975 149.045C361.975 149.745 362.583 150.286 363.283 150.286C363.969 150.286 364.564 149.732 364.564 149.032ZM373.517 139.828L372.553 139.828L372.553 140.739C371.167 140.805 369.609 141.782 369.609 143.512C369.609 145.281 370.969 145.862 372.487 146.272L372.487 148.583C371.906 148.57 371.088 148.187 370.612 147.672C370.163 148.16 369.688 148.649 369.226 149.124C370.097 149.903 371.352 150.299 372.487 150.339L372.487 151.303L373.465 151.303L373.465 150.339C375.01 150.286 376.515 149.375 376.515 147.447C376.515 145.559 374.878 144.978 373.517 144.568L373.517 142.455C374.072 142.469 374.759 142.733 375.194 143.169C375.63 142.693 376.053 142.218 376.475 141.729C375.657 141.069 374.508 140.752 373.517 140.726L373.517 139.828ZM372.553 144.344C371.999 144.199 371.629 143.921 371.629 143.367C371.629 142.786 372.078 142.482 372.553 142.429L372.553 144.344ZM373.465 146.51C374.019 146.681 374.429 146.958 374.429 147.566C374.429 148.173 374.059 148.57 373.465 148.596L373.465 146.51ZM385.382 148.385L385.382 146.589L384.088 146.589L384.088 140.858L381.434 140.858L377.631 146.523L377.631 148.385L382.028 148.385L382.028 150.207L384.101 150.207L384.101 148.385L385.382 148.385ZM382.041 146.589L379.783 146.589L382.002 143.129L382.041 143.129L382.041 146.589ZM393.761 145.506C393.761 142.865 392.757 140.607 390.116 140.607C387.462 140.607 386.445 142.865 386.445 145.506C386.445 148.16 387.462 150.458 390.116 150.458C392.757 150.458 393.761 148.16 393.761 145.506ZM391.49 145.506C391.49 146.708 391.278 148.556 390.116 148.556C388.941 148.556 388.716 146.708 388.716 145.506C388.716 144.331 388.941 142.482 390.116 142.482C391.278 142.482 391.49 144.331 391.49 145.506ZM402.298 145.506C402.298 142.865 401.294 140.607 398.653 140.607C395.999 140.607 394.982 142.865 394.982 145.506C394.982 148.16 395.999 150.458 398.653 150.458C401.294 150.458 402.298 148.16 402.298 145.506ZM400.027 145.506C400.027 146.708 399.815 148.556 398.653 148.556C397.478 148.556 397.254 146.708 397.254 145.506C397.254 144.331 397.478 142.482 398.653 142.482C399.815 142.482 400.027 144.331 400.027 145.506Z" fill="#505D6F"/>
<defs>
<filter id="filter0_d" x="209.337" y="108.807" width="226.854" height="107.457" filterUnits="userSpaceOnUse" color-interpolation-filters="sRGB">
<feFlood flood-opacity="0" result="BackgroundImageFix"/>
<feColorMatrix in="SourceAlpha" type="matrix" values="0 0 0 0 0 0 0 0 0 0 0 0 0 0 0 0 0 0 127 0" result="hardAlpha"/>
<feOffset dy="11.9397"/>
<feGaussianBlur stdDeviation="14.3276"/>
<feColorMatrix type="matrix" values="0 0 0 0 0.113725 0 0 0 0 0.164706 0 0 0 0 0.266667 0 0 0 0.12 0"/>
<feBlend mode="normal" in2="BackgroundImageFix" result="effect1_dropShadow"/>
<feBlend mode="normal" in="SourceGraphic" in2="effect1_dropShadow" result="shape"/>
</filter>
<filter id="filter1_d" x="278.888" y="171.787" width="87.831" height="87.831" filterUnits="userSpaceOnUse" color-interpolation-filters="sRGB">
<feFlood flood-opacity="0" result="BackgroundImageFix"/>
<feColorMatrix in="SourceAlpha" type="matrix" values="0 0 0 0 0 0 0 0 0 0 0 0 0 0 0 0 0 0 127 0" result="hardAlpha"/>
<feOffset dy="7.31925"/>
<feGaussianBlur stdDeviation="9.759"/>
<feColorMatrix type="matrix" values="0 0 0 0 0.439216 0 0 0 0 0.470588 0 0 0 0 0.529412 0 0 0 0.24 0"/>
<feBlend mode="normal" in2="BackgroundImageFix" result="effect1_dropShadow"/>
<feBlend mode="normal" in="SourceGraphic" in2="effect1_dropShadow" result="shape"/>
</filter>
<clipPath id="clip0">
<rect width="169.544" height="50.1468" fill="white" transform="translate(237.992 125.523)"/>
</clipPath>
<clipPath id="clip1">
<rect width="48.795" height="48.795" fill="white" transform="translate(298.406 183.986)"/>
</clipPath>
</defs>
</svg>
