<svg width="63" height="62" viewBox="0 0 63 62" fill="none" xmlns="http://www.w3.org/2000/svg">
<path d="M20.7375 5.125H42.2625C50.4625 5.125 57.125 11.7875 57.125 19.9875V41.5125C57.125 45.4543 55.5591 49.2346 52.7719 52.0219C49.9846 54.8091 46.2043 56.375 42.2625 56.375H20.7375C12.5375 56.375 5.875 49.7125 5.875 41.5125V19.9875C5.875 16.0457 7.44087 12.2654 10.2281 9.47813C13.0154 6.69087 16.7957 5.125 20.7375 5.125ZM20.225 10.25C17.7784 10.25 15.432 11.2219 13.7019 12.9519C11.9719 14.682 11 17.0284 11 19.475V42.025C11 47.1244 15.1256 51.25 20.225 51.25H42.775C45.2216 51.25 47.568 50.2781 49.2981 48.5481C51.0281 46.818 52 44.4716 52 42.025V19.475C52 14.3756 47.8744 10.25 42.775 10.25H20.225ZM44.9531 14.0938C45.8026 14.0938 46.6174 14.4312 47.2181 15.0319C47.8188 15.6326 48.1562 16.4474 48.1562 17.2969C48.1562 18.1464 47.8188 18.9611 47.2181 19.5618C46.6174 20.1625 45.8026 20.5 44.9531 20.5C44.1036 20.5 43.2889 20.1625 42.6882 19.5618C42.0875 18.9611 41.75 18.1464 41.75 17.2969C41.75 16.4474 42.0875 15.6326 42.6882 15.0319C43.2889 14.4312 44.1036 14.0938 44.9531 14.0938ZM31.5 17.9375C34.8981 17.9375 38.157 19.2874 40.5598 21.6902C42.9626 24.093 44.3125 27.3519 44.3125 30.75C44.3125 34.1481 42.9626 37.407 40.5598 39.8098C38.157 42.2126 34.8981 43.5625 31.5 43.5625C28.1019 43.5625 24.843 42.2126 22.4402 39.8098C20.0374 37.407 18.6875 34.1481 18.6875 30.75C18.6875 27.3519 20.0374 24.093 22.4402 21.6902C24.843 19.2874 28.1019 17.9375 31.5 17.9375ZM31.5 23.0625C29.4611 23.0625 27.5058 23.8724 26.0641 25.3141C24.6224 26.7558 23.8125 28.7111 23.8125 30.75C23.8125 32.7889 24.6224 34.7442 26.0641 36.1859C27.5058 37.6276 29.4611 38.4375 31.5 38.4375C33.5389 38.4375 35.4942 37.6276 36.9359 36.1859C38.3776 34.7442 39.1875 32.7889 39.1875 30.75C39.1875 28.7111 38.3776 26.7558 36.9359 25.3141C35.4942 23.8724 33.5389 23.0625 31.5 23.0625Z" fill="#0043EA"/>
</svg>
