<svg width="22" height="18" viewBox="0 0 22 18" fill="none" xmlns="http://www.w3.org/2000/svg">
<path d="M21.4902 2.94728C20.727 3.29421 19.9043 3.52219 19.0518 3.63122C19.9241 3.10588 20.5981 2.27325 20.9153 1.27212C20.0926 1.76773 19.1807 2.11466 18.2192 2.3129C17.4361 1.46045 16.3359 0.964844 15.0869 0.964844C12.7576 0.964844 10.8544 2.86798 10.8544 5.21717C10.8544 5.55419 10.8941 5.88129 10.9635 6.18857C7.43472 6.01015 4.29256 4.31516 2.20109 1.74791C1.83434 2.37237 1.62618 3.10588 1.62618 3.87903C1.62618 5.35594 2.36959 6.66435 3.51941 7.40777C2.81564 7.40777 2.16144 7.20952 1.58653 6.91216V6.94189C1.58653 9.00363 3.05353 10.7284 4.99632 11.1149C4.37258 11.2856 3.71775 11.3094 3.08327 11.1843C3.35249 12.0293 3.87975 12.7687 4.59093 13.2985C5.30211 13.8283 6.16145 14.122 7.04815 14.1381C5.54509 15.328 3.68196 15.9712 1.76495 15.962C1.42794 15.962 1.09092 15.9422 0.753906 15.9025C2.63722 17.1118 4.87738 17.8156 7.27613 17.8156C15.0869 17.8156 19.3789 11.333 19.3789 5.71278C19.3789 5.52445 19.3789 5.34603 19.369 5.1577C20.2016 4.56297 20.9153 3.80964 21.4902 2.94728Z" fill="black"/>
</svg>
