<?xml version="1.0" encoding="UTF-8"?>
<svg width="274px" height="200px" viewBox="0 0 274 200" version="1.1" xmlns="http://www.w3.org/2000/svg" xmlns:xlink="http://www.w3.org/1999/xlink">
    <!-- Generator: Sketch 60.1 (88133) - https://sketch.com -->
    <title>Group 9</title>
    <desc>Created with Sketch.</desc>
    <defs>
        <filter x="-45.6%" y="-92.3%" width="191.1%" height="284.6%" filterUnits="objectBoundingBox" id="filter-1">
            <feGaussianBlur stdDeviation="24" in="SourceGraphic"></feGaussianBlur>
        </filter>
    </defs>
    <g id="Landing-Page" stroke="none" stroke-width="1" fill="none" fill-rule="evenodd">
        <g id="Desktop-HD-Copy-4" transform="translate(-199.000000, -2596.000000)">
            <g id="Group-9" transform="translate(219.000000, 2620.000000)">
                <g id="Group-6">
                    <g id="Group-2">
                        <rect id="Rectangle" fill="#090063" filter="url(#filter-1)" x="38" y="37" width="158" height="78" rx="33.6"></rect>
                        <path d="M33.6,0 L192.4,0 C210.956768,-3.40882291e-15 226,15.0432324 226,33.6 L226,106.4 C226,124.956768 210.956768,140 192.4,140 L73.9682191,140 L73.9682191,140 C67.3250106,152.666667 62.2327802,159 58.6915279,159 C55.1502757,159 49.8915933,152.666667 42.9154807,140 L33.6,140 C15.0432324,140 1.05134089e-14,124.956768 0,106.4 L0,33.6 C-2.2725486e-15,15.0432324 15.0432324,3.40882291e-15 33.6,0 Z" id="Rectangle" fill="#FFFFFF"></path>
                        <path d="M46.3189754,131.565522 L36,131.565522 C19.9837423,131.565522 7,118.581779 7,102.565522 L7,39.0904479 C7,23.0741902 19.9837423,10.0904479 36,10.0904479 L190.754166,10.0904479 C206.770423,10.0904479 219.754166,23.0741902 219.754166,39.0904479 C219.754166,39.1720465 219.753821,39.2536447 219.753132,39.3352404 L219.217312,102.810314 C219.082924,118.73049 206.139088,131.565522 190.218346,131.565522 L69.9178561,131.565522 L69.9178561,131.565522 L60.8985981,148.303782 C60.1126549,149.762364 58.2931084,150.307644 56.8345271,149.521701 C56.3297277,149.249695 55.913458,148.838714 55.6350193,148.337434 L46.3189754,131.565522 L46.3189754,131.565522 Z" id="Path-2" stroke="#F6555A" stroke-width="3"></path>
                    </g>
                    <text id="Hey-ModifyMe,-you’ve" font-family="Helvetica" font-size="13" font-weight="normal" line-spacing="18" fill="#000000">
                        <tspan x="25" y="46">Hey ModifyMe, you’ve got a </tspan>
                        <tspan x="25" y="64">new appointment at 3:00pm </tspan>
                        <tspan x="25" y="82">for a TIDEPods campaign </tspan>
                        <tspan x="25" y="100">wrap.</tspan>
                    </text>
                </g>
            </g>
        </g>
    </g>
</svg>