<?xml version="1.0" encoding="UTF-8"?>
<svg width="180px" height="37px" viewBox="0 0 180 37" version="1.1" xmlns="http://www.w3.org/2000/svg" xmlns:xlink="http://www.w3.org/1999/xlink">
    <!-- Generator: Sketch 60.1 (88133) - https://sketch.com -->
    <title>Prommoto Logo@1.5x</title>
    <desc>Created with Sketch.</desc>
    <g id="Landing-Page" stroke="none" stroke-width="1" fill="none" fill-rule="evenodd">
        <g id="Desktop-HD-Copy-4" transform="translate(-59.000000, -38.000000)">
            <g id="Group-3" transform="translate(-54.000000, -477.000000)">
                <g id="Prommoto-Logo-Blue" transform="translate(113.000000, 515.000000)">
                    <g id="Group-6">
                        <g id="Group-2" transform="translate(35.054345, 0.000000)">
                            <path d="M21.3464156,25.7247516 L26.587743,25.7247516 C26.54684,22.2185597 26.54684,19.8200124 26.587743,18.5291097 C26.7110853,14.6364201 26.7110853,12.6318442 29.318386,12.6318442 C31.9256868,12.6318442 32.0028562,14.5531184 32.1319536,18.5291097 C32.173408,19.8058374 32.173408,22.2043847 32.1319536,25.7247516 L37.3284288,25.7247516 C37.3284288,23.485469 37.3284288,21.0869217 37.3284288,18.5291097 C37.3284288,14.6923918 37.6683187,12.6318442 40.1320646,12.6318442 C42.5958105,12.6318442 42.8260921,14.6508663 42.8260921,18.5291097 C42.8260921,19.864669 42.8260921,22.2632163 42.8260921,25.7247516 L48.0638991,25.7247516 C48.0638991,21.461095 48.0638991,18.3673618 48.0638991,16.443552 C48.0638991,15.1509962 48.3524401,10.3842999 43.8386583,8.14931323 C40.8294705,6.65932211 37.7849702,7.09527588 34.7051574,9.45717454 C31.6959033,7.09350541 28.6769877,6.65755164 25.6484104,8.14931323 C21.1055445,10.3869556 21.3464156,15.0259161 21.3464156,16.443552 C21.3464156,18.0881962 21.3464156,21.1819294 21.3464156,25.7247516 Z" id="Path" fill="#000000"></path>
                            <path d="M51.1815585,25.7247516 L56.4228859,25.7247516 C56.3819829,22.2185597 56.3819829,19.8200124 56.4228859,18.5291097 C56.5462282,14.6364201 56.5462282,12.6318442 59.153529,12.6318442 C61.7608297,12.6318442 61.8379991,14.5531184 61.9670966,18.5291097 C62.0085509,19.8058374 62.0085509,22.2043847 61.9670966,25.7247516 L67.1635717,25.7247516 C67.1635717,23.485469 67.1635717,21.0869217 67.1635717,18.5291097 C67.1635717,14.6923918 67.5034616,12.6318442 69.9672075,12.6318442 C72.4309535,12.6318442 72.661235,14.6508663 72.661235,18.5291097 C72.661235,19.864669 72.661235,22.2632163 72.661235,25.7247516 L77.899042,25.7247516 C77.899042,20.3989907 77.899042,17.3052575 77.899042,16.443552 C77.899042,16.1939291 78.187583,10.3842999 73.6738012,8.14931323 C70.6646134,6.65932211 67.6201131,7.09527588 64.5403003,9.45717454 C61.5310462,7.09350541 58.5121306,6.65755164 55.4835533,8.14931323 C50.9406874,10.3869556 51.1815585,15.0259161 51.1815585,16.443552 C51.1815585,18.0772049 51.1815585,21.1709381 51.1815585,25.7247516 Z" id="Path" fill="#000000"></path>
                            <ellipse id="Oval" fill="#000000" cx="142.164845" cy="23.0128049" rx="2.72644909" ry="2.7119467"></ellipse>
                            <path d="M102.124993,0 L107.577891,0 L107.577891,25.7247516 C104.566339,25.7247516 102.124993,23.2834059 102.124993,20.2718534 L102.124993,0 L102.124993,0 Z" id="Rectangle" fill="#000000"></path>
                            <path d="M108.137683,1.68103404 L113.561577,1.68103404 L113.561577,10.5614682 C110.566043,10.5614682 108.137683,8.13310843 108.137683,5.13757481 L108.137683,1.68103404 L108.137683,1.68103404 Z" id="Rectangle" fill="#000000" transform="translate(110.849630, 6.121251) rotate(-90.000000) translate(-110.849630, -6.121251) "></path>
                            <path d="M109.836949,19.5260163 L115.289847,19.5260163 L115.289847,25.7247516 C112.278295,25.7247516 109.836949,23.2834059 109.836949,20.2718534 L109.836949,19.5260163 L109.836949,19.5260163 Z" id="Rectangle" fill="#0043EA" fill-rule="nonzero" transform="translate(112.563398, 22.625384) scale(-1, 1) translate(-112.563398, -22.625384) "></path>
                            <g id="Group" transform="translate(0.000000, 7.283514)"></g>
                        </g>
                        <path d="M0,16.4266486 L5.29710109,16.4266486 L5.29710109,31.1204689 C5.29710109,34.0459771 2.92550815,36.41757 0,36.41757 L0,36.41757 L0,36.41757" id="Rectangle" fill="#000000"></path>
                        <ellipse id="Oval" stroke="#000000" stroke-width="5.44335561" cx="44.4021709" cy="16.4266486" rx="6.62614765" ry="6.57642517"></ellipse>
                        <ellipse id="Oval" stroke="#000000" stroke-width="5.44335561" cx="9.34782545" cy="16.4266486" rx="6.62614765" ry="6.57642517"></ellipse>
                        <ellipse id="Oval" stroke="#000000" stroke-width="5.44335561" cx="125.156996" cy="16.4266486" rx="6.62614765" ry="6.57642517"></ellipse>
                        <ellipse id="Oval" stroke="#000000" stroke-width="5.44335561" cx="162.548298" cy="16.4266486" rx="6.62614765" ry="6.57642517"></ellipse>
                        <g id="Group-3" transform="translate(21.032607, 5.294753)" fill="#000000">
                            <path d="M0.519323636,2.10622021 L6.00622609,2.10622021 L6.00622609,20.5732859 C2.97589354,20.5732859 0.519323636,18.1167159 0.519323636,15.0863834 L0.519323636,2.10622021 L0.519323636,2.10622021 Z" id="Rectangle" transform="translate(3.262775, 11.339753) scale(1, -1) translate(-3.262775, -11.339753) "></path>
                            <path d="M4.79378463,5.01648231 L13.80197,10.3582161 C12.0397247,9.57171112 10.8500926,9.04076826 10.2330736,8.76538747 C8.77118363,8.11293365 7.6929484,7.9925243 6.97818828,8.48501447 C5.79321592,9.30149435 5.00707048,10.4799857 4.61975198,12.0204885 L-0.611477988,11.6068428 C-0.677398682,10.6617677 -0.401102506,9.49296198 0.21741054,8.10042567 C1.14518011,6.0116212 2.09175416,5.56925539 3.25117349,4.71096332 C4.02411971,4.13876861 4.53832342,4.24060828 4.79378463,5.01648231 Z" id="Rectangle" transform="translate(6.590484, 8.183573) scale(1, -1) rotate(-114.000000) translate(-6.590484, -8.183573) "></path>
                        </g>
                    </g>
                </g>
            </g>
        </g>
    </g>
</svg>